<?xml version="1.0" standalone="no"?>
<!DOCTYPE svg PUBLIC "-//W3C//DTD SVG 1.1//EN" 
"http://www.w3.org/Graphics/SVG/1.1/DTD/svg11.dtd">
<svg width="532px" height="513px" version="1.1"
     xmlns="http://www.w3.org/2000/svg"  xmlns:xlink="http://www.w3.org/1999/xlink">
  <defs>
    <polygon id="TRIANGLE" points="0,0.57735 -0.5,-0.288675 0.5,-0.288675"/>
  </defs>
  <circle r="0.5"
          stroke="none" fill="#ff0400" fill-rule="nonzero"
          transform="matrix( 6.1251282  -6.802644  -6.802644 -6.1251282  91.130279  127.75507)"/>
  <circle r="0.5"
          stroke="none" fill="#ff0400" fill-rule="nonzero"
          transform="matrix( 6.1842585 -6.7489339 -6.7489339 -6.1842585  92.967818  125.71427)"/>
  <circle r="0.5"
          stroke="none" fill="#ff0400" fill-rule="nonzero"
          transform="matrix( 6.2429178 -6.6947097 -6.6947097 -6.2429178  94.823095  123.68959)"/>
  <circle r="0.5"
          stroke="none" fill="#ff0400" fill-rule="nonzero"
          transform="matrix( 6.3011017 -6.6399758 -6.6399758 -6.3011017   96.69597  121.68118)"/>
  <circle r="0.5"
          stroke="none" fill="#ff0400" fill-rule="nonzero"
          transform="matrix( 6.3588058 -6.5847362 -6.5847362 -6.3588058  98.586301  119.68919)"/>
  <circle r="0.5"
          stroke="none" fill="#ff0400" fill-rule="nonzero"
          transform="matrix( 6.4160256 -6.5289951 -6.5289951 -6.4160256  100.49394  117.71377)"/>
  <circle r="0.5"
          stroke="none" fill="#ff0400" fill-rule="nonzero"
          transform="matrix( 6.4727568 -6.4727568 -6.4727568 -6.4727568  102.41875  115.75507)"/>
  <circle r="0.5"
          stroke="none" fill="#ff0400" fill-rule="nonzero"
          transform="matrix( 6.5289951 -6.4160256 -6.4160256 -6.5289951  104.36058  113.81324)"/>
  <circle r="0.5"
          stroke="none" fill="#ff0400" fill-rule="nonzero"
          transform="matrix( 6.5847362 -6.3588058 -6.3588058 -6.5847362  106.31928  111.88843)"/>
  <circle r="0.5"
          stroke="none" fill="#ff0400" fill-rule="nonzero"
          transform="matrix( 6.6399758 -6.3011017 -6.3011017 -6.6399758   108.2947  109.98079)"/>
  <circle r="0.5"
          stroke="none" fill="#ff0400" fill-rule="nonzero"
          transform="matrix( 6.6947097 -6.2429178 -6.2429178 -6.6947097  110.28669  108.09046)"/>
  <circle r="0.5"
          stroke="none" fill="#000000" fill-rule="nonzero"
          transform="matrix( 3.2804502  -8.545865  -8.545865 -3.2804502  51.023144   201.5859)"/>
  <circle r="0.5"
          stroke="none" fill="#000000" fill-rule="nonzero"
          transform="matrix( 3.3549011 -8.5169126 -8.5169126 -3.3549011  52.007279  199.02214)"/>
  <circle r="0.5"
          stroke="none" fill="#000000" fill-rule="nonzero"
          transform="matrix( 3.4290965 -8.4873116 -8.4873116 -3.4290965   53.01375  196.46706)"/>
  <circle r="0.5"
          stroke="none" fill="#000000" fill-rule="nonzero"
          transform="matrix( 3.5030307 -8.4570643 -8.4570643 -3.5030307  54.042479  193.92087)"/>
  <circle r="0.5"
          stroke="none" fill="#000000" fill-rule="nonzero"
          transform="matrix( 3.5766982  -8.426173  -8.426173 -3.5766982  55.093388  191.38375)"/>
  <circle r="0.5"
          stroke="none" fill="#000000" fill-rule="nonzero"
          transform="matrix( 3.6500933   -8.39464   -8.39464 -3.6500933  56.166397   188.8559)"/>
  <circle r="0.5"
          stroke="none" fill="#000000" fill-rule="nonzero"
          transform="matrix( 3.7232105 -8.3624677 -8.3624677 -3.7232105  57.261425  186.33751)"/>
  <circle r="0.5"
          stroke="none" fill="#000000" fill-rule="nonzero"
          transform="matrix( 3.7960441 -8.3296585 -8.3296585 -3.7960441  58.378388  183.82877)"/>
  <circle r="0.5"
          stroke="none" fill="#000000" fill-rule="nonzero"
          transform="matrix( 3.8685886  -8.296215  -8.296215 -3.8685886  59.517202  181.32987)"/>
  <circle r="0.5"
          stroke="none" fill="#000000" fill-rule="nonzero"
          transform="matrix( 3.9408385 -8.2621398 -8.2621398 -3.9408385  60.677778  178.84101)"/>
  <circle r="0.5"
          stroke="none" fill="#000000" fill-rule="nonzero"
          transform="matrix( 4.0127883 -8.2274353 -8.2274353 -4.0127883   61.86003  176.36236)"/>
  <circle r="0.5"
          stroke="none" fill="#ff0400" fill-rule="nonzero"
          transform="matrix( 1.9031946  8.9538267  8.9538267 -1.9031946  492.94135  213.25167)"/>
  <circle r="0.5"
          stroke="none" fill="#ff0400" fill-rule="nonzero"
          transform="matrix( 1.8249863   8.970094   8.970094 -1.8249863  493.51231  215.93781)"/>
  <circle r="0.5"
          stroke="none" fill="#ff0400" fill-rule="nonzero"
          transform="matrix( 1.7466389  8.9856783  8.9856783 -1.7466389  494.05981  218.62884)"/>
  <circle r="0.5"
          stroke="none" fill="#ff0400" fill-rule="nonzero"
          transform="matrix( 1.6681586  9.0005782  9.0005782 -1.6681586   494.5838  221.32454)"/>
  <circle r="0.5"
          stroke="none" fill="#ff0400" fill-rule="nonzero"
          transform="matrix( 1.5895512  9.0147928  9.0147928 -1.5895512  495.08425  224.02472)"/>
  <circle r="0.5"
          stroke="none" fill="#ff0400" fill-rule="nonzero"
          transform="matrix( 1.5108228  9.0283208  9.0283208 -1.5108228  495.56111  226.72916)"/>
  <circle r="0.5"
          stroke="none" fill="#ff0400" fill-rule="nonzero"
          transform="matrix( 1.4319793  9.0411613  9.0411613 -1.4319793  496.01436  229.43765)"/>
  <circle r="0.5"
          stroke="none" fill="#ff0400" fill-rule="nonzero"
          transform="matrix( 1.3530267  9.0533132  9.0533132 -1.3530267  496.44395     232.15)"/>
  <circle r="0.5"
          stroke="none" fill="#ff0400" fill-rule="nonzero"
          transform="matrix( 1.2739711  9.0647757  9.0647757 -1.2739711  496.84986  234.86599)"/>
  <circle r="0.5"
          stroke="none" fill="#ff0400" fill-rule="nonzero"
          transform="matrix( 1.1948186  9.0755479  9.0755479 -1.1948186  497.23205  237.58543)"/>
  <circle r="0.5"
          stroke="none" fill="#ff0400" fill-rule="nonzero"
          transform="matrix(  1.115575   9.085629   9.085629  -1.115575   497.5905  240.30809)"/>
  <circle r="0.5"
          stroke="none" fill="#000000" fill-rule="nonzero"
          transform="matrix(-4.5769302  7.9274757  7.9274757  4.5769302  475.63543  377.57151)"/>
  <circle r="0.5"
          stroke="none" fill="#000000" fill-rule="nonzero"
          transform="matrix(-4.6459354  7.8872331  7.8872331  4.6459354  474.26235  379.94976)"/>
  <circle r="0.5"
          stroke="none" fill="#000000" fill-rule="nonzero"
          transform="matrix(-4.7145867  7.8463899  7.8463899  4.7145867  472.86857  382.31593)"/>
  <circle r="0.5"
          stroke="none" fill="#000000" fill-rule="nonzero"
          transform="matrix( -4.782879  7.8049491  7.8049491   4.782879  471.45419  384.66984)"/>
  <circle r="0.5"
          stroke="none" fill="#000000" fill-rule="nonzero"
          transform="matrix( -4.850807  7.7629139  7.7629139   4.850807  470.01933  387.01133)"/>
  <circle r="0.5"
          stroke="none" fill="#000000" fill-rule="nonzero"
          transform="matrix(-4.9183656  7.7202876  7.7202876  4.9183656  468.56409   389.3402)"/>
  <circle r="0.5"
          stroke="none" fill="#000000" fill-rule="nonzero"
          transform="matrix(-4.9855497  7.6770734  7.6770734  4.9855497  467.08858  391.65629)"/>
  <circle r="0.5"
          stroke="none" fill="#000000" fill-rule="nonzero"
          transform="matrix(-5.0523542  7.6332745  7.6332745  5.0523542  465.59291  393.95941)"/>
  <circle r="0.5"
          stroke="none" fill="#000000" fill-rule="nonzero"
          transform="matrix(-5.1187738  7.5888943  7.5888943  5.1187738   464.0772  396.24939)"/>
  <circle r="0.5"
          stroke="none" fill="#000000" fill-rule="nonzero"
          transform="matrix(-5.1848037  7.5439361  7.5439361  5.1848037  462.54157  398.52606)"/>
  <circle r="0.5"
          stroke="none" fill="#000000" fill-rule="nonzero"
          transform="matrix(-5.2504387  7.4984035  7.4984035  5.2504387  460.98613  400.78924)"/>
  <circle r="0.5"
          stroke="none" fill="#000000" fill-rule="nonzero"
          transform="matrix(-8.7058387  2.8286985  2.8286985  8.7058387  352.82318  488.10503)"/>
  <circle r="0.5"
          stroke="none" fill="#000000" fill-rule="nonzero"
          transform="matrix(-8.7301919  2.7526189  2.7526189  8.7301919  350.21143  488.95364)"/>
  <circle r="0.5"
          stroke="none" fill="#000000" fill-rule="nonzero"
          transform="matrix(-8.7538803  2.6763298  2.6763298  8.7538803  347.59237  489.77943)"/>
  <circle r="0.5"
          stroke="none" fill="#000000" fill-rule="nonzero"
          transform="matrix(-8.7769021  2.5998368  2.5998368  8.7769021   344.9662  490.58233)"/>
  <circle r="0.5"
          stroke="none" fill="#000000" fill-rule="nonzero"
          transform="matrix(-8.7992554  2.5231459  2.5231459  8.7992554  342.33313  491.36228)"/>
  <circle r="0.5"
          stroke="none" fill="#000000" fill-rule="nonzero"
          transform="matrix(-8.8209387  2.4462628  2.4462628  8.8209387  339.69336  492.11922)"/>
  <circle r="0.5"
          stroke="none" fill="#000000" fill-rule="nonzero"
          transform="matrix(-8.8419502  2.3691934  2.3691934  8.8419502  337.04708   492.8531)"/>
  <circle r="0.5"
          stroke="none" fill="#000000" fill-rule="nonzero"
          transform="matrix(-8.8622884  2.2919436  2.2919436  8.8622884  334.39449  493.56386)"/>
  <circle r="0.5"
          stroke="none" fill="#000000" fill-rule="nonzero"
          transform="matrix(-8.8819517  2.2145193  2.2145193  8.8819517   331.7358  494.25144)"/>
  <circle r="0.5"
          stroke="none" fill="#000000" fill-rule="nonzero"
          transform="matrix(-8.9009386  2.1369263  2.1369263  8.9009386  329.07122   494.9158)"/>
  <circle r="0.5"
          stroke="none" fill="#000000" fill-rule="nonzero"
          transform="matrix(-8.9192476  2.0591706  2.0591706  8.9192476  326.40094  495.55688)"/>
  <circle r="0.5"
          stroke="none" fill="#ff0400" fill-rule="nonzero"
          transform="matrix( 8.1561494 -4.1557657 -8.3115314 -16.312299  193.73498  48.344257)"/>
  <circle r="0.5"
          stroke="none" fill="#ff0400" fill-rule="nonzero"
          transform="matrix( 4.1557657 -8.1561494 -16.312299 -8.3115314  195.73517  46.344065)"/>
  <circle r="0.5"
          stroke="none" fill="#ff0400" fill-rule="nonzero"
          transform="matrix(-1.4319793 -9.0411613 -18.082323  2.8639585  196.17768  43.550193)"/>
  <circle r="0.5"
          stroke="none" fill="#ff0400" fill-rule="nonzero"
          transform="matrix(-6.4727568 -6.4727568 -12.945514  12.945514  194.89348  41.029804)"/>
  <circle r="0.5"
          stroke="none" fill="#ff0400" fill-rule="nonzero"
          transform="matrix(-9.0411613 -1.4319793 -2.8639585  18.082323  192.37309  39.745602)"/>
  <circle r="0.5"
          stroke="none" fill="#ff0400" fill-rule="nonzero"
          transform="matrix(-8.1561494  4.1557657  8.3115314  16.312299  189.57922  40.188108)"/>
  <circle r="0.5"
          stroke="none" fill="#ff0400" fill-rule="nonzero"
          transform="matrix(-4.1557657  8.1561494  16.312299  8.3115314  187.57903    42.1883)"/>
  <circle r="0.5"
          stroke="none" fill="#ff0400" fill-rule="nonzero"
          transform="matrix( 1.4319793  9.0411613  18.082323 -2.8639585  187.13652  44.982172)"/>
  <circle r="0.5"
          stroke="none" fill="#ff0400" fill-rule="nonzero"
          transform="matrix( 6.4727568  6.4727568  12.945514 -12.945514  188.42072  47.502561)"/>
  <circle r="0.5"
          stroke="none" fill="#ff0400" fill-rule="nonzero"
          transform="matrix( 9.0411613  1.4319793  2.8639585 -18.082323  190.94111  48.786763)"/>
  <circle r="0.5"
          stroke="none" fill="#ff0400" fill-rule="nonzero"
          transform="matrix( 9.1037147 -0.95683897 -1.9136779 -18.207429  279.28015   35.83502)"/>
  <circle r="0.5"
          stroke="none" fill="#ff0400" fill-rule="nonzero"
          transform="matrix(  6.802644 -6.1251282 -12.250256 -13.605288   281.8643  34.684484)"/>
  <circle r="0.5"
          stroke="none" fill="#ff0400" fill-rule="nonzero"
          transform="matrix( 1.9031946 -8.9538267 -17.907653 -3.8063892  283.27864   32.23476)"/>
  <circle r="0.5"
          stroke="none" fill="#ff0400" fill-rule="nonzero"
          transform="matrix(-3.7232105 -8.3624677 -16.724935   7.446421  282.98297  29.421557)"/>
  <circle r="0.5"
          stroke="none" fill="#ff0400" fill-rule="nonzero"
          transform="matrix(-7.9274757 -4.5769302 -9.1538605  15.854951   281.0902  27.319424)"/>
  <circle r="0.5"
          stroke="none" fill="#ff0400" fill-rule="nonzero"
          transform="matrix(-9.1037147 0.95683897  1.9136779  18.207429  278.32331  26.731305)"/>
  <circle r="0.5"
          stroke="none" fill="#ff0400" fill-rule="nonzero"
          transform="matrix( -6.802644  6.1251282  12.250256  13.605288  275.73917   27.88184)"/>
  <circle r="0.5"
          stroke="none" fill="#ff0400" fill-rule="nonzero"
          transform="matrix(-1.9031946  8.9538267  17.907653  3.8063892  274.32482  30.331565)"/>
  <circle r="0.5"
          stroke="none" fill="#ff0400" fill-rule="nonzero"
          transform="matrix( 3.7232105  8.3624677  16.724935  -7.446421   274.6205  33.144768)"/>
  <circle r="0.5"
          stroke="none" fill="#ff0400" fill-rule="nonzero"
          transform="matrix( 7.9274757  4.5769302  9.1538605 -15.854951  276.51327    35.2469)"/>
  <circle r="0.5"
          stroke="none" fill="#4000ff" fill-rule="nonzero"
          transform="matrix(-1.4319793  9.0411613  18.082323  2.8639585  496.87652  342.93712)"/>
  <circle r="0.5"
          stroke="none" fill="#4000ff" fill-rule="nonzero"
          transform="matrix( 4.1557657  8.1561494  16.312299 -8.3115314  497.31902  345.73099)"/>
  <circle r="0.5"
          stroke="none" fill="#4000ff" fill-rule="nonzero"
          transform="matrix( 8.1561494  4.1557657  8.3115314 -16.312299  499.31921  347.73118)"/>
  <circle r="0.5"
          stroke="none" fill="#4000ff" fill-rule="nonzero"
          transform="matrix( 9.0411613 -1.4319793 -2.8639585 -18.082323  502.11309  348.17369)"/>
  <circle r="0.5"
          stroke="none" fill="#4000ff" fill-rule="nonzero"
          transform="matrix( 6.4727568 -6.4727568 -12.945514 -12.945514  504.63348  346.88949)"/>
  <circle r="0.5"
          stroke="none" fill="#4000ff" fill-rule="nonzero"
          transform="matrix( 1.4319793 -9.0411613 -18.082323 -2.8639585  505.91768   344.3691)"/>
  <circle r="0.5"
          stroke="none" fill="#4000ff" fill-rule="nonzero"
          transform="matrix(-4.1557657 -8.1561494 -16.312299  8.3115314  505.47517  341.57522)"/>
  <circle r="0.5"
          stroke="none" fill="#4000ff" fill-rule="nonzero"
          transform="matrix(-8.1561494 -4.1557657 -8.3115314  16.312299  503.47498  339.57503)"/>
  <circle r="0.5"
          stroke="none" fill="#4000ff" fill-rule="nonzero"
          transform="matrix(-9.0411613  1.4319793  2.8639585  18.082323  500.68111  339.13253)"/>
  <circle r="0.5"
          stroke="none" fill="#4000ff" fill-rule="nonzero"
          transform="matrix(-6.4727568  6.4727568  12.945514  12.945514  498.16072  340.41673)"/>
  <circle r="0.5"
          stroke="none" fill="#000000" fill-rule="nonzero"
          transform="matrix( 4.9855497  7.6770734  15.354147 -9.9710995  485.55162  173.30023)"/>
  <circle r="0.5"
          stroke="none" fill="#000000" fill-rule="nonzero"
          transform="matrix(  8.545865  3.2804502  6.5609004  -17.09173  487.74994  175.08039)"/>
  <circle r="0.5"
          stroke="none" fill="#000000" fill-rule="nonzero"
          transform="matrix( 8.8419502 -2.3691934 -4.7383869   -17.6839  490.57476  175.22843)"/>
  <circle r="0.5"
          stroke="none" fill="#000000" fill-rule="nonzero"
          transform="matrix( 5.7607111 -7.1138857 -14.227771 -11.521422   492.9471  173.68781)"/>
  <circle r="0.5"
          stroke="none" fill="#000000" fill-rule="nonzero"
          transform="matrix(0.47907604 -9.1413154 -18.282631 -0.95815208  493.96082  171.04699)"/>
  <circle r="0.5"
          stroke="none" fill="#000000" fill-rule="nonzero"
          transform="matrix(-4.9855497 -7.6770734 -15.354147  9.9710995   493.2287  168.31468)"/>
  <circle r="0.5"
          stroke="none" fill="#000000" fill-rule="nonzero"
          transform="matrix( -8.545865 -3.2804502 -6.5609004   17.09173  491.03039  166.53452)"/>
  <circle r="0.5"
          stroke="none" fill="#000000" fill-rule="nonzero"
          transform="matrix(-8.8419502  2.3691934  4.7383869    17.6839  488.20556  166.38648)"/>
  <circle r="0.5"
          stroke="none" fill="#000000" fill-rule="nonzero"
          transform="matrix(-5.7607111  7.1138857  14.227771  11.521422  485.83322   167.9271)"/>
  <circle r="0.5"
          stroke="none" fill="#000000" fill-rule="nonzero"
          transform="matrix(-0.47907604  9.1413154  18.282631 0.95815208   484.8195  170.56792)"/>
  <circle r="0.5"
          stroke="none" fill="#000000" fill-rule="nonzero"
          transform="matrix(5.605123e-16 -9.1538605 -18.307721 -1.1210246e-15  35.461581  239.11673)"/>
  <circle r="0.5"
          stroke="none" fill="#000000" fill-rule="nonzero"
          transform="matrix(-5.3805042 -7.4056287 -14.811257  10.761008  34.587466  236.42647)"/>
  <circle r="0.5"
          stroke="none" fill="#000000" fill-rule="nonzero"
          transform="matrix(-8.7058387 -2.8286985 -5.6573969  17.411677     32.299  234.76381)"/>
  <circle r="0.5"
          stroke="none" fill="#000000" fill-rule="nonzero"
          transform="matrix(-8.7058387  2.8286985  5.6573969  17.411677  29.470302  234.76381)"/>
  <circle r="0.5"
          stroke="none" fill="#000000" fill-rule="nonzero"
          transform="matrix(-5.3805042  7.4056287  14.811257  10.761008  27.181837  236.42647)"/>
  <circle r="0.5"
          stroke="none" fill="#000000" fill-rule="nonzero"
          transform="matrix(         0  9.1538605  18.307721          0  26.307721  239.11673)"/>
  <circle r="0.5"
          stroke="none" fill="#000000" fill-rule="nonzero"
          transform="matrix( 5.3805042  7.4056287  14.811257 -10.761008  27.181837  241.80698)"/>
  <circle r="0.5"
          stroke="none" fill="#000000" fill-rule="nonzero"
          transform="matrix( 8.7058387  2.8286985  5.6573969 -17.411677  29.470302  243.46965)"/>
  <circle r="0.5"
          stroke="none" fill="#000000" fill-rule="nonzero"
          transform="matrix( 8.7058387 -2.8286985 -5.6573969 -17.411677     32.299  243.46965)"/>
  <circle r="0.5"
          stroke="none" fill="#000000" fill-rule="nonzero"
          transform="matrix( 5.3805042 -7.4056287 -14.811257 -10.761008  34.587466  241.80698)"/>
  <circle r="0.5"
          stroke="none" fill="#000000" fill-rule="nonzero"
          transform="matrix( 7.4056287  5.3805042  10.761008 -14.811257  435.56912    102.758)"/>
  <circle r="0.5"
          stroke="none" fill="#000000" fill-rule="nonzero"
          transform="matrix( 9.1538605          0          0 -18.307721  438.25937  103.63212)"/>
  <circle r="0.5"
          stroke="none" fill="#000000" fill-rule="nonzero"
          transform="matrix( 7.4056287 -5.3805042 -10.761008 -14.811257  440.94962    102.758)"/>
  <circle r="0.5"
          stroke="none" fill="#000000" fill-rule="nonzero"
          transform="matrix( 2.8286985 -8.7058387 -17.411677 -5.6573969  442.61229  100.46954)"/>
  <circle r="0.5"
          stroke="none" fill="#000000" fill-rule="nonzero"
          transform="matrix(-2.8286985 -8.7058387 -17.411677  5.6573969  442.61229  97.640838)"/>
  <circle r="0.5"
          stroke="none" fill="#000000" fill-rule="nonzero"
          transform="matrix(-7.4056287 -5.3805042 -10.761008  14.811257  440.94962  95.352373)"/>
  <circle r="0.5"
          stroke="none" fill="#000000" fill-rule="nonzero"
          transform="matrix(-9.1538605         -0          0  18.307721  438.25937  94.478257)"/>
  <circle r="0.5"
          stroke="none" fill="#000000" fill-rule="nonzero"
          transform="matrix(-7.4056287  5.3805042  10.761008  14.811257  435.56912  95.352373)"/>
  <circle r="0.5"
          stroke="none" fill="#000000" fill-rule="nonzero"
          transform="matrix(-2.8286985  8.7058387  17.411677  5.6573969  433.90645  97.640838)"/>
  <circle r="0.5"
          stroke="none" fill="#000000" fill-rule="nonzero"
          transform="matrix( 2.8286985  8.7058387  17.411677 -5.6573969  433.90645  100.46954)"/>
  <circle r="0.5"
          stroke="none" fill="#ff0400" fill-rule="nonzero"
          transform="matrix(-7.1138857  5.7607111  11.521422  14.227771  391.78332  476.57972)"/>
  <circle r="0.5"
          stroke="none" fill="#ff0400" fill-rule="nonzero"
          transform="matrix(-2.3691934  8.8419502    17.6839  4.7383869   390.2427  478.95207)"/>
  <circle r="0.5"
          stroke="none" fill="#ff0400" fill-rule="nonzero"
          transform="matrix( 3.2804502   8.545865   17.09173 -6.5609004  390.39074  481.77689)"/>
  <circle r="0.5"
          stroke="none" fill="#ff0400" fill-rule="nonzero"
          transform="matrix( 7.6770734  4.9855497  9.9710995 -15.354147   392.1709   483.9752)"/>
  <circle r="0.5"
          stroke="none" fill="#ff0400" fill-rule="nonzero"
          transform="matrix( 9.1413154 -0.47907604 -0.95815208 -18.282631  394.90321  484.70733)"/>
  <circle r="0.5"
          stroke="none" fill="#ff0400" fill-rule="nonzero"
          transform="matrix( 7.1138857 -5.7607111 -11.521422 -14.227771  397.54403  483.69361)"/>
  <circle r="0.5"
          stroke="none" fill="#ff0400" fill-rule="nonzero"
          transform="matrix( 2.3691934 -8.8419502   -17.6839 -4.7383869  399.08465  481.32126)"/>
  <circle r="0.5"
          stroke="none" fill="#ff0400" fill-rule="nonzero"
          transform="matrix(-3.2804502  -8.545865  -17.09173  6.5609004  398.93661  478.49644)"/>
  <circle r="0.5"
          stroke="none" fill="#ff0400" fill-rule="nonzero"
          transform="matrix(-7.6770734 -4.9855497 -9.9710995  15.354147  397.15645  476.29813)"/>
  <circle r="0.5"
          stroke="none" fill="#ff0400" fill-rule="nonzero"
          transform="matrix(-9.1413154 0.47907604 0.95815208  18.282631  394.42414  475.56601)"/>
  <circle r="0.5"
          stroke="none" fill="#ff0400" fill-rule="nonzero"
          transform="matrix( 8.8419502  2.3691934  4.7383869   -17.6839  363.62636  54.813287)"/>
  <circle r="0.5"
          stroke="none" fill="#ff0400" fill-rule="nonzero"
          transform="matrix(  8.545865 -3.2804502 -6.5609004  -17.09173  366.45118  54.665244)"/>
  <circle r="0.5"
          stroke="none" fill="#ff0400" fill-rule="nonzero"
          transform="matrix( 4.9855497 -7.6770734 -15.354147 -9.9710995  368.64949  52.885087)"/>
  <circle r="0.5"
          stroke="none" fill="#ff0400" fill-rule="nonzero"
          transform="matrix(-0.47907604 -9.1413154 -18.282631 0.95815208  369.38161  50.152774)"/>
  <circle r="0.5"
          stroke="none" fill="#ff0400" fill-rule="nonzero"
          transform="matrix(-5.7607111 -7.1138857 -14.227771  11.521422  368.36789  47.511956)"/>
  <circle r="0.5"
          stroke="none" fill="#ff0400" fill-rule="nonzero"
          transform="matrix(-8.8419502 -2.3691934 -4.7383869    17.6839  365.99555  45.971337)"/>
  <circle r="0.5"
          stroke="none" fill="#ff0400" fill-rule="nonzero"
          transform="matrix( -8.545865  3.2804502  6.5609004   17.09173  363.17073  46.119379)"/>
  <circle r="0.5"
          stroke="none" fill="#ff0400" fill-rule="nonzero"
          transform="matrix(-4.9855497  7.6770734  15.354147  9.9710995  360.97242  47.899537)"/>
  <circle r="0.5"
          stroke="none" fill="#ff0400" fill-rule="nonzero"
          transform="matrix(0.47907604  9.1413154  18.282631 -0.95815208  360.24029   50.63185)"/>
  <circle r="0.5"
          stroke="none" fill="#ff0400" fill-rule="nonzero"
          transform="matrix( 5.7607111  7.1138857  14.227771 -11.521422  361.25401  53.272667)"/>
</svg>
