<?xml version="1.0" standalone="no"?>
<!DOCTYPE svg PUBLIC "-//W3C//DTD SVG 1.1//EN" 
"http://www.w3.org/Graphics/SVG/1.1/DTD/svg11.dtd">
<svg width="532px" height="341px" version="1.1"
     xmlns="http://www.w3.org/2000/svg"  xmlns:xlink="http://www.w3.org/1999/xlink">
  <defs>
    <polygon id="TRIANGLE" points="0,0.57735 -0.5,-0.288675 0.5,-0.288675"/>
  </defs>
  <circle r="0.5"
          stroke="none" fill="#000000" fill-rule="nonzero"
          transform="matrix( 12.368245 -1.2999549 -1.2999549 -12.368245  315.46349  39.937526)"/>
  <circle r="0.5"
          stroke="none" fill="#000000" fill-rule="nonzero"
          transform="matrix( 12.379118 -1.1919735 -1.1919735 -12.379118  319.17397   39.54754)"/>
  <circle r="0.5"
          stroke="none" fill="#000000" fill-rule="nonzero"
          transform="matrix( 12.389048 -1.0839013 -1.0839013 -12.389048   322.8877  39.189948)"/>
  <circle r="0.5"
          stroke="none" fill="#000000" fill-rule="nonzero"
          transform="matrix( 12.398035 -0.97574653 -0.97574653 -12.398035  326.60442  38.864777)"/>
  <circle r="0.5"
          stroke="none" fill="#000000" fill-rule="nonzero"
          transform="matrix( 12.406078 -0.86751748 -0.86751748 -12.406078  330.32383  38.572054)"/>
  <circle r="0.5"
          stroke="none" fill="#000000" fill-rule="nonzero"
          transform="matrix( 12.413176 -0.75922237 -0.75922237 -12.413176  334.04565  38.311798)"/>
  <circle r="0.5"
          stroke="none" fill="#000000" fill-rule="nonzero"
          transform="matrix( 12.419329 -0.65086944 -0.65086944 -12.419329   337.7696  38.084032)"/>
  <circle r="0.5"
          stroke="none" fill="#000000" fill-rule="nonzero"
          transform="matrix( 12.424536 -0.54246694 -0.54246694 -12.424536   341.4954  37.888771)"/>
  <circle r="0.5"
          stroke="none" fill="#000000" fill-rule="nonzero"
          transform="matrix( 12.428796 -0.43402313 -0.43402313 -12.428796  345.22276  37.726031)"/>
  <circle r="0.5"
          stroke="none" fill="#000000" fill-rule="nonzero"
          transform="matrix( 12.432111 -0.32554628 -0.32554628 -12.432111   348.9514  37.595824)"/>
  <circle r="0.5"
          stroke="none" fill="#000000" fill-rule="nonzero"
          transform="matrix( 12.434478 -0.21704462 -0.21704462 -12.434478  352.68103   37.49816)"/>
  <circle r="0.5"
          stroke="none" fill="#ff0400" fill-rule="nonzero"
          transform="matrix( 4.4567972 -11.610354 -11.610354 -4.4567972  66.546328  252.44164)"/>
  <circle r="0.5"
          stroke="none" fill="#ff0400" fill-rule="nonzero"
          transform="matrix( 4.5579457 -11.571019 -11.571019 -4.5579457  67.883367  248.95854)"/>
  <circle r="0.5"
          stroke="none" fill="#ff0400" fill-rule="nonzero"
          transform="matrix( 4.6587471 -11.530804 -11.530804 -4.6587471  69.250751  245.48723)"/>
  <circle r="0.5"
          stroke="none" fill="#ff0400" fill-rule="nonzero"
          transform="matrix( 4.7591936  -11.48971  -11.48971 -4.7591936  70.648375  242.02799)"/>
  <circle r="0.5"
          stroke="none" fill="#ff0400" fill-rule="nonzero"
          transform="matrix( 4.8592778 -11.447741 -11.447741 -4.8592778  72.076133  238.58108)"/>
  <circle r="0.5"
          stroke="none" fill="#ff0400" fill-rule="nonzero"
          transform="matrix( 4.9589919 -11.404901 -11.404901 -4.9589919  73.533916  235.14675)"/>
  <circle r="0.5"
          stroke="none" fill="#ff0400" fill-rule="nonzero"
          transform="matrix( 5.0583283 -11.361191 -11.361191 -5.0583283  75.021614  231.72528)"/>
  <circle r="0.5"
          stroke="none" fill="#ff0400" fill-rule="nonzero"
          transform="matrix( 5.1572796 -11.316617 -11.316617 -5.1572796  76.539112  228.31693)"/>
  <circle r="0.5"
          stroke="none" fill="#ff0400" fill-rule="nonzero"
          transform="matrix( 5.2558381 -11.271181 -11.271181 -5.2558381  78.086296  224.92194)"/>
  <circle r="0.5"
          stroke="none" fill="#ff0400" fill-rule="nonzero"
          transform="matrix( 5.3539963 -11.224887 -11.224887 -5.3539963  79.663048  221.54059)"/>
  <circle r="0.5"
          stroke="none" fill="#ff0400" fill-rule="nonzero"
          transform="matrix( 5.4517468 -11.177737 -11.177737 -5.4517468  81.269247  218.17312)"/>
  <circle r="0.5"
          stroke="none" fill="#ff0400" fill-rule="nonzero"
          transform="matrix( 8.3215574 -9.2420257 -9.2420257 -8.3215574  121.03561  152.13558)"/>
  <circle r="0.5"
          stroke="none" fill="#ff0400" fill-rule="nonzero"
          transform="matrix( 8.4018914 -9.1690555 -9.1690555 -8.4018914  123.53207  149.36297)"/>
  <circle r="0.5"
          stroke="none" fill="#ff0400" fill-rule="nonzero"
          transform="matrix( 8.4815855 -9.0953869 -9.0953869 -8.4815855  126.05264  146.61225)"/>
  <circle r="0.5"
          stroke="none" fill="#ff0400" fill-rule="nonzero"
          transform="matrix( 8.5606338 -9.0210257 -9.0210257 -8.5606338  128.59712  143.88364)"/>
  <circle r="0.5"
          stroke="none" fill="#ff0400" fill-rule="nonzero"
          transform="matrix( 8.6390301 -8.9459776 -8.9459776 -8.6390301  131.16531  141.17733)"/>
  <circle r="0.5"
          stroke="none" fill="#ff0400" fill-rule="nonzero"
          transform="matrix( 8.7167686 -8.8702481 -8.8702481 -8.7167686  133.75702  138.49354)"/>
  <circle r="0.5"
          stroke="none" fill="#ff0400" fill-rule="nonzero"
          transform="matrix( 8.7938432 -8.7938432 -8.7938432 -8.7938432  136.37205  135.83246)"/>
  <circle r="0.5"
          stroke="none" fill="#ff0400" fill-rule="nonzero"
          transform="matrix( 8.8702481 -8.7167686 -8.7167686 -8.8702481   139.0102  133.19431)"/>
  <circle r="0.5"
          stroke="none" fill="#ff0400" fill-rule="nonzero"
          transform="matrix( 8.9459776 -8.6390301 -8.6390301 -8.9459776  141.67127  130.57928)"/>
  <circle r="0.5"
          stroke="none" fill="#ff0400" fill-rule="nonzero"
          transform="matrix( 9.0210257 -8.5606338 -8.5606338 -9.0210257  144.35507  127.98757)"/>
  <circle r="0.5"
          stroke="none" fill="#ff0400" fill-rule="nonzero"
          transform="matrix( 9.0953869 -8.4815855 -8.4815855 -9.0953869  147.06138  125.41938)"/>
  <circle r="0.5"
          stroke="none" fill="#ff0400" fill-rule="nonzero"
          transform="matrix( 11.080889 -5.6459949  -11.29199 -22.161778  260.43366  44.248594)"/>
  <circle r="0.5"
          stroke="none" fill="#ff0400" fill-rule="nonzero"
          transform="matrix( 5.6459949 -11.080889 -22.161778  -11.29199   263.1511  41.531147)"/>
  <circle r="0.5"
          stroke="none" fill="#ff0400" fill-rule="nonzero"
          transform="matrix(-1.9454773  -12.28326  -24.56652  3.8909545  263.75229  37.735411)"/>
  <circle r="0.5"
          stroke="none" fill="#ff0400" fill-rule="nonzero"
          transform="matrix(-8.7938432 -8.7938432 -17.587686  17.587686  262.00758  34.311228)"/>
  <circle r="0.5"
          stroke="none" fill="#ff0400" fill-rule="nonzero"
          transform="matrix( -12.28326 -1.9454773 -3.8909545   24.56652   258.5834   32.56652)"/>
  <circle r="0.5"
          stroke="none" fill="#ff0400" fill-rule="nonzero"
          transform="matrix(-11.080889  5.6459949   11.29199  22.161778  254.78766  33.167705)"/>
  <circle r="0.5"
          stroke="none" fill="#ff0400" fill-rule="nonzero"
          transform="matrix(-5.6459949  11.080889  22.161778   11.29199  252.07022  35.885152)"/>
  <circle r="0.5"
          stroke="none" fill="#ff0400" fill-rule="nonzero"
          transform="matrix( 1.9454773   12.28326   24.56652 -3.8909545  251.46903  39.680888)"/>
  <circle r="0.5"
          stroke="none" fill="#ff0400" fill-rule="nonzero"
          transform="matrix( 8.7938432  8.7938432  17.587686 -17.587686  253.21374  43.105071)"/>
  <circle r="0.5"
          stroke="none" fill="#ff0400" fill-rule="nonzero"
          transform="matrix(  12.28326  1.9454773  3.8909545  -24.56652  256.63792   44.84978)"/>
  <circle r="0.5"
          stroke="none" fill="#000000" fill-rule="nonzero"
          transform="matrix(7.6150818e-16 -12.436372 -24.872745 -1.5230164e-15  45.404495  303.43077)"/>
  <circle r="0.5"
          stroke="none" fill="#000000" fill-rule="nonzero"
          transform="matrix(-7.3099162 -10.061237 -20.122473  14.619832  44.216927  299.77581)"/>
  <circle r="0.5"
          stroke="none" fill="#000000" fill-rule="nonzero"
          transform="matrix(-11.827693 -3.8430504 -7.6861008  23.655386  41.107834  297.51692)"/>
  <circle r="0.5"
          stroke="none" fill="#000000" fill-rule="nonzero"
          transform="matrix(-11.827693  3.8430504  7.6861008  23.655386  37.264784  297.51692)"/>
  <circle r="0.5"
          stroke="none" fill="#000000" fill-rule="nonzero"
          transform="matrix(-7.3099162  10.061237  20.122473  14.619832  34.155691  299.77581)"/>
  <circle r="0.5"
          stroke="none" fill="#000000" fill-rule="nonzero"
          transform="matrix(         0  12.436372  24.872745          0  32.968123  303.43077)"/>
  <circle r="0.5"
          stroke="none" fill="#000000" fill-rule="nonzero"
          transform="matrix( 7.3099162  10.061237  20.122473 -14.619832  34.155691  307.08573)"/>
  <circle r="0.5"
          stroke="none" fill="#000000" fill-rule="nonzero"
          transform="matrix( 11.827693  3.8430504  7.6861008 -23.655386  37.264784  309.34461)"/>
  <circle r="0.5"
          stroke="none" fill="#000000" fill-rule="nonzero"
          transform="matrix( 11.827693 -3.8430504 -7.6861008 -23.655386  41.107834  309.34461)"/>
  <circle r="0.5"
          stroke="none" fill="#000000" fill-rule="nonzero"
          transform="matrix( 7.3099162 -10.061237 -20.122473 -14.619832  44.216927  307.08573)"/>
  <circle r="0.5"
          stroke="none" fill="#4000ff" fill-rule="nonzero"
          transform="matrix( 12.012613    3.21877    6.43754 -24.025226  491.24692  53.037374)"/>
  <circle r="0.5"
          stroke="none" fill="#4000ff" fill-rule="nonzero"
          transform="matrix( 11.610354 -4.4567972 -8.9135945 -23.220708   495.0847  52.836244)"/>
  <circle r="0.5"
          stroke="none" fill="#4000ff" fill-rule="nonzero"
          transform="matrix( 6.7733338 -10.430019 -20.860039 -13.546668  498.07131  50.417734)"/>
  <circle r="0.5"
          stroke="none" fill="#4000ff" fill-rule="nonzero"
          transform="matrix(-0.65086944 -12.419329 -24.838657  1.3017389  499.06596  46.705632)"/>
  <circle r="0.5"
          stroke="none" fill="#4000ff" fill-rule="nonzero"
          transform="matrix(-7.8264627 -9.6648765 -19.329753  15.652925  497.68874  43.117836)"/>
  <circle r="0.5"
          stroke="none" fill="#4000ff" fill-rule="nonzero"
          transform="matrix(-12.012613   -3.21877   -6.43754  24.025226  494.46569  41.024761)"/>
  <circle r="0.5"
          stroke="none" fill="#4000ff" fill-rule="nonzero"
          transform="matrix(-11.610354  4.4567972  8.9135945  23.220708   490.6279   41.22589)"/>
  <circle r="0.5"
          stroke="none" fill="#4000ff" fill-rule="nonzero"
          transform="matrix(-6.7733338  10.430019  20.860039  13.546668  487.64129    43.6444)"/>
  <circle r="0.5"
          stroke="none" fill="#4000ff" fill-rule="nonzero"
          transform="matrix(0.65086944  12.419329  24.838657 -1.3017389  486.64664  47.356502)"/>
  <circle r="0.5"
          stroke="none" fill="#4000ff" fill-rule="nonzero"
          transform="matrix( 7.8264627  9.6648765  19.329753 -15.652925  488.02386  50.944299)"/>
</svg>
