<?xml version="1.0" standalone="no"?>
<!DOCTYPE svg PUBLIC "-//W3C//DTD SVG 1.1//EN" 
"http://www.w3.org/Graphics/SVG/1.1/DTD/svg11.dtd">
<svg width="532px" height="327px" version="1.1"
     xmlns="http://www.w3.org/2000/svg"  xmlns:xlink="http://www.w3.org/1999/xlink">
  <defs>
    <polygon id="TRIANGLE" points="0,0.57735 -0.5,-0.288675 0.5,-0.288675"/>
  </defs>
  <circle r="0.5"
          stroke="none" fill="#4000ff" fill-rule="nonzero"
          transform="matrix(6.0788047e-16 -9.9274414 -9.9274414 -6.0788047e-16  17.927441  308.39486)"/>
  <circle r="0.5"
          stroke="none" fill="#4000ff" fill-rule="nonzero"
          transform="matrix(0.08663217 -9.9270634 -9.9270634 -0.08663217  17.927441  305.41663)"/>
  <circle r="0.5"
          stroke="none" fill="#4000ff" fill-rule="nonzero"
          transform="matrix(0.17325774 -9.9259294 -9.9259294 -0.17325774  17.953431  302.43851)"/>
  <circle r="0.5"
          stroke="none" fill="#4000ff" fill-rule="nonzero"
          transform="matrix(0.25987012 -9.9240395 -9.9240395 -0.25987012  18.005408  299.46073)"/>
  <circle r="0.5"
          stroke="none" fill="#4000ff" fill-rule="nonzero"
          transform="matrix(0.34646271 -9.9213939 -9.9213939 -0.34646271  18.083369  296.48352)"/>
  <circle r="0.5"
          stroke="none" fill="#4000ff" fill-rule="nonzero"
          transform="matrix(0.43302891 -9.9179927 -9.9179927 -0.43302891  18.187308   293.5071)"/>
  <circle r="0.5"
          stroke="none" fill="#4000ff" fill-rule="nonzero"
          transform="matrix(0.51956214 -9.9138362 -9.9138362 -0.51956214  18.317217   290.5317)"/>
  <circle r="0.5"
          stroke="none" fill="#4000ff" fill-rule="nonzero"
          transform="matrix( 0.6060558 -9.9089248 -9.9089248 -0.6060558  18.473086  287.55755)"/>
  <circle r="0.5"
          stroke="none" fill="#4000ff" fill-rule="nonzero"
          transform="matrix(0.69250331 -9.9032587 -9.9032587 -0.69250331  18.654902  284.58487)"/>
  <circle r="0.5"
          stroke="none" fill="#4000ff" fill-rule="nonzero"
          transform="matrix(0.77889808 -9.8968384 -9.8968384 -0.77889808  18.862653   281.6139)"/>
  <circle r="0.5"
          stroke="none" fill="#4000ff" fill-rule="nonzero"
          transform="matrix(0.86523353 -9.8896645 -9.8896645 -0.86523353  19.096323  278.64484)"/>
  <circle r="0.5"
          stroke="none" fill="#000000" fill-rule="nonzero"
          transform="matrix( 3.5576768  -9.268065  -9.268065 -3.5576768  29.840371  218.05514)"/>
  <circle r="0.5"
          stroke="none" fill="#000000" fill-rule="nonzero"
          transform="matrix( 3.6384195 -9.2366659 -9.2366659 -3.6384195  30.907674  215.27472)"/>
  <circle r="0.5"
          stroke="none" fill="#000000" fill-rule="nonzero"
          transform="matrix(  3.718885 -9.2045634 -9.2045634  -3.718885    31.9992  212.50372)"/>
  <circle r="0.5"
          stroke="none" fill="#000000" fill-rule="nonzero"
          transform="matrix( 3.7990674   -9.17176   -9.17176 -3.7990674  33.114866  209.74236)"/>
  <circle r="0.5"
          stroke="none" fill="#000000" fill-rule="nonzero"
          transform="matrix( 3.8789604  -9.138258  -9.138258 -3.8789604  34.254586  206.99083)"/>
  <circle r="0.5"
          stroke="none" fill="#000000" fill-rule="nonzero"
          transform="matrix(  3.958558 -9.1040602 -9.1040602  -3.958558  35.418274  204.24935)"/>
  <circle r="0.5"
          stroke="none" fill="#000000" fill-rule="nonzero"
          transform="matrix( 4.0378542  -9.069169  -9.069169 -4.0378542  36.605841  201.51813)"/>
  <circle r="0.5"
          stroke="none" fill="#000000" fill-rule="nonzero"
          transform="matrix( 4.1168429 -9.0335872 -9.0335872 -4.1168429  37.817198  198.79738)"/>
  <circle r="0.5"
          stroke="none" fill="#000000" fill-rule="nonzero"
          transform="matrix(  4.195518 -8.9973175 -8.9973175  -4.195518   39.05225   196.0873)"/>
  <circle r="0.5"
          stroke="none" fill="#000000" fill-rule="nonzero"
          transform="matrix( 4.2738737 -8.9603625 -8.9603625 -4.2738737  40.310906  193.38811)"/>
  <circle r="0.5"
          stroke="none" fill="#000000" fill-rule="nonzero"
          transform="matrix( 4.3519039 -8.9227253 -8.9227253 -4.3519039  41.593068      190.7)"/>
  <circle r="0.5"
          stroke="none" fill="#4000ff" fill-rule="nonzero"
          transform="matrix( 2.0640311   9.710503   9.710503 -2.0640311  509.10452  230.70677)"/>
  <circle r="0.5"
          stroke="none" fill="#4000ff" fill-rule="nonzero"
          transform="matrix( 1.9792135  9.7281451  9.7281451 -1.9792135  509.72373  233.61992)"/>
  <circle r="0.5"
          stroke="none" fill="#4000ff" fill-rule="nonzero"
          transform="matrix( 1.8942451  9.7450464  9.7450464 -1.8942451  510.31749  236.53836)"/>
  <circle r="0.5"
          stroke="none" fill="#4000ff" fill-rule="nonzero"
          transform="matrix( 1.8091325  9.7612055  9.7612055 -1.8091325  510.88577  239.46188)"/>
  <circle r="0.5"
          stroke="none" fill="#4000ff" fill-rule="nonzero"
          transform="matrix( 1.7238821  9.7766213  9.7766213 -1.7238821  511.42851  242.39024)"/>
  <circle r="0.5"
          stroke="none" fill="#4000ff" fill-rule="nonzero"
          transform="matrix( 1.6385004  9.7912925  9.7912925 -1.6385004  511.94567  245.32323)"/>
  <circle r="0.5"
          stroke="none" fill="#4000ff" fill-rule="nonzero"
          transform="matrix(  1.552994  9.8052182  9.8052182  -1.552994  512.43722  248.26061)"/>
  <circle r="0.5"
          stroke="none" fill="#4000ff" fill-rule="nonzero"
          transform="matrix( 1.4673693  9.8183971  9.8183971 -1.4673693  512.90312  251.20218)"/>
  <circle r="0.5"
          stroke="none" fill="#4000ff" fill-rule="nonzero"
          transform="matrix( 1.3816328  9.8308283  9.8308283 -1.3816328  513.34333   254.1477)"/>
  <circle r="0.5"
          stroke="none" fill="#4000ff" fill-rule="nonzero"
          transform="matrix( 1.2957911  9.8425108  9.8425108 -1.2957911  513.75782  257.09695)"/>
  <circle r="0.5"
          stroke="none" fill="#4000ff" fill-rule="nonzero"
          transform="matrix( 1.2098508  9.8534438  9.8534438 -1.2098508  514.14656   260.0497)"/>
  <circle r="0.5"
          stroke="none" fill="#000000" fill-rule="nonzero"
          transform="matrix( 5.4068721  8.3258529  8.3258529 -5.4068721  469.89301  148.45326)"/>
  <circle r="0.5"
          stroke="none" fill="#000000" fill-rule="nonzero"
          transform="matrix( 5.3340104  8.3727192  8.3727192 -5.3340104  471.51507  150.95102)"/>
  <circle r="0.5"
          stroke="none" fill="#000000" fill-rule="nonzero"
          transform="matrix( 5.2607425  8.4189478  8.4189478 -5.2607425  473.11527  153.46283)"/>
  <circle r="0.5"
          stroke="none" fill="#000000" fill-rule="nonzero"
          transform="matrix( 5.1870739  8.4645353  8.4645353 -5.1870739  474.69349  155.98852)"/>
  <circle r="0.5"
          stroke="none" fill="#000000" fill-rule="nonzero"
          transform="matrix( 5.1130103  8.5094782  8.5094782 -5.1130103  476.24962  158.52788)"/>
  <circle r="0.5"
          stroke="none" fill="#000000" fill-rule="nonzero"
          transform="matrix( 5.0385574   8.553773   8.553773 -5.0385574  477.78352  161.08072)"/>
  <circle r="0.5"
          stroke="none" fill="#000000" fill-rule="nonzero"
          transform="matrix( 4.9637207  8.5974165  8.5974165 -4.9637207  479.29509  163.64685)"/>
  <circle r="0.5"
          stroke="none" fill="#000000" fill-rule="nonzero"
          transform="matrix( 4.8885061  8.6404052  8.6404052 -4.8885061   480.7842  166.22608)"/>
  <circle r="0.5"
          stroke="none" fill="#000000" fill-rule="nonzero"
          transform="matrix( 4.8129191  8.6827359  8.6827359 -4.8129191  482.25075   168.8182)"/>
  <circle r="0.5"
          stroke="none" fill="#000000" fill-rule="nonzero"
          transform="matrix( 4.7369656  8.7244054  8.7244054 -4.7369656  483.69463  171.42302)"/>
  <circle r="0.5"
          stroke="none" fill="#000000" fill-rule="nonzero"
          transform="matrix( 4.6606514  8.7654105  8.7654105 -4.6606514  485.11572  174.04034)"/>
  <circle r="0.5"
          stroke="none" fill="#000000" fill-rule="nonzero"
          transform="matrix( 9.8730579 -1.0377002 -2.0754004 -19.746116  277.38708  38.296872)"/>
  <circle r="0.5"
          stroke="none" fill="#000000" fill-rule="nonzero"
          transform="matrix( 7.3775267 -6.6427549  -13.28551 -14.755053  280.18961  37.049106)"/>
  <circle r="0.5"
          stroke="none" fill="#000000" fill-rule="nonzero"
          transform="matrix( 2.0640311  -9.710503 -19.421006 -4.1280623  281.72348  34.392358)"/>
  <circle r="0.5"
          stroke="none" fill="#000000" fill-rule="nonzero"
          transform="matrix(-4.0378542  -9.069169 -18.138338  8.0757084  281.40282  31.341416)"/>
  <circle r="0.5"
          stroke="none" fill="#000000" fill-rule="nonzero"
          transform="matrix(-8.5974165 -4.9637207 -9.9274414  17.194833  279.35009  29.061634)"/>
  <circle r="0.5"
          stroke="none" fill="#000000" fill-rule="nonzero"
          transform="matrix(-9.8730579  1.0377002  2.0754004  19.746116  276.34938  28.423814)"/>
  <circle r="0.5"
          stroke="none" fill="#000000" fill-rule="nonzero"
          transform="matrix(-7.3775267  6.6427549   13.28551  14.755053  273.54686  29.671579)"/>
  <circle r="0.5"
          stroke="none" fill="#000000" fill-rule="nonzero"
          transform="matrix(-2.0640311   9.710503  19.421006  4.1280623  272.01298  32.328327)"/>
  <circle r="0.5"
          stroke="none" fill="#000000" fill-rule="nonzero"
          transform="matrix( 4.0378542   9.069169  18.138338 -8.0757084  272.33365   35.37927)"/>
  <circle r="0.5"
          stroke="none" fill="#000000" fill-rule="nonzero"
          transform="matrix( 8.5974165  4.9637207  9.9274414 -17.194833  274.38637  37.659051)"/>
  <circle r="0.5"
          stroke="none" fill="#000000" fill-rule="nonzero"
          transform="matrix( 8.8454151 -4.5069641 -9.0139282  -17.69083   184.6126  51.863249)"/>
  <circle r="0.5"
          stroke="none" fill="#000000" fill-rule="nonzero"
          transform="matrix( 4.5069641 -8.8454151  -17.69083 -9.0139282  186.78183  49.694023)"/>
  <circle r="0.5"
          stroke="none" fill="#000000" fill-rule="nonzero"
          transform="matrix( -1.552994 -9.8052182 -19.610436   3.105988  187.26173  46.664044)"/>
  <circle r="0.5"
          stroke="none" fill="#000000" fill-rule="nonzero"
          transform="matrix(-7.0197612 -7.0197612 -14.039522  14.039522    185.869  43.930661)"/>
  <circle r="0.5"
          stroke="none" fill="#000000" fill-rule="nonzero"
          transform="matrix(-9.8052182  -1.552994  -3.105988  19.610436  183.13562  42.537932)"/>
  <circle r="0.5"
          stroke="none" fill="#000000" fill-rule="nonzero"
          transform="matrix(-8.8454151  4.5069641  9.0139282   17.69083  180.10564  43.017834)"/>
  <circle r="0.5"
          stroke="none" fill="#000000" fill-rule="nonzero"
          transform="matrix(-4.5069641  8.8454151   17.69083  9.0139282  177.93641  45.187059)"/>
  <circle r="0.5"
          stroke="none" fill="#000000" fill-rule="nonzero"
          transform="matrix(  1.552994  9.8052182  19.610436  -3.105988  177.45651  48.217038)"/>
  <circle r="0.5"
          stroke="none" fill="#000000" fill-rule="nonzero"
          transform="matrix( 7.0197612  7.0197612  14.039522 -14.039522  178.84924  50.950422)"/>
  <circle r="0.5"
          stroke="none" fill="#000000" fill-rule="nonzero"
          transform="matrix( 9.8052182   1.552994   3.105988 -19.610436  181.58262   52.34315)"/>
  <circle r="0.5"
          stroke="none" fill="#ff0400" fill-rule="nonzero"
          transform="matrix( 8.0314688  5.8352037  11.670407 -16.062938  446.88383  110.87543)"/>
  <circle r="0.5"
          stroke="none" fill="#ff0400" fill-rule="nonzero"
          transform="matrix( 9.9274414          0          0 -19.854883  449.80143  111.82342)"/>
  <circle r="0.5"
          stroke="none" fill="#ff0400" fill-rule="nonzero"
          transform="matrix( 8.0314688 -5.8352037 -11.670407 -16.062938  452.71903  110.87543)"/>
  <circle r="0.5"
          stroke="none" fill="#ff0400" fill-rule="nonzero"
          transform="matrix( 3.0677481 -9.4415579 -18.883116 -6.1354962  454.52221  108.39357)"/>
  <circle r="0.5"
          stroke="none" fill="#ff0400" fill-rule="nonzero"
          transform="matrix(-3.0677481 -9.4415579 -18.883116  6.1354962  454.52221  105.32582)"/>
  <circle r="0.5"
          stroke="none" fill="#ff0400" fill-rule="nonzero"
          transform="matrix(-8.0314688 -5.8352037 -11.670407  16.062938  452.71903  102.84396)"/>
  <circle r="0.5"
          stroke="none" fill="#ff0400" fill-rule="nonzero"
          transform="matrix(-9.9274414         -0          0  19.854883  449.80143  101.89597)"/>
  <circle r="0.5"
          stroke="none" fill="#ff0400" fill-rule="nonzero"
          transform="matrix(-8.0314688  5.8352037  11.670407  16.062938  446.88383  102.84396)"/>
  <circle r="0.5"
          stroke="none" fill="#ff0400" fill-rule="nonzero"
          transform="matrix(-3.0677481  9.4415579  18.883116  6.1354962  445.08065  105.32582)"/>
  <circle r="0.5"
          stroke="none" fill="#ff0400" fill-rule="nonzero"
          transform="matrix( 3.0677481  9.4415579  18.883116 -6.1354962  445.08065  108.39357)"/>
  <circle r="0.5"
          stroke="none" fill="#ff0400" fill-rule="nonzero"
          transform="matrix( 9.5891721  2.5694109  5.1388218 -19.178344  368.86128  58.878968)"/>
  <circle r="0.5"
          stroke="none" fill="#ff0400" fill-rule="nonzero"
          transform="matrix(  9.268065 -3.5576768 -7.1153537  -18.53613  371.92482  58.718414)"/>
  <circle r="0.5"
          stroke="none" fill="#ff0400" fill-rule="nonzero"
          transform="matrix( 5.4068721 -8.3258529 -16.651706 -10.813744  374.30891  56.787818)"/>
  <circle r="0.5"
          stroke="none" fill="#ff0400" fill-rule="nonzero"
          transform="matrix(-0.51956214 -9.9138362 -19.827672  1.0391243   375.1029  53.824601)"/>
  <circle r="0.5"
          stroke="none" fill="#ff0400" fill-rule="nonzero"
          transform="matrix(-6.2475413  -7.715071 -15.430142  12.495083  374.00352  50.960611)"/>
  <circle r="0.5"
          stroke="none" fill="#ff0400" fill-rule="nonzero"
          transform="matrix(-9.5891721 -2.5694109 -5.1388218  19.178344  371.43069  49.289796)"/>
  <circle r="0.5"
          stroke="none" fill="#ff0400" fill-rule="nonzero"
          transform="matrix( -9.268065  3.5576768  7.1153537   18.53613  368.36714  49.450349)"/>
  <circle r="0.5"
          stroke="none" fill="#ff0400" fill-rule="nonzero"
          transform="matrix(-5.4068721  8.3258529  16.651706  10.813744  365.98306  51.380946)"/>
  <circle r="0.5"
          stroke="none" fill="#ff0400" fill-rule="nonzero"
          transform="matrix(0.51956214  9.9138362  19.827672 -1.0391243  365.18906  54.344163)"/>
  <circle r="0.5"
          stroke="none" fill="#ff0400" fill-rule="nonzero"
          transform="matrix( 6.2475413   7.715071  15.430142 -12.495083  366.28845  57.208152)"/>
  <circle r="0.5"
          stroke="none" fill="#000000" fill-rule="nonzero"
          transform="matrix( 6.6427549 -7.3775267 -14.755053  -13.28551  102.86192  97.775953)"/>
  <circle r="0.5"
          stroke="none" fill="#000000" fill-rule="nonzero"
          transform="matrix( 1.0377002 -9.8730579 -19.746116 -2.0754004  104.10969  94.973426)"/>
  <circle r="0.5"
          stroke="none" fill="#000000" fill-rule="nonzero"
          transform="matrix(-4.9637207 -8.5974165 -17.194833  9.9274414  103.47186  91.972715)"/>
  <circle r="0.5"
          stroke="none" fill="#000000" fill-rule="nonzero"
          transform="matrix( -9.069169 -4.0378542 -8.0757084  18.138338  101.19208  89.919991)"/>
  <circle r="0.5"
          stroke="none" fill="#000000" fill-rule="nonzero"
          transform="matrix( -9.710503  2.0640311  4.1280623  19.421006  98.141141  89.599324)"/>
  <circle r="0.5"
          stroke="none" fill="#000000" fill-rule="nonzero"
          transform="matrix(-6.6427549  7.3775267  14.755053   13.28551  95.484393  91.133198)"/>
  <circle r="0.5"
          stroke="none" fill="#000000" fill-rule="nonzero"
          transform="matrix(-1.0377002  9.8730579  19.746116  2.0754004  94.236627  93.935725)"/>
  <circle r="0.5"
          stroke="none" fill="#000000" fill-rule="nonzero"
          transform="matrix( 4.9637207  8.5974165  17.194833 -9.9274414  94.874448  96.936436)"/>
  <circle r="0.5"
          stroke="none" fill="#000000" fill-rule="nonzero"
          transform="matrix(  9.069169  4.0378542  8.0757084 -18.138338  97.154229   98.98916)"/>
  <circle r="0.5"
          stroke="none" fill="#000000" fill-rule="nonzero"
          transform="matrix(  9.710503 -2.0640311 -4.1280623 -19.421006  100.20517  99.309827)"/>
</svg>
