<?xml version="1.0" standalone="no"?>
<!DOCTYPE svg PUBLIC "-//W3C//DTD SVG 1.1//EN" 
"http://www.w3.org/Graphics/SVG/1.1/DTD/svg11.dtd">
<svg width="532px" height="329px" version="1.1"
     xmlns="http://www.w3.org/2000/svg"  xmlns:xlink="http://www.w3.org/1999/xlink">
  <defs>
    <polygon id="TRIANGLE" points="0,0.57735 -0.5,-0.288675 0.5,-0.288675"/>
  </defs>
  <circle r="0.5"
          stroke="none" fill="#ff0400" fill-rule="nonzero"
          transform="matrix(0.51460705 -3.9088286 -3.9088286 -0.51460705  25.666952  285.80483)"/>
  <circle r="0.5"
          stroke="none" fill="#ff0400" fill-rule="nonzero"
          transform="matrix(  1.020409 -3.8082183 -3.8082183  -1.020409   35.04047  250.85202)"/>
  <circle r="0.5"
          stroke="none" fill="#ff0400" fill-rule="nonzero"
          transform="matrix( 2.4000771 -3.1278414 -3.1278414 -2.4000771  89.032495  157.38085)"/>
  <circle r="0.5"
          stroke="none" fill="#4000ff" fill-rule="nonzero"
          transform="matrix( 2.7878093 -2.7878093 -2.7878093 -2.7878093  114.62661  131.79758)"/>
  <circle r="0.5"
          stroke="none" fill="#ff0400" fill-rule="nonzero"
          transform="matrix( 3.6424484 -1.5087515  1.5087515  3.6424484  226.59176  91.531175)"/>
  <circle r="0.5"
          stroke="none" fill="#000000" fill-rule="nonzero"
          transform="matrix( 3.6424484 -1.5087515 -1.5087515 -3.6424484  276.27619  23.164702)"/>
  <circle r="0.5"
          stroke="none" fill="#ff0400" fill-rule="nonzero"
          transform="matrix( 3.8082183  -1.020409  -1.020409 -3.8082183    314.172  14.442179)"/>
  <circle r="0.5"
          stroke="none" fill="#ff0400" fill-rule="nonzero"
          transform="matrix( 3.9088286 -0.51460705 -0.51460705 -3.9088286  343.72866  31.828638)"/>
  <circle r="0.5"
          stroke="none" fill="#000000" fill-rule="nonzero"
          transform="matrix( 3.9425577          0          0 -3.9425577  391.74421  12.123519)"/>
  <circle r="0.5"
          stroke="none" fill="#ff0400" fill-rule="nonzero"
          transform="matrix( 3.8082183   1.020409   1.020409 -3.8082183  467.27332  29.961031)"/>
  <circle r="0.5"
          stroke="none" fill="#000000" fill-rule="nonzero"
          transform="matrix( 3.8082183   1.020409   1.020409 -3.8082183   519.1337  69.155181)"/>
  <circle r="0.5"
          stroke="none" fill="#ff0400" fill-rule="nonzero"
          transform="matrix( 3.9088286 0.51460705 0.51460705 -3.9088286  430.09333  18.567055)"/>
  <rect x="-0.5" y="-0.5" width="1" height="1" 
        stroke="none" fill="#000000" fill-rule="nonzero"
        transform="matrix(-11.950243  6.8994761  6.8994761  11.950243  26.849719  301.96932)"/>
  <rect x="-0.5" y="-0.5" width="1" height="1" 
        stroke="none" fill="#ff0400" fill-rule="nonzero"
        transform="matrix(  -13.6809  1.8011247  1.8011247    13.6809  61.903485  201.47261)"/>
  <rect x="-0.5" y="-0.5" width="1" height="1" 
        stroke="none" fill="#ff0400" fill-rule="nonzero"
        transform="matrix(-13.798952 -3.5016947e-15 -3.5016947e-15  13.798952  81.974559  171.97109)"/>
  <rect x="-0.5" y="-0.5" width="1" height="1" 
        stroke="none" fill="#4000ff" fill-rule="nonzero"
        transform="matrix(-12.748569 -5.2806304 -5.2806304  12.748569  162.58037  102.46527)"/>
  <rect x="-0.5" y="-0.5" width="1" height="1" 
        stroke="none" fill="#4000ff" fill-rule="nonzero"
        transform="matrix(-11.950243 -6.8994761 -6.8994761  11.950243  194.71319  86.951737)"/>
  <rect x="-0.5" y="-0.5" width="1" height="1" 
        stroke="none" fill="#4000ff" fill-rule="nonzero"
        transform="matrix(-11.950243 -6.8994761 -6.8994761  11.950243  259.48513  55.009749)"/>
  <rect x="-0.5" y="-0.5" width="1" height="1" 
        stroke="none" fill="#000000" fill-rule="nonzero"
        transform="matrix(-10.947445  8.4002698 -8.4002698 -10.947445  504.65229  61.876565)"/>
</svg>
