<?xml version="1.0" standalone="no"?>
<!DOCTYPE svg PUBLIC "-//W3C//DTD SVG 1.1//EN" 
"http://www.w3.org/Graphics/SVG/1.1/DTD/svg11.dtd">
<svg width="550px" height="261px" version="1.1"
     xmlns="http://www.w3.org/2000/svg"  xmlns:xlink="http://www.w3.org/1999/xlink">
  <defs>
    <polygon id="TRIANGLE" points="0,0.57735 -0.5,-0.288675 0.5,-0.288675"/>
  </defs>
  <circle r="0.5"
          stroke="none" fill="#bcae96" fill-rule="nonzero"
          transform="matrix(4.377198e-16 -7.1485068  7.1485068 4.377198e-16  534.85149  231.39028)"/>
  <circle r="0.5"
          stroke="none" fill="#bcae96" fill-rule="nonzero"
          transform="matrix(-0.062381699 -7.1482346  7.1482346 -0.062381699  534.85149  229.24573)"/>
  <circle r="0.5"
          stroke="none" fill="#bcae96" fill-rule="nonzero"
          transform="matrix(-0.12475865 -7.1474181  7.1474181 -0.12475865  534.83278  227.10126)"/>
  <circle r="0.5"
          stroke="none" fill="#bcae96" fill-rule="nonzero"
          transform="matrix(-0.18712609 -7.1460572  7.1460572 -0.18712609  534.79535  224.95703)"/>
  <circle r="0.5"
          stroke="none" fill="#bcae96" fill-rule="nonzero"
          transform="matrix(-0.24947929 -7.1441522  7.1441522 -0.24947929  534.73921  222.81322)"/>
  <circle r="0.5"
          stroke="none" fill="#bcae96" fill-rule="nonzero"
          transform="matrix(-0.31181349  -7.141703   7.141703 -0.31181349  534.66437  220.66997)"/>
  <circle r="0.5"
          stroke="none" fill="#bcae96" fill-rule="nonzero"
          transform="matrix(-0.37412394 -7.1387101  7.1387101 -0.37412394  534.57083  218.52746)"/>
  <circle r="0.5"
          stroke="none" fill="#bcae96" fill-rule="nonzero"
          transform="matrix(-0.4364059 -7.1351734  7.1351734 -0.4364059  534.45859  216.38585)"/>
  <circle r="0.5"
          stroke="none" fill="#bcae96" fill-rule="nonzero"
          transform="matrix(-0.49865463 -7.1310934  7.1310934 -0.49865463  534.32767  214.24529)"/>
  <circle r="0.5"
          stroke="none" fill="#bcae96" fill-rule="nonzero"
          transform="matrix(-0.56086538 -7.1264704  7.1264704 -0.56086538  534.17807  212.10597)"/>
  <circle r="0.5"
          stroke="none" fill="#bcae96" fill-rule="nonzero"
          transform="matrix(-0.62303342 -7.1213046  7.1213046 -0.62303342  534.00981  209.96802)"/>
  <circle r="0.5"
          stroke="none" fill="#bcae96" fill-rule="nonzero"
          transform="matrix(-0.68515402 -7.1155965  7.1155965 -0.68515402   533.8229  207.83163)"/>
  <circle r="0.5"
          stroke="none" fill="#bcae96" fill-rule="nonzero"
          transform="matrix(-0.74722243 -7.1093466  7.1093466 -0.74722243  533.61735  205.69695)"/>
  <circle r="0.5"
          stroke="none" fill="#bcae96" fill-rule="nonzero"
          transform="matrix(-0.80923395 -7.1025552  7.1025552 -0.80923395  533.39319  203.56415)"/>
  <circle r="0.5"
          stroke="none" fill="#bcae96" fill-rule="nonzero"
          transform="matrix(-0.87118383 -7.0952229  7.0952229 -0.87118383  533.15042  201.43338)"/>
  <circle r="0.5"
          stroke="none" fill="#bcae96" fill-rule="nonzero"
          transform="matrix(-0.93306738 -7.0873504  7.0873504 -0.93306738  532.88906  199.30482)"/>
  <circle r="0.5"
          stroke="none" fill="#bcae96" fill-rule="nonzero"
          transform="matrix(-0.99487986 -7.0789381  7.0789381 -0.99487986  532.60914  197.17861)"/>
  <circle r="0.5"
          stroke="none" fill="#bcae96" fill-rule="nonzero"
          transform="matrix(-1.0566166 -7.0699867  7.0699867 -1.0566166  532.31068  195.05493)"/>
  <circle r="0.5"
          stroke="none" fill="#bcae96" fill-rule="nonzero"
          transform="matrix(-1.1182728 -7.0604969  7.0604969 -1.1182728  531.99369  192.93393)"/>
  <circle r="0.5"
          stroke="none" fill="#bcae96" fill-rule="nonzero"
          transform="matrix(-1.1798439 -7.0504694  7.0504694 -1.1798439  531.65821  190.81579)"/>
  <circle r="0.5"
          stroke="none" fill="#bcae96" fill-rule="nonzero"
          transform="matrix(-1.2413252  -7.039905   7.039905 -1.2413252  531.30426  188.70064)"/>
  <circle r="0.5"
          stroke="none" fill="#bcae96" fill-rule="nonzero"
          transform="matrix(-1.3027119 -7.0288044  7.0288044 -1.3027119  530.93186  186.58867)"/>
  <circle r="0.5"
          stroke="none" fill="#bcae96" fill-rule="nonzero"
          transform="matrix(-1.3639994 -7.0171686  7.0171686 -1.3639994  530.54105  184.48003)"/>
  <circle r="0.5"
          stroke="none" fill="#bcae96" fill-rule="nonzero"
          transform="matrix( -1.425183 -7.0049984  7.0049984  -1.425183  530.13185  182.37488)"/>
  <circle r="0.5"
          stroke="none" fill="#bcae96" fill-rule="nonzero"
          transform="matrix(-1.4862581 -6.9922948  6.9922948 -1.4862581  529.70429  180.27338)"/>
  <circle r="0.5"
          stroke="none" fill="#bcae96" fill-rule="nonzero"
          transform="matrix(-1.5472201 -6.9790587  6.9790587 -1.5472201  529.25841  178.17569)"/>
  <circle r="0.5"
          stroke="none" fill="#bcae96" fill-rule="nonzero"
          transform="matrix(-1.6080641 -6.9652911  6.9652911 -1.6080641  528.79425  176.08198)"/>
  <circle r="0.5"
          stroke="none" fill="#bcae96" fill-rule="nonzero"
          transform="matrix(-1.6687858  -6.950993   6.950993 -1.6687858  528.31183  173.99239)"/>
  <circle r="0.5"
          stroke="none" fill="#bcae96" fill-rule="nonzero"
          transform="matrix(-1.7293803 -6.9361656  6.9361656 -1.7293803  527.81119  171.90709)"/>
  <circle r="0.5"
          stroke="none" fill="#bcae96" fill-rule="nonzero"
          transform="matrix(-1.7898432   -6.92081    6.92081 -1.7898432  527.29238  169.82624)"/>
  <circle r="0.5"
          stroke="none" fill="#bcae96" fill-rule="nonzero"
          transform="matrix(-1.8501697 -6.9049274  6.9049274 -1.8501697  526.75543     167.75)"/>
  <circle r="0.5"
          stroke="none" fill="#bcae96" fill-rule="nonzero"
          transform="matrix(-1.9103554 -6.8885189  6.8885189 -1.9103554  526.20038  165.67852)"/>
  <circle r="0.5"
          stroke="none" fill="#bcae96" fill-rule="nonzero"
          transform="matrix(-1.9703955 -6.8715858  6.8715858 -1.9703955  525.62727  163.61196)"/>
  <circle r="0.5"
          stroke="none" fill="#bcae96" fill-rule="nonzero"
          transform="matrix(-2.0302856 -6.8541294  6.8541294 -2.0302856  525.03615  161.55049)"/>
  <circle r="0.5"
          stroke="none" fill="#bcae96" fill-rule="nonzero"
          transform="matrix(-2.0900211 -6.8361511  6.8361511 -2.0900211  524.42706  159.49425)"/>
  <circle r="0.5"
          stroke="none" fill="#bcae96" fill-rule="nonzero"
          transform="matrix(-2.1495975 -6.8176521  6.8176521 -2.1495975  523.80006   157.4434)"/>
  <circle r="0.5"
          stroke="none" fill="#bcae96" fill-rule="nonzero"
          transform="matrix(-2.2090101  -6.798634   6.798634 -2.2090101  523.15518  155.39811)"/>
  <circle r="0.5"
          stroke="none" fill="#bcae96" fill-rule="nonzero"
          transform="matrix(-2.2682545 -6.7790981  6.7790981 -2.2682545  522.49248  153.35852)"/>
  <circle r="0.5"
          stroke="none" fill="#bcae96" fill-rule="nonzero"
          transform="matrix(-2.3273262  -6.759046   6.759046 -2.3273262    521.812  151.32479)"/>
  <circle r="0.5"
          stroke="none" fill="#bcae96" fill-rule="nonzero"
          transform="matrix(-2.3862206 -6.7384791  6.7384791 -2.3862206   521.1138  149.29708)"/>
  <circle r="0.5"
          stroke="none" fill="#bcae96" fill-rule="nonzero"
          transform="matrix(-2.4449333 -6.7173991  6.7173991 -2.4449333  520.39794  147.27553)"/>
  <circle r="0.5"
          stroke="none" fill="#bcae96" fill-rule="nonzero"
          transform="matrix(-2.5034599 -6.6958075  6.6958075 -2.5034599  519.66446  145.26031)"/>
  <circle r="0.5"
          stroke="none" fill="#bcae96" fill-rule="nonzero"
          transform="matrix(-2.5617957 -6.6737061  6.6737061 -2.5617957  518.91342  143.25157)"/>
  <circle r="0.5"
          stroke="none" fill="#bcae96" fill-rule="nonzero"
          transform="matrix(-2.6199365 -6.6510963  6.6510963 -2.6199365  518.14488  141.24946)"/>
  <circle r="0.5"
          stroke="none" fill="#bcae96" fill-rule="nonzero"
          transform="matrix(-2.6778778 -6.6279801  6.6279801 -2.6778778   517.3589  139.25413)"/>
  <circle r="0.5"
          stroke="none" fill="#bcae96" fill-rule="nonzero"
          transform="matrix(-2.7356151 -6.6043592  6.6043592 -2.7356151  516.55553  137.26573)"/>
  <circle r="0.5"
          stroke="none" fill="#bcae96" fill-rule="nonzero"
          transform="matrix(-2.7931441 -6.5802352  6.5802352 -2.7931441  515.73485  135.28443)"/>
  <circle r="0.5"
          stroke="none" fill="#bcae96" fill-rule="nonzero"
          transform="matrix(-2.8504604 -6.5556102  6.5556102 -2.8504604  514.89691  133.31036)"/>
  <circle r="0.5"
          stroke="none" fill="#bcae96" fill-rule="nonzero"
          transform="matrix(-2.9075597 -6.5304859  6.5304859 -2.9075597  514.04177  131.34367)"/>
  <circle r="0.5"
          stroke="none" fill="#bcae96" fill-rule="nonzero"
          transform="matrix(-2.9644375 -6.5048644  6.5048644 -2.9644375   513.1695  129.38453)"/>
  <circle r="0.5"
          stroke="none" fill="#bcae96" fill-rule="nonzero"
          transform="matrix(-3.0210895 -6.4787474  6.4787474 -3.0210895  512.28017  127.43307)"/>
  <circle r="0.5"
          stroke="none" fill="#bcae96" fill-rule="nonzero"
          transform="matrix(-3.0775115 -6.4521371  6.4521371 -3.0775115  511.37384  125.48944)"/>
  <circle r="0.5"
          stroke="none" fill="#bcae96" fill-rule="nonzero"
          transform="matrix(-3.1336991 -6.4250354  6.4250354 -3.1336991  510.45059   123.5538)"/>
  <circle r="0.5"
          stroke="none" fill="#bcae96" fill-rule="nonzero"
          transform="matrix(-3.1896481 -6.3974444  6.3974444 -3.1896481  509.51048  121.62629)"/>
  <circle r="0.5"
          stroke="none" fill="#bcae96" fill-rule="nonzero"
          transform="matrix(-3.2453542 -6.3693662  6.3693662 -3.2453542  508.55359  119.70706)"/>
  <circle r="0.5"
          stroke="none" fill="#bcae96" fill-rule="nonzero"
          transform="matrix(-3.3008131  -6.340803   6.340803 -3.3008131  507.57998  117.79625)"/>
  <circle r="0.5"
          stroke="none" fill="#bcae96" fill-rule="nonzero"
          transform="matrix(-3.3560207 -6.3117569  6.3117569 -3.3560207  506.58974  115.89401)"/>
  <circle r="0.5"
          stroke="none" fill="#bcae96" fill-rule="nonzero"
          transform="matrix(-3.4109727 -6.2822301  6.2822301 -3.4109727  505.58293  114.00048)"/>
  <circle r="0.5"
          stroke="none" fill="#bcae96" fill-rule="nonzero"
          transform="matrix(-3.4656649  -6.252225   6.252225 -3.4656649  504.55964  112.11581)"/>
  <circle r="0.5"
          stroke="none" fill="#bcae96" fill-rule="nonzero"
          transform="matrix(-3.5200932 -6.2217436  6.2217436 -3.5200932  503.51994  110.24014)"/>
  <circle r="0.5"
          stroke="none" fill="#bcae96" fill-rule="nonzero"
          transform="matrix(-3.5742534 -6.1907885  6.1907885 -3.5742534  502.46391  108.37362)"/>
  <circle r="0.5"
          stroke="none" fill="#bcae96" fill-rule="nonzero"
          transform="matrix(-3.6281415 -6.1593619  6.1593619 -3.6281415  501.39163  106.51638)"/>
  <circle r="0.5"
          stroke="none" fill="#bcae96" fill-rule="nonzero"
          transform="matrix(-3.6817532 -6.1274663  6.1274663 -3.6817532  500.30319  104.66858)"/>
  <circle r="0.5"
          stroke="none" fill="#bcae96" fill-rule="nonzero"
          transform="matrix(-3.7350846  -6.095104   6.095104 -3.7350846  499.19867  102.83034)"/>
  <circle r="0.5"
          stroke="none" fill="#bcae96" fill-rule="nonzero"
          transform="matrix(-3.7881315 -6.0622776  6.0622776 -3.7881315  498.07814  101.00181)"/>
  <circle r="0.5"
          stroke="none" fill="#bcae96" fill-rule="nonzero"
          transform="matrix(-3.8408899 -6.0289895  6.0289895 -3.8408899   496.9417  99.183122)"/>
  <circle r="0.5"
          stroke="none" fill="#bcae96" fill-rule="nonzero"
          transform="matrix(-3.8933559 -5.9952423  5.9952423 -3.8933559  495.78943  97.374425)"/>
  <circle r="0.5"
          stroke="none" fill="#bcae96" fill-rule="nonzero"
          transform="matrix(-3.9455253 -5.9610385  5.9610385 -3.9455253  494.62143  95.575852)"/>
  <circle r="0.5"
          stroke="none" fill="#bcae96" fill-rule="nonzero"
          transform="matrix(-3.9973943 -5.9263808  5.9263808 -3.9973943  493.43777  93.787541)"/>
  <circle r="0.5"
          stroke="none" fill="#bcae96" fill-rule="nonzero"
          transform="matrix(-4.0489589 -5.8912717  5.8912717 -4.0489589  492.23855  92.009626)"/>
  <circle r="0.5"
          stroke="none" fill="#bcae96" fill-rule="nonzero"
          transform="matrix(-4.1002151  -5.855714   5.855714 -4.1002151  491.02386  90.242245)"/>
  <circle r="0.5"
          stroke="none" fill="#bcae96" fill-rule="nonzero"
          transform="matrix( -4.151159 -5.8197103  5.8197103  -4.151159   489.7938  88.485531)"/>
  <circle r="0.5"
          stroke="none" fill="#bcae96" fill-rule="nonzero"
          transform="matrix(-4.2017869 -5.7832635  5.7832635 -4.2017869  488.54845  86.739618)"/>
  <circle r="0.5"
          stroke="none" fill="#bcae96" fill-rule="nonzero"
          transform="matrix(-4.2520948 -5.7463763  5.7463763 -4.2520948  487.28791  85.004639)"/>
  <circle r="0.5"
          stroke="none" fill="#bcae96" fill-rule="nonzero"
          transform="matrix(-4.3020788 -5.7090514  5.7090514 -4.3020788  486.01229  83.280726)"/>
  <circle r="0.5"
          stroke="none" fill="#bcae96" fill-rule="nonzero"
          transform="matrix(-4.3517352 -5.6712918  5.6712918 -4.3517352  484.72166   81.56801)"/>
  <circle r="0.5"
          stroke="none" fill="#bcae96" fill-rule="nonzero"
          transform="matrix(-4.4010603 -5.6331003  5.6331003 -4.4010603  483.41614  79.866623)"/>
  <circle r="0.5"
          stroke="none" fill="#bcae96" fill-rule="nonzero"
          transform="matrix(-4.4500501 -5.5944798  5.5944798 -4.4500501  482.09582  78.176693)"/>
  <circle r="0.5"
          stroke="none" fill="#bcae96" fill-rule="nonzero"
          transform="matrix(-4.4987011 -5.5554332  5.5554332 -4.4987011  480.76081  76.498349)"/>
  <circle r="0.5"
          stroke="none" fill="#bcae96" fill-rule="nonzero"
          transform="matrix(-4.5470095 -5.5159636  5.5159636 -4.5470095   479.4112  74.831719)"/>
  <circle r="0.5"
          stroke="none" fill="#bcae96" fill-rule="nonzero"
          transform="matrix(-4.5949716 -5.4760739  5.4760739 -4.5949716   478.0471   73.17693)"/>
  <circle r="0.5"
          stroke="none" fill="#bcae96" fill-rule="nonzero"
          transform="matrix(-4.6425838 -5.4357672  5.4357672 -4.6425838   476.6686  71.534108)"/>
  <circle r="0.5"
          stroke="none" fill="#bcae96" fill-rule="nonzero"
          transform="matrix(-4.6898425 -5.3950466  5.3950466 -4.6898425  475.27583  69.903377)"/>
  <circle r="0.5"
          stroke="none" fill="#bcae96" fill-rule="nonzero"
          transform="matrix(-4.7367439 -5.3539151  5.3539151 -4.7367439  473.86888  68.284863)"/>
  <circle r="0.5"
          stroke="none" fill="#bcae96" fill-rule="nonzero"
          transform="matrix(-4.7832847 -5.3123759  5.3123759 -4.7832847  472.44785  66.678689)"/>
  <circle r="0.5"
          stroke="none" fill="#bcae96" fill-rule="nonzero"
          transform="matrix(-4.8294612 -5.2704321  5.2704321 -4.8294612  471.01287  65.084976)"/>
  <circle r="0.5"
          stroke="none" fill="#bcae96" fill-rule="nonzero"
          transform="matrix(-4.8752699 -5.2280869  5.2280869 -4.8752699  469.56403  63.503847)"/>
  <circle r="0.5"
          stroke="none" fill="#bcae96" fill-rule="nonzero"
          transform="matrix(-4.9207074 -5.1853436  5.1853436 -4.9207074  468.10145   61.93542)"/>
  <circle r="0.5"
          stroke="none" fill="#bcae96" fill-rule="nonzero"
          transform="matrix(-4.9657701 -5.1422055  5.1422055 -4.9657701  466.62524  60.379817)"/>
  <circle r="0.5"
          stroke="none" fill="#bcae96" fill-rule="nonzero"
          transform="matrix(-5.0104547 -5.0986757  5.0986757 -5.0104547  465.13551  58.837156)"/>
  <circle r="0.5"
          stroke="none" fill="#bcae96" fill-rule="nonzero"
          transform="matrix(-5.0547577 -5.0547577  5.0547577 -5.0547577  463.63237  57.307553)"/>
  <circle r="0.5"
          stroke="none" fill="#bcae96" fill-rule="nonzero"
          transform="matrix(-5.0986757 -5.0104547  5.0104547 -5.0986757  462.11594  55.791126)"/>
  <circle r="0.5"
          stroke="none" fill="#bcae96" fill-rule="nonzero"
          transform="matrix(-5.1422055 -4.9657701  4.9657701 -5.1422055  460.58634  54.287989)"/>
  <circle r="0.5"
          stroke="none" fill="#bcae96" fill-rule="nonzero"
          transform="matrix(-5.1853436 -4.9207074  4.9207074 -5.1853436  459.04368  52.798258)"/>
  <circle r="0.5"
          stroke="none" fill="#bcae96" fill-rule="nonzero"
          transform="matrix(-5.2280869 -4.8752699  4.8752699 -5.2280869  457.48807  51.322046)"/>
  <circle r="0.5"
          stroke="none" fill="#bcae96" fill-rule="nonzero"
          transform="matrix(-5.2704321 -4.8294612  4.8294612 -5.2704321  455.91965  49.859465)"/>
  <circle r="0.5"
          stroke="none" fill="#bcae96" fill-rule="nonzero"
          transform="matrix(-5.3123759 -4.7832847  4.7832847 -5.3123759  454.33852  48.410627)"/>
  <circle r="0.5"
          stroke="none" fill="#bcae96" fill-rule="nonzero"
          transform="matrix(-5.3539151 -4.7367439  4.7367439 -5.3539151  452.74481  46.975641)"/>
  <circle r="0.5"
          stroke="none" fill="#bcae96" fill-rule="nonzero"
          transform="matrix(-5.3950466 -4.6898425  4.6898425 -5.3950466  451.13863  45.554618)"/>
  <circle r="0.5"
          stroke="none" fill="#bcae96" fill-rule="nonzero"
          transform="matrix(-5.4357672 -4.6425838  4.6425838 -5.4357672  449.52012  44.147665)"/>
  <circle r="0.5"
          stroke="none" fill="#bcae96" fill-rule="nonzero"
          transform="matrix(-5.4760739 -4.5949716  4.5949716 -5.4760739  447.88939   42.75489)"/>
  <circle r="0.5"
          stroke="none" fill="#bcae96" fill-rule="nonzero"
          transform="matrix(-5.5159636 -4.5470095  4.5470095 -5.5159636  446.24656  41.376399)"/>
  <circle r="0.5"
          stroke="none" fill="#bcae96" fill-rule="nonzero"
          transform="matrix(-5.5554332 -4.4987011  4.4987011 -5.5554332  444.59178  40.012296)"/>
  <circle r="0.5"
          stroke="none" fill="#bcae96" fill-rule="nonzero"
          transform="matrix(-5.5944798 -4.4500501  4.4500501 -5.5944798  442.92515  38.662686)"/>
  <circle r="0.5"
          stroke="none" fill="#bcae96" fill-rule="nonzero"
          transform="matrix(-5.6331003 -4.4010603  4.4010603 -5.6331003   441.2468   37.32767)"/>
  <circle r="0.5"
          stroke="none" fill="#bcae96" fill-rule="nonzero"
          transform="matrix(-5.6712918 -4.3517352  4.3517352 -5.6712918  439.55687  36.007352)"/>
  <circle r="0.5"
          stroke="none" fill="#bcae96" fill-rule="nonzero"
          transform="matrix(-5.7090514 -4.3020788  4.3020788 -5.7090514  437.85548  34.701832)"/>
  <circle r="0.5"
          stroke="none" fill="#bcae96" fill-rule="nonzero"
          transform="matrix(-5.7463763 -4.2520948  4.2520948 -5.7463763  436.14277  33.411208)"/>
  <circle r="0.5"
          stroke="none" fill="#bcae96" fill-rule="nonzero"
          transform="matrix(-5.7832635 -4.2017869  4.2017869 -5.7832635  434.41886   32.13558)"/>
  <circle r="0.5"
          stroke="none" fill="#bcae96" fill-rule="nonzero"
          transform="matrix(-5.8197103  -4.151159   4.151159 -5.8197103  432.68388  30.875044)"/>
  <circle r="0.5"
          stroke="none" fill="#bcae96" fill-rule="nonzero"
          transform="matrix( -5.855714 -4.1002151  4.1002151  -5.855714  430.93796  29.629696)"/>
  <circle r="0.5"
          stroke="none" fill="#bcae96" fill-rule="nonzero"
          transform="matrix(-5.8912717 -4.0489589  4.0489589 -5.8912717  429.18125  28.399631)"/>
  <circle r="0.5"
          stroke="none" fill="#bcae96" fill-rule="nonzero"
          transform="matrix(-5.9263808 -3.9973943  3.9973943 -5.9263808  427.41387  27.184944)"/>
  <circle r="0.5"
          stroke="none" fill="#bcae96" fill-rule="nonzero"
          transform="matrix(-5.9610385 -3.9455253  3.9455253 -5.9610385  425.63595  25.985726)"/>
  <circle r="0.5"
          stroke="none" fill="#bcae96" fill-rule="nonzero"
          transform="matrix(-5.9952423 -3.8933559  3.8933559 -5.9952423  423.84764  24.802068)"/>
  <circle r="0.5"
          stroke="none" fill="#bcae96" fill-rule="nonzero"
          transform="matrix(-6.0289895 -3.8408899  3.8408899 -6.0289895  422.04907  23.634061)"/>
  <circle r="0.5"
          stroke="none" fill="#bcae96" fill-rule="nonzero"
          transform="matrix(-6.0622776 -3.7881315  3.7881315 -6.0622776  420.24037  22.481794)"/>
  <circle r="0.5"
          stroke="none" fill="#bcae96" fill-rule="nonzero"
          transform="matrix( -6.095104 -3.7350846  3.7350846  -6.095104  418.42169  21.345355)"/>
  <circle r="0.5"
          stroke="none" fill="#bcae96" fill-rule="nonzero"
          transform="matrix(-6.1274663 -3.6817532  3.6817532 -6.1274663  416.59316  20.224829)"/>
  <circle r="0.5"
          stroke="none" fill="#bcae96" fill-rule="nonzero"
          transform="matrix(-6.1593619 -3.6281415  3.6281415 -6.1593619  414.75492  19.120303)"/>
  <circle r="0.5"
          stroke="none" fill="#bcae96" fill-rule="nonzero"
          transform="matrix(-6.1907885 -3.5742534  3.5742534 -6.1907885  412.90711  18.031861)"/>
  <circle r="0.5"
          stroke="none" fill="#bcae96" fill-rule="nonzero"
          transform="matrix(-6.2217436 -3.5200932  3.5200932 -6.2217436  411.04987  16.959585)"/>
  <circle r="0.5"
          stroke="none" fill="#bcae96" fill-rule="nonzero"
          transform="matrix( -6.252225 -3.4656649  3.4656649  -6.252225  409.18335  15.903557)"/>
  <circle r="0.5"
          stroke="none" fill="#bcae96" fill-rule="nonzero"
          transform="matrix(-6.2822301 -3.4109727  3.4109727 -6.2822301  407.30768  14.863858)"/>
  <circle r="0.5"
          stroke="none" fill="#bcae96" fill-rule="nonzero"
          transform="matrix(-6.6737061  2.5617957  2.5617957  6.6737061  386.62025  229.13515)"/>
  <circle r="0.5"
          stroke="none" fill="#bcae96" fill-rule="nonzero"
          transform="matrix(-6.6958075  2.5034599  2.5034599  6.6958075  384.61814  229.90369)"/>
  <circle r="0.5"
          stroke="none" fill="#bcae96" fill-rule="nonzero"
          transform="matrix(-6.7173991  2.4449333  2.4449333  6.7173991   382.6094  230.65473)"/>
  <circle r="0.5"
          stroke="none" fill="#bcae96" fill-rule="nonzero"
          transform="matrix(-6.7384791  2.3862206  2.3862206  6.7384791  380.59418  231.38821)"/>
  <circle r="0.5"
          stroke="none" fill="#bcae96" fill-rule="nonzero"
          transform="matrix( -6.759046  2.3273262  2.3273262   6.759046  378.57263  232.10407)"/>
  <circle r="0.5"
          stroke="none" fill="#bcae96" fill-rule="nonzero"
          transform="matrix(-6.7790981  2.2682545  2.2682545  6.7790981  376.54492  232.80227)"/>
  <circle r="0.5"
          stroke="none" fill="#bcae96" fill-rule="nonzero"
          transform="matrix( -6.798634  2.2090101  2.2090101   6.798634  374.51119  233.48275)"/>
  <circle r="0.5"
          stroke="none" fill="#bcae96" fill-rule="nonzero"
          transform="matrix(-6.8176521  2.1495975  2.1495975  6.8176521   372.4716  234.14545)"/>
  <circle r="0.5"
          stroke="none" fill="#bcae96" fill-rule="nonzero"
          transform="matrix(-6.8361511  2.0900211  2.0900211  6.8361511   370.4263  234.79033)"/>
  <circle r="0.5"
          stroke="none" fill="#bcae96" fill-rule="nonzero"
          transform="matrix(-6.8541294  2.0302856  2.0302856  6.8541294  368.37546  235.41734)"/>
  <circle r="0.5"
          stroke="none" fill="#bcae96" fill-rule="nonzero"
          transform="matrix(-6.8715858  1.9703955  1.9703955  6.8715858  366.31922  236.02642)"/>
  <circle r="0.5"
          stroke="none" fill="#bcae96" fill-rule="nonzero"
          transform="matrix(-6.8885189  1.9103554  1.9103554  6.8885189  364.25774  236.61754)"/>
  <circle r="0.5"
          stroke="none" fill="#bcae96" fill-rule="nonzero"
          transform="matrix(-6.9049274  1.8501697  1.8501697  6.9049274  362.19119  237.19065)"/>
  <circle r="0.5"
          stroke="none" fill="#bcae96" fill-rule="nonzero"
          transform="matrix(  -6.92081  1.7898432  1.7898432    6.92081  360.11971   237.7457)"/>
  <circle r="0.5"
          stroke="none" fill="#bcae96" fill-rule="nonzero"
          transform="matrix(-6.9361656  1.7293803  1.7293803  6.9361656  358.04347  238.28265)"/>
  <circle r="0.5"
          stroke="none" fill="#bcae96" fill-rule="nonzero"
          transform="matrix( -6.950993  1.6687858  1.6687858   6.950993  355.96262  238.80147)"/>
  <circle r="0.5"
          stroke="none" fill="#bcae96" fill-rule="nonzero"
          transform="matrix(-6.9652911  1.6080641  1.6080641  6.9652911  353.87732   239.3021)"/>
  <circle r="0.5"
          stroke="none" fill="#bcae96" fill-rule="nonzero"
          transform="matrix(-6.9790587  1.5472201  1.5472201  6.9790587  351.78773  239.78452)"/>
  <circle r="0.5"
          stroke="none" fill="#bcae96" fill-rule="nonzero"
          transform="matrix(-6.9922948  1.4862581  1.4862581  6.9922948  349.69401  240.24869)"/>
  <circle r="0.5"
          stroke="none" fill="#bcae96" fill-rule="nonzero"
          transform="matrix(-7.0049984   1.425183   1.425183  7.0049984  347.59633  240.69456)"/>
  <circle r="0.5"
          stroke="none" fill="#bcae96" fill-rule="nonzero"
          transform="matrix(-7.0171686  1.3639994  1.3639994  7.0171686  345.49483  241.12212)"/>
  <circle r="0.5"
          stroke="none" fill="#bcae96" fill-rule="nonzero"
          transform="matrix(-7.0288044  1.3027119  1.3027119  7.0288044  343.38968  241.53132)"/>
  <circle r="0.5"
          stroke="none" fill="#bcae96" fill-rule="nonzero"
          transform="matrix( -7.039905  1.2413252  1.2413252   7.039905  341.28103  241.92213)"/>
  <circle r="0.5"
          stroke="none" fill="#bcae96" fill-rule="nonzero"
          transform="matrix(-7.0504694  1.1798439  1.1798439  7.0504694  339.16906  242.29453)"/>
  <circle r="0.5"
          stroke="none" fill="#bcae96" fill-rule="nonzero"
          transform="matrix(-7.0604969  1.1182728  1.1182728  7.0604969  337.05392  242.64848)"/>
  <circle r="0.5"
          stroke="none" fill="#bcae96" fill-rule="nonzero"
          transform="matrix(-7.0699867  1.0566166  1.0566166  7.0699867  334.93577  242.98396)"/>
  <circle r="0.5"
          stroke="none" fill="#bcae96" fill-rule="nonzero"
          transform="matrix(-7.0789381 0.99487986 0.99487986  7.0789381  332.81478  243.30095)"/>
  <circle r="0.5"
          stroke="none" fill="#bcae96" fill-rule="nonzero"
          transform="matrix(-7.0873504 0.93306738 0.93306738  7.0873504  330.69109  243.59941)"/>
  <circle r="0.5"
          stroke="none" fill="#bcae96" fill-rule="nonzero"
          transform="matrix(-7.0952229 0.87118383 0.87118383  7.0952229  328.56489  243.87933)"/>
  <circle r="0.5"
          stroke="none" fill="#bcae96" fill-rule="nonzero"
          transform="matrix(-7.1025552 0.80923395 0.80923395  7.1025552  326.43632  244.14069)"/>
  <circle r="0.5"
          stroke="none" fill="#bcae96" fill-rule="nonzero"
          transform="matrix(-7.1093466 0.74722243 0.74722243  7.1093466  324.30556  244.38346)"/>
  <circle r="0.5"
          stroke="none" fill="#bcae96" fill-rule="nonzero"
          transform="matrix(-7.1155965 0.68515402 0.68515402  7.1155965  322.17275  244.60763)"/>
  <circle r="0.5"
          stroke="none" fill="#bcae96" fill-rule="nonzero"
          transform="matrix(-7.1213046 0.62303342 0.62303342  7.1213046  320.03807  244.81317)"/>
  <circle r="0.5"
          stroke="none" fill="#bcae96" fill-rule="nonzero"
          transform="matrix(-7.1264704 0.56086538 0.56086538  7.1264704  317.90168  245.00008)"/>
  <circle r="0.5"
          stroke="none" fill="#bcae96" fill-rule="nonzero"
          transform="matrix(-7.1310934 0.49865463 0.49865463  7.1310934  315.76374  245.16834)"/>
  <circle r="0.5"
          stroke="none" fill="#bcae96" fill-rule="nonzero"
          transform="matrix(-7.1351734  0.4364059  0.4364059  7.1351734  313.62441  245.31794)"/>
  <circle r="0.5"
          stroke="none" fill="#bcae96" fill-rule="nonzero"
          transform="matrix(-7.1387101 0.37412394 0.37412394  7.1387101  311.48386  245.44886)"/>
  <circle r="0.5"
          stroke="none" fill="#bcae96" fill-rule="nonzero"
          transform="matrix( -7.141703 0.31181349 0.31181349   7.141703  309.34225   245.5611)"/>
  <circle r="0.5"
          stroke="none" fill="#bcae96" fill-rule="nonzero"
          transform="matrix(-7.1441522 0.24947929 0.24947929  7.1441522  307.19974  245.65464)"/>
  <circle r="0.5"
          stroke="none" fill="#bcae96" fill-rule="nonzero"
          transform="matrix(-7.1460572 0.18712609 0.18712609  7.1460572  305.05649  245.72949)"/>
  <circle r="0.5"
          stroke="none" fill="#bcae96" fill-rule="nonzero"
          transform="matrix(-7.1474181 0.12475865 0.12475865  7.1474181  302.91267  245.78562)"/>
  <circle r="0.5"
          stroke="none" fill="#bcae96" fill-rule="nonzero"
          transform="matrix(-7.1482346 0.062381699 0.062381699  7.1482346  300.76845  245.82305)"/>
  <circle r="0.5"
          stroke="none" fill="#bcae96" fill-rule="nonzero"
          transform="matrix(-7.1485068 1.4756812e-15 1.4756812e-15  7.1485068  298.62398  245.84177)"/>
  <circle r="0.5"
          stroke="none" fill="#bcae96" fill-rule="nonzero"
          transform="matrix(-7.1482346 -0.062381699 -0.062381699  7.1482346  296.47943  245.84177)"/>
  <circle r="0.5"
          stroke="none" fill="#bcae96" fill-rule="nonzero"
          transform="matrix(-7.1474181 -0.12475865 -0.12475865  7.1474181  294.33496  245.82305)"/>
  <circle r="0.5"
          stroke="none" fill="#bcae96" fill-rule="nonzero"
          transform="matrix(-7.1460572 -0.18712609 -0.18712609  7.1460572  292.19073  245.78562)"/>
  <circle r="0.5"
          stroke="none" fill="#bcae96" fill-rule="nonzero"
          transform="matrix(-7.1441522 -0.24947929 -0.24947929  7.1441522  290.04691  245.72949)"/>
  <circle r="0.5"
          stroke="none" fill="#bcae96" fill-rule="nonzero"
          transform="matrix( -7.141703 -0.31181349 -0.31181349   7.141703  287.90367  245.65464)"/>
  <circle r="0.5"
          stroke="none" fill="#bcae96" fill-rule="nonzero"
          transform="matrix(-7.1387101 -0.37412394 -0.37412394  7.1387101  285.76116   245.5611)"/>
  <circle r="0.5"
          stroke="none" fill="#bcae96" fill-rule="nonzero"
          transform="matrix(-7.1351734 -0.4364059 -0.4364059  7.1351734  283.61954  245.44886)"/>
  <circle r="0.5"
          stroke="none" fill="#bcae96" fill-rule="nonzero"
          transform="matrix(-7.1310934 -0.49865463 -0.49865463  7.1310934  281.47899  245.31794)"/>
  <circle r="0.5"
          stroke="none" fill="#bcae96" fill-rule="nonzero"
          transform="matrix(-7.1264704 -0.56086538 -0.56086538  7.1264704  279.33966  245.16834)"/>
  <circle r="0.5"
          stroke="none" fill="#bcae96" fill-rule="nonzero"
          transform="matrix(-7.1213046 -0.62303342 -0.62303342  7.1213046  277.20172  245.00008)"/>
  <circle r="0.5"
          stroke="none" fill="#bcae96" fill-rule="nonzero"
          transform="matrix(-7.1155965 -0.68515402 -0.68515402  7.1155965  275.06533  244.81317)"/>
  <circle r="0.5"
          stroke="none" fill="#bcae96" fill-rule="nonzero"
          transform="matrix(-7.1093466 -0.74722243 -0.74722243  7.1093466  272.93065  244.60763)"/>
  <circle r="0.5"
          stroke="none" fill="#bcae96" fill-rule="nonzero"
          transform="matrix(-7.1025552 -0.80923395 -0.80923395  7.1025552  270.79785  244.38346)"/>
  <circle r="0.5"
          stroke="none" fill="#bcae96" fill-rule="nonzero"
          transform="matrix(-7.0952229 -0.87118383 -0.87118383  7.0952229  268.66708  244.14069)"/>
  <circle r="0.5"
          stroke="none" fill="#bcae96" fill-rule="nonzero"
          transform="matrix(-7.0873504 -0.93306738 -0.93306738  7.0873504  266.53851  243.87933)"/>
  <circle r="0.5"
          stroke="none" fill="#bcae96" fill-rule="nonzero"
          transform="matrix(-7.0789381 -0.99487986 -0.99487986  7.0789381  264.41231  243.59941)"/>
  <circle r="0.5"
          stroke="none" fill="#bcae96" fill-rule="nonzero"
          transform="matrix(-7.0699867 -1.0566166 -1.0566166  7.0699867  262.28863  243.30095)"/>
  <circle r="0.5"
          stroke="none" fill="#bcae96" fill-rule="nonzero"
          transform="matrix(-7.0604969 -1.1182728 -1.1182728  7.0604969  260.16763  242.98396)"/>
  <circle r="0.5"
          stroke="none" fill="#bcae96" fill-rule="nonzero"
          transform="matrix(-7.0504694 -1.1798439 -1.1798439  7.0504694  258.04948  242.64848)"/>
  <circle r="0.5"
          stroke="none" fill="#bcae96" fill-rule="nonzero"
          transform="matrix( -7.039905 -1.2413252 -1.2413252   7.039905  255.93434  242.29453)"/>
  <circle r="0.5"
          stroke="none" fill="#bcae96" fill-rule="nonzero"
          transform="matrix(-7.0288044 -1.3027119 -1.3027119  7.0288044  253.82237  241.92213)"/>
  <circle r="0.5"
          stroke="none" fill="#bcae96" fill-rule="nonzero"
          transform="matrix(-7.0171686 -1.3639994 -1.3639994  7.0171686  251.71373  241.53132)"/>
  <circle r="0.5"
          stroke="none" fill="#bcae96" fill-rule="nonzero"
          transform="matrix(-7.0049984  -1.425183  -1.425183  7.0049984  249.60858  241.12212)"/>
  <circle r="0.5"
          stroke="none" fill="#bcae96" fill-rule="nonzero"
          transform="matrix(-6.9922948 -1.4862581 -1.4862581  6.9922948  247.50708  240.69456)"/>
  <circle r="0.5"
          stroke="none" fill="#bcae96" fill-rule="nonzero"
          transform="matrix(-6.9790587 -1.5472201 -1.5472201  6.9790587  245.40939  240.24869)"/>
  <circle r="0.5"
          stroke="none" fill="#bcae96" fill-rule="nonzero"
          transform="matrix(-6.9652911 -1.6080641 -1.6080641  6.9652911  243.31567  239.78452)"/>
  <circle r="0.5"
          stroke="none" fill="#bcae96" fill-rule="nonzero"
          transform="matrix( -6.950993 -1.6687858 -1.6687858   6.950993  241.22609   239.3021)"/>
  <circle r="0.5"
          stroke="none" fill="#bcae96" fill-rule="nonzero"
          transform="matrix(-6.9361656 -1.7293803 -1.7293803  6.9361656  239.14079  238.80147)"/>
  <circle r="0.5"
          stroke="none" fill="#bcae96" fill-rule="nonzero"
          transform="matrix(  -6.92081 -1.7898432 -1.7898432    6.92081  237.05994  238.28265)"/>
  <circle r="0.5"
          stroke="none" fill="#bcae96" fill-rule="nonzero"
          transform="matrix(-6.9049274 -1.8501697 -1.8501697  6.9049274   234.9837   237.7457)"/>
  <circle r="0.5"
          stroke="none" fill="#bcae96" fill-rule="nonzero"
          transform="matrix(-6.8885189 -1.9103554 -1.9103554  6.8885189  232.91222  237.19065)"/>
  <circle r="0.5"
          stroke="none" fill="#bcae96" fill-rule="nonzero"
          transform="matrix(-6.8715858 -1.9703955 -1.9703955  6.8715858  230.84566  236.61754)"/>
  <circle r="0.5"
          stroke="none" fill="#bcae96" fill-rule="nonzero"
          transform="matrix(-6.8541294 -2.0302856 -2.0302856  6.8541294  228.78419  236.02642)"/>
  <circle r="0.5"
          stroke="none" fill="#bcae96" fill-rule="nonzero"
          transform="matrix(-6.8361511 -2.0900211 -2.0900211  6.8361511  226.72795  235.41734)"/>
  <circle r="0.5"
          stroke="none" fill="#bcae96" fill-rule="nonzero"
          transform="matrix(-6.8176521 -2.1495975 -2.1495975  6.8176521   224.6771  234.79033)"/>
  <circle r="0.5"
          stroke="none" fill="#bcae96" fill-rule="nonzero"
          transform="matrix( -6.798634 -2.2090101 -2.2090101   6.798634  222.63181  234.14545)"/>
  <circle r="0.5"
          stroke="none" fill="#bcae96" fill-rule="nonzero"
          transform="matrix(-6.7790981 -2.2682545 -2.2682545  6.7790981  220.59222  233.48275)"/>
  <circle r="0.5"
          stroke="none" fill="#bcae96" fill-rule="nonzero"
          transform="matrix( -6.759046 -2.3273262 -2.3273262   6.759046  218.55849  232.80227)"/>
  <circle r="0.5"
          stroke="none" fill="#bcae96" fill-rule="nonzero"
          transform="matrix(-6.7384791 -2.3862206 -2.3862206  6.7384791  216.53077  232.10407)"/>
  <circle r="0.5"
          stroke="none" fill="#bcae96" fill-rule="nonzero"
          transform="matrix(-6.7173991 -2.4449333 -2.4449333  6.7173991  214.50923  231.38821)"/>
  <circle r="0.5"
          stroke="none" fill="#bcae96" fill-rule="nonzero"
          transform="matrix(-6.6958075 -2.5034599 -2.5034599  6.6958075  212.49401  230.65473)"/>
  <circle r="0.5"
          stroke="none" fill="#bcae96" fill-rule="nonzero"
          transform="matrix(-6.6737061 -2.5617957 -2.5617957  6.6737061  210.48527  229.90369)"/>
  <circle r="0.5"
          stroke="none" fill="#bcae96" fill-rule="nonzero"
          transform="matrix(-6.6510963 -2.6199365 -2.6199365  6.6510963  208.48316  229.13515)"/>
  <circle r="0.5"
          stroke="none" fill="#bcae96" fill-rule="nonzero"
          transform="matrix(-6.6279801 -2.6778778 -2.6778778  6.6279801  206.48783  228.34917)"/>
  <circle r="0.5"
          stroke="none" fill="#bcae96" fill-rule="nonzero"
          transform="matrix(-6.6043592 -2.7356151 -2.7356151  6.6043592  204.49943  227.54581)"/>
  <circle r="0.5"
          stroke="none" fill="#bcae96" fill-rule="nonzero"
          transform="matrix(-6.5802352 -2.7931441 -2.7931441  6.5802352  202.51812  226.72512)"/>
  <circle r="0.5"
          stroke="none" fill="#bcae96" fill-rule="nonzero"
          transform="matrix(-6.5556102 -2.8504604 -2.8504604  6.5556102  200.54405  225.88718)"/>
  <circle r="0.5"
          stroke="none" fill="#bcae96" fill-rule="nonzero"
          transform="matrix(-6.5304859 -2.9075597 -2.9075597  6.5304859  198.57737  225.03204)"/>
  <circle r="0.5"
          stroke="none" fill="#bcae96" fill-rule="nonzero"
          transform="matrix(-6.5048644 -2.9644375 -2.9644375  6.5048644  196.61823  224.15977)"/>
  <circle r="0.5"
          stroke="none" fill="#bcae96" fill-rule="nonzero"
          transform="matrix(-6.4787474 -3.0210895 -3.0210895  6.4787474  194.66677  223.27044)"/>
  <circle r="0.5"
          stroke="none" fill="#bcae96" fill-rule="nonzero"
          transform="matrix(-6.4521371 -3.0775115 -3.0775115  6.4521371  192.72314  222.36411)"/>
  <circle r="0.5"
          stroke="none" fill="#bcae96" fill-rule="nonzero"
          transform="matrix(-6.4250354 -3.1336991 -3.1336991  6.4250354   190.7875  221.44086)"/>
  <circle r="0.5"
          stroke="none" fill="#bcae96" fill-rule="nonzero"
          transform="matrix(-6.3974444 -3.1896481 -3.1896481  6.3974444  188.85999  220.50075)"/>
  <circle r="0.5"
          stroke="none" fill="#bcae96" fill-rule="nonzero"
          transform="matrix(-6.3693662 -3.2453542 -3.2453542  6.3693662  186.94076  219.54386)"/>
  <circle r="0.5"
          stroke="none" fill="#bcae96" fill-rule="nonzero"
          transform="matrix( -6.340803 -3.3008131 -3.3008131   6.340803  185.02995  218.57025)"/>
  <circle r="0.5"
          stroke="none" fill="#bcae96" fill-rule="nonzero"
          transform="matrix(-6.3117569 -3.3560207 -3.3560207  6.3117569  183.12771  217.58001)"/>
  <circle r="0.5"
          stroke="none" fill="#bcae96" fill-rule="nonzero"
          transform="matrix(-6.2822301 -3.4109727 -3.4109727  6.2822301  181.23418   216.5732)"/>
  <circle r="0.5"
          stroke="none" fill="#bcae96" fill-rule="nonzero"
          transform="matrix( -6.252225 -3.4656649 -3.4656649   6.252225  179.34951  215.54991)"/>
  <circle r="0.5"
          stroke="none" fill="#bcae96" fill-rule="nonzero"
          transform="matrix(-6.2217436 -3.5200932 -3.5200932  6.2217436  177.47384  214.51021)"/>
  <circle r="0.5"
          stroke="none" fill="#bcae96" fill-rule="nonzero"
          transform="matrix(-6.1907885 -3.5742534 -3.5742534  6.1907885  175.60732  213.45418)"/>
  <circle r="0.5"
          stroke="none" fill="#bcae96" fill-rule="nonzero"
          transform="matrix(-6.1593619 -3.6281415 -3.6281415  6.1593619  173.75008  212.38191)"/>
  <circle r="0.5"
          stroke="none" fill="#bcae96" fill-rule="nonzero"
          transform="matrix(-6.1274663 -3.6817532 -3.6817532  6.1274663  171.90227  211.29346)"/>
  <circle r="0.5"
          stroke="none" fill="#bcae96" fill-rule="nonzero"
          transform="matrix( -6.095104 -3.7350846 -3.7350846   6.095104  170.06403  210.18894)"/>
  <circle r="0.5"
          stroke="none" fill="#bcae96" fill-rule="nonzero"
          transform="matrix(-6.0622776 -3.7881315 -3.7881315  6.0622776   168.2355  209.06841)"/>
  <circle r="0.5"
          stroke="none" fill="#bcae96" fill-rule="nonzero"
          transform="matrix(-6.0289895 -3.8408899 -3.8408899  6.0289895  166.41682  207.93197)"/>
  <circle r="0.5"
          stroke="none" fill="#bcae96" fill-rule="nonzero"
          transform="matrix(-5.9952423 -3.8933559 -3.8933559  5.9952423  164.60812  206.77971)"/>
  <circle r="0.5"
          stroke="none" fill="#bcae96" fill-rule="nonzero"
          transform="matrix(-5.9610385 -3.9455253 -3.9455253  5.9610385  162.80955   205.6117)"/>
  <circle r="0.5"
          stroke="none" fill="#bcae96" fill-rule="nonzero"
          transform="matrix(-5.9263808 -3.9973943 -3.9973943  5.9263808  161.02124  204.42804)"/>
  <circle r="0.5"
          stroke="none" fill="#bcae96" fill-rule="nonzero"
          transform="matrix(-5.8912717 -4.0489589 -4.0489589  5.8912717  159.24332  203.22882)"/>
  <circle r="0.5"
          stroke="none" fill="#bcae96" fill-rule="nonzero"
          transform="matrix( -5.855714 -4.1002151 -4.1002151   5.855714  157.47594  202.01413)"/>
  <circle r="0.5"
          stroke="none" fill="#bcae96" fill-rule="nonzero"
          transform="matrix(-5.8197103  -4.151159  -4.151159  5.8197103  155.71923  200.78407)"/>
  <circle r="0.5"
          stroke="none" fill="#bcae96" fill-rule="nonzero"
          transform="matrix(-5.7832635 -4.2017869 -4.2017869  5.7832635  153.97332  199.53872)"/>
  <circle r="0.5"
          stroke="none" fill="#bcae96" fill-rule="nonzero"
          transform="matrix(-5.7463763 -4.2520948 -4.2520948  5.7463763  152.23834  198.27819)"/>
  <circle r="0.5"
          stroke="none" fill="#bcae96" fill-rule="nonzero"
          transform="matrix(-5.7090514 -4.3020788 -4.3020788  5.7090514  150.51442  197.00256)"/>
  <circle r="0.5"
          stroke="none" fill="#bcae96" fill-rule="nonzero"
          transform="matrix(-5.6712918 -4.3517352 -4.3517352  5.6712918  148.80171  195.71193)"/>
  <circle r="0.5"
          stroke="none" fill="#bcae96" fill-rule="nonzero"
          transform="matrix(-5.6331003 -4.4010603 -4.4010603  5.6331003  147.10032  194.40641)"/>
  <circle r="0.5"
          stroke="none" fill="#bcae96" fill-rule="nonzero"
          transform="matrix(-5.5944798 -4.4500501 -4.4500501  5.5944798  145.41039   193.0861)"/>
  <circle r="0.5"
          stroke="none" fill="#bcae96" fill-rule="nonzero"
          transform="matrix(-5.5554332 -4.4987011 -4.4987011  5.5554332  143.73205  191.75108)"/>
  <circle r="0.5"
          stroke="none" fill="#bcae96" fill-rule="nonzero"
          transform="matrix(-5.5159636 -4.5470095 -4.5470095  5.5159636  142.06542  190.40147)"/>
  <circle r="0.5"
          stroke="none" fill="#bcae96" fill-rule="nonzero"
          transform="matrix(-5.4760739 -4.5949716 -4.5949716  5.4760739  140.41063  189.03737)"/>
  <circle r="0.5"
          stroke="none" fill="#bcae96" fill-rule="nonzero"
          transform="matrix(-5.4357672 -4.6425838 -4.6425838  5.4357672  138.76781  187.65888)"/>
  <circle r="0.5"
          stroke="none" fill="#4b3e5b" fill-rule="nonzero"
          transform="matrix(-5.8912717 -4.0489589 -4.0489589  5.8912717  322.81537  244.43904)"/>
  <circle r="0.5"
          stroke="none" fill="#4b3e5b" fill-rule="nonzero"
          transform="matrix( -5.855714 -4.1002151 -4.1002151   5.855714  321.04799  243.22436)"/>
  <circle r="0.5"
          stroke="none" fill="#4b3e5b" fill-rule="nonzero"
          transform="matrix(-5.8197103  -4.151159  -4.151159  5.8197103  319.29127  241.99429)"/>
  <circle r="0.5"
          stroke="none" fill="#4b3e5b" fill-rule="nonzero"
          transform="matrix(-5.7832635 -4.2017869 -4.2017869  5.7832635  317.54536  240.74894)"/>
  <circle r="0.5"
          stroke="none" fill="#4b3e5b" fill-rule="nonzero"
          transform="matrix(-5.7463763 -4.2520948 -4.2520948  5.7463763  315.81038  239.48841)"/>
  <circle r="0.5"
          stroke="none" fill="#4b3e5b" fill-rule="nonzero"
          transform="matrix(-5.7090514 -4.3020788 -4.3020788  5.7090514  314.08647  238.21278)"/>
  <circle r="0.5"
          stroke="none" fill="#4b3e5b" fill-rule="nonzero"
          transform="matrix(-5.6712918 -4.3517352 -4.3517352  5.6712918  312.37375  236.92216)"/>
  <circle r="0.5"
          stroke="none" fill="#4b3e5b" fill-rule="nonzero"
          transform="matrix(-5.6331003 -4.4010603 -4.4010603  5.6331003  310.67237  235.61664)"/>
  <circle r="0.5"
          stroke="none" fill="#4b3e5b" fill-rule="nonzero"
          transform="matrix(-5.5944798 -4.4500501 -4.4500501  5.5944798  308.98244  234.29632)"/>
  <circle r="0.5"
          stroke="none" fill="#4b3e5b" fill-rule="nonzero"
          transform="matrix(-5.5554332 -4.4987011 -4.4987011  5.5554332  307.30409   232.9613)"/>
  <circle r="0.5"
          stroke="none" fill="#4b3e5b" fill-rule="nonzero"
          transform="matrix(-5.5159636 -4.5470095 -4.5470095  5.5159636  305.63746  231.61169)"/>
  <circle r="0.5"
          stroke="none" fill="#4b3e5b" fill-rule="nonzero"
          transform="matrix(-5.4760739 -4.5949716 -4.5949716  5.4760739  303.98267  230.24759)"/>
  <circle r="0.5"
          stroke="none" fill="#4b3e5b" fill-rule="nonzero"
          transform="matrix(-5.4357672 -4.6425838 -4.6425838  5.4357672  302.33985   228.8691)"/>
  <circle r="0.5"
          stroke="none" fill="#4b3e5b" fill-rule="nonzero"
          transform="matrix(-5.3950466 -4.6898425 -4.6898425  5.3950466  300.70912  227.47632)"/>
  <circle r="0.5"
          stroke="none" fill="#4b3e5b" fill-rule="nonzero"
          transform="matrix(-5.3539151 -4.7367439 -4.7367439  5.3539151  299.09061  226.06937)"/>
  <circle r="0.5"
          stroke="none" fill="#4b3e5b" fill-rule="nonzero"
          transform="matrix(-5.3123759 -4.7832847 -4.7832847  5.3123759  297.48443  224.64835)"/>
  <circle r="0.5"
          stroke="none" fill="#4b3e5b" fill-rule="nonzero"
          transform="matrix(-5.2704321 -4.8294612 -4.8294612  5.2704321  295.89072  223.21336)"/>
  <circle r="0.5"
          stroke="none" fill="#4b3e5b" fill-rule="nonzero"
          transform="matrix(-5.2280869 -4.8752699 -4.8752699  5.2280869  294.30959  221.76452)"/>
  <circle r="0.5"
          stroke="none" fill="#4b3e5b" fill-rule="nonzero"
          transform="matrix(-5.1853436 -4.9207074 -4.9207074  5.1853436  292.74116  220.30194)"/>
  <circle r="0.5"
          stroke="none" fill="#4b3e5b" fill-rule="nonzero"
          transform="matrix(-5.1422055 -4.9657701 -4.9657701  5.1422055  291.18556  218.82573)"/>
  <circle r="0.5"
          stroke="none" fill="#4b3e5b" fill-rule="nonzero"
          transform="matrix(-5.0986757 -5.0104547 -5.0104547  5.0986757   289.6429    217.336)"/>
  <circle r="0.5"
          stroke="none" fill="#4b3e5b" fill-rule="nonzero"
          transform="matrix(-5.0547577 -5.0547577 -5.0547577  5.0547577   288.1133  215.83286)"/>
  <circle r="0.5"
          stroke="none" fill="#4b3e5b" fill-rule="nonzero"
          transform="matrix(-5.0104547 -5.0986757 -5.0986757  5.0104547  286.59687  214.31644)"/>
  <circle r="0.5"
          stroke="none" fill="#4b3e5b" fill-rule="nonzero"
          transform="matrix(-4.9657701 -5.1422055 -5.1422055  4.9657701  285.09373  212.78683)"/>
  <circle r="0.5"
          stroke="none" fill="#4b3e5b" fill-rule="nonzero"
          transform="matrix(-4.9207074 -5.1853436 -5.1853436  4.9207074    283.604  211.24417)"/>
  <circle r="0.5"
          stroke="none" fill="#4b3e5b" fill-rule="nonzero"
          transform="matrix(-4.8752699 -5.2280869 -5.2280869  4.8752699  282.12779  209.68857)"/>
  <circle r="0.5"
          stroke="none" fill="#4b3e5b" fill-rule="nonzero"
          transform="matrix(-4.8294612 -5.2704321 -5.2704321  4.8294612  280.66521  208.12014)"/>
  <circle r="0.5"
          stroke="none" fill="#4b3e5b" fill-rule="nonzero"
          transform="matrix(-4.7832847 -5.3123759 -5.3123759  4.7832847  279.21637  206.53901)"/>
  <circle r="0.5"
          stroke="none" fill="#4b3e5b" fill-rule="nonzero"
          transform="matrix(-4.7367439 -5.3539151 -5.3539151  4.7367439  277.78138   204.9453)"/>
  <circle r="0.5"
          stroke="none" fill="#4b3e5b" fill-rule="nonzero"
          transform="matrix(-4.6898425 -5.3950466 -5.3950466  4.6898425  276.36036  203.33913)"/>
  <circle r="0.5"
          stroke="none" fill="#4b3e5b" fill-rule="nonzero"
          transform="matrix(-4.6425838 -5.4357672 -5.4357672  4.6425838  274.95341  201.72061)"/>
  <circle r="0.5"
          stroke="none" fill="#4b3e5b" fill-rule="nonzero"
          transform="matrix(-4.5949716 -5.4760739 -5.4760739  4.5949716  273.56063  200.08988)"/>
  <circle r="0.5"
          stroke="none" fill="#4b3e5b" fill-rule="nonzero"
          transform="matrix(-4.5470095 -5.5159636 -5.5159636  4.5470095  272.18214  198.44706)"/>
  <circle r="0.5"
          stroke="none" fill="#4b3e5b" fill-rule="nonzero"
          transform="matrix(-4.4987011 -5.5554332 -5.5554332  4.4987011  270.81804  196.79227)"/>
  <circle r="0.5"
          stroke="none" fill="#4b3e5b" fill-rule="nonzero"
          transform="matrix(-4.4500501 -5.5944798 -5.5944798  4.4500501  269.46843  195.12564)"/>
  <circle r="0.5"
          stroke="none" fill="#4b3e5b" fill-rule="nonzero"
          transform="matrix(-4.4010603 -5.6331003 -5.6331003  4.4010603  268.13341   193.4473)"/>
  <circle r="0.5"
          stroke="none" fill="#4b3e5b" fill-rule="nonzero"
          transform="matrix(-4.3517352 -5.6712918 -5.6712918  4.3517352   266.8131  191.75737)"/>
  <circle r="0.5"
          stroke="none" fill="#4b3e5b" fill-rule="nonzero"
          transform="matrix(-4.3020788 -5.7090514 -5.7090514  4.3020788  265.50757  190.05598)"/>
  <circle r="0.5"
          stroke="none" fill="#4b3e5b" fill-rule="nonzero"
          transform="matrix(-4.2520948 -5.7463763 -5.7463763  4.2520948  264.21695  188.34326)"/>
  <circle r="0.5"
          stroke="none" fill="#4b3e5b" fill-rule="nonzero"
          transform="matrix(-4.2017869 -5.7832635 -5.7832635  4.2017869  262.94132  186.61935)"/>
  <circle r="0.5"
          stroke="none" fill="#4b3e5b" fill-rule="nonzero"
          transform="matrix( -4.151159 -5.8197103 -5.8197103   4.151159  261.68079  184.88437)"/>
  <circle r="0.5"
          stroke="none" fill="#4b3e5b" fill-rule="nonzero"
          transform="matrix(-4.1002151  -5.855714  -5.855714  4.1002151  260.43544  183.13846)"/>
  <circle r="0.5"
          stroke="none" fill="#4b3e5b" fill-rule="nonzero"
          transform="matrix(-4.0489589 -5.8912717 -5.8912717  4.0489589  259.20537  181.38174)"/>
  <circle r="0.5"
          stroke="none" fill="#4b3e5b" fill-rule="nonzero"
          transform="matrix(-3.9973943 -5.9263808 -5.9263808  3.9973943  257.99069  179.61436)"/>
  <circle r="0.5"
          stroke="none" fill="#4b3e5b" fill-rule="nonzero"
          transform="matrix(-3.9455253 -5.9610385 -5.9610385  3.9455253  256.79147  177.83645)"/>
  <circle r="0.5"
          stroke="none" fill="#4b3e5b" fill-rule="nonzero"
          transform="matrix(-3.8933559 -5.9952423 -5.9952423  3.8933559  255.60781  176.04814)"/>
  <circle r="0.5"
          stroke="none" fill="#4b3e5b" fill-rule="nonzero"
          transform="matrix(-3.8408899 -6.0289895 -6.0289895  3.8408899   254.4398  174.24956)"/>
  <circle r="0.5"
          stroke="none" fill="#4b3e5b" fill-rule="nonzero"
          transform="matrix(-3.7881315 -6.0622776 -6.0622776  3.7881315  253.28754  172.44087)"/>
  <circle r="0.5"
          stroke="none" fill="#4b3e5b" fill-rule="nonzero"
          transform="matrix(-3.7350846  -6.095104  -6.095104  3.7350846   252.1511  170.62218)"/>
  <circle r="0.5"
          stroke="none" fill="#4b3e5b" fill-rule="nonzero"
          transform="matrix(-3.6817532 -6.1274663 -6.1274663  3.6817532  251.03057  168.79365)"/>
  <circle r="0.5"
          stroke="none" fill="#4b3e5b" fill-rule="nonzero"
          transform="matrix(-3.6281415 -6.1593619 -6.1593619  3.6281415  249.92605  166.95541)"/>
  <circle r="0.5"
          stroke="none" fill="#4b3e5b" fill-rule="nonzero"
          transform="matrix(-3.5742534 -6.1907885 -6.1907885  3.5742534   248.8376   165.1076)"/>
  <circle r="0.5"
          stroke="none" fill="#4b3e5b" fill-rule="nonzero"
          transform="matrix(-3.5200932 -6.2217436 -6.2217436  3.5200932  247.76533  163.25037)"/>
  <circle r="0.5"
          stroke="none" fill="#4b3e5b" fill-rule="nonzero"
          transform="matrix(-3.4656649  -6.252225  -6.252225  3.4656649   246.7093  161.38384)"/>
  <circle r="0.5"
          stroke="none" fill="#4b3e5b" fill-rule="nonzero"
          transform="matrix(-3.4109727 -6.2822301 -6.2822301  3.4109727   245.6696  159.50818)"/>
  <circle r="0.5"
          stroke="none" fill="#4b3e5b" fill-rule="nonzero"
          transform="matrix(-3.3560207 -6.3117569 -6.3117569  3.3560207  244.64631  157.62351)"/>
  <circle r="0.5"
          stroke="none" fill="#4b3e5b" fill-rule="nonzero"
          transform="matrix(-3.3008131  -6.340803  -6.340803  3.3008131   243.6395  155.72998)"/>
  <circle r="0.5"
          stroke="none" fill="#4b3e5b" fill-rule="nonzero"
          transform="matrix(-3.2453542 -6.3693662 -6.3693662  3.2453542  242.64926  153.82774)"/>
  <circle r="0.5"
          stroke="none" fill="#4b3e5b" fill-rule="nonzero"
          transform="matrix(-3.1896481 -6.3974444 -6.3974444  3.1896481  241.67565  151.91693)"/>
  <circle r="0.5"
          stroke="none" fill="#4b3e5b" fill-rule="nonzero"
          transform="matrix(-3.1336991 -6.4250354 -6.4250354  3.1336991  240.71876   149.9977)"/>
  <circle r="0.5"
          stroke="none" fill="#4b3e5b" fill-rule="nonzero"
          transform="matrix(-3.0775115 -6.4521371 -6.4521371  3.0775115  239.77865  148.07019)"/>
  <circle r="0.5"
          stroke="none" fill="#4b3e5b" fill-rule="nonzero"
          transform="matrix(-3.0210895 -6.4787474 -6.4787474  3.0210895  238.85539  146.13454)"/>
  <circle r="0.5"
          stroke="none" fill="#4b3e5b" fill-rule="nonzero"
          transform="matrix(-2.9644375 -6.5048644 -6.5048644  2.9644375  237.94907  144.19092)"/>
  <circle r="0.5"
          stroke="none" fill="#4b3e5b" fill-rule="nonzero"
          transform="matrix(-2.9075597 -6.5304859 -6.5304859  2.9075597  237.05974  142.23946)"/>
  <circle r="0.5"
          stroke="none" fill="#4b3e5b" fill-rule="nonzero"
          transform="matrix(-2.8504604 -6.5556102 -6.5556102  2.8504604  236.18747  140.28032)"/>
  <circle r="0.5"
          stroke="none" fill="#4b3e5b" fill-rule="nonzero"
          transform="matrix(-2.7931441 -6.5802352 -6.5802352  2.7931441  235.33233  138.31363)"/>
  <circle r="0.5"
          stroke="none" fill="#4b3e5b" fill-rule="nonzero"
          transform="matrix(-2.7356151 -6.6043592 -6.6043592  2.7356151  234.49439  136.33956)"/>
  <circle r="0.5"
          stroke="none" fill="#4b3e5b" fill-rule="nonzero"
          transform="matrix(-2.6778778 -6.6279801 -6.6279801  2.6778778   233.6737  134.35825)"/>
  <circle r="0.5"
          stroke="none" fill="#4b3e5b" fill-rule="nonzero"
          transform="matrix(-2.6199365 -6.6510963 -6.6510963  2.6199365  232.87034  132.36986)"/>
  <circle r="0.5"
          stroke="none" fill="#4b3e5b" fill-rule="nonzero"
          transform="matrix(-2.5617957 -6.6737061 -6.6737061  2.5617957  232.08436  130.37453)"/>
  <circle r="0.5"
          stroke="none" fill="#4b3e5b" fill-rule="nonzero"
          transform="matrix(-2.5034599 -6.6958075 -6.6958075  2.5034599  231.31582  128.37242)"/>
  <circle r="0.5"
          stroke="none" fill="#4b3e5b" fill-rule="nonzero"
          transform="matrix(-2.4449333 -6.7173991 -6.7173991  2.4449333  230.56478  126.36368)"/>
  <circle r="0.5"
          stroke="none" fill="#4b3e5b" fill-rule="nonzero"
          transform="matrix(-2.3862206 -6.7384791 -6.7384791  2.3862206   229.8313  124.34846)"/>
  <circle r="0.5"
          stroke="none" fill="#4b3e5b" fill-rule="nonzero"
          transform="matrix(-2.3273262  -6.759046  -6.759046  2.3273262  229.11544  122.32691)"/>
  <circle r="0.5"
          stroke="none" fill="#4b3e5b" fill-rule="nonzero"
          transform="matrix(-2.2682545 -6.7790981 -6.7790981  2.2682545  228.41724   120.2992)"/>
  <circle r="0.5"
          stroke="none" fill="#4b3e5b" fill-rule="nonzero"
          transform="matrix(-2.2090101  -6.798634  -6.798634  2.2090101  227.73676  118.26547)"/>
  <circle r="0.5"
          stroke="none" fill="#4b3e5b" fill-rule="nonzero"
          transform="matrix(-2.1495975 -6.8176521 -6.8176521  2.1495975  227.07406  116.22588)"/>
  <circle r="0.5"
          stroke="none" fill="#4b3e5b" fill-rule="nonzero"
          transform="matrix(-2.0900211 -6.8361511 -6.8361511  2.0900211  226.42918  114.18058)"/>
  <circle r="0.5"
          stroke="none" fill="#4b3e5b" fill-rule="nonzero"
          transform="matrix(-2.0302856 -6.8541294 -6.8541294  2.0302856  225.80217  112.12974)"/>
  <circle r="0.5"
          stroke="none" fill="#4b3e5b" fill-rule="nonzero"
          transform="matrix(-1.9703955 -6.8715858 -6.8715858  1.9703955  225.19309   110.0735)"/>
  <circle r="0.5"
          stroke="none" fill="#4b3e5b" fill-rule="nonzero"
          transform="matrix(-1.9103554 -6.8885189 -6.8885189  1.9103554  224.60197  108.01202)"/>
  <circle r="0.5"
          stroke="none" fill="#4b3e5b" fill-rule="nonzero"
          transform="matrix(-1.8501697 -6.9049274 -6.9049274  1.8501697  224.02886  105.94547)"/>
  <circle r="0.5"
          stroke="none" fill="#4b3e5b" fill-rule="nonzero"
          transform="matrix(-1.7898432   -6.92081   -6.92081  1.7898432  223.47381  103.87399)"/>
  <circle r="0.5"
          stroke="none" fill="#4b3e5b" fill-rule="nonzero"
          transform="matrix(-1.7293803 -6.9361656 -6.9361656  1.7293803  222.93686  101.79775)"/>
  <circle r="0.5"
          stroke="none" fill="#4b3e5b" fill-rule="nonzero"
          transform="matrix(-1.6687858  -6.950993  -6.950993  1.6687858  222.41804  99.716898)"/>
  <circle r="0.5"
          stroke="none" fill="#4b3e5b" fill-rule="nonzero"
          transform="matrix(-1.6080641 -6.9652911 -6.9652911  1.6080641  221.91741    97.6316)"/>
  <circle r="0.5"
          stroke="none" fill="#4b3e5b" fill-rule="nonzero"
          transform="matrix(-1.5472201 -6.9790587 -6.9790587  1.5472201  221.43499  95.542013)"/>
  <circle r="0.5"
          stroke="none" fill="#4b3e5b" fill-rule="nonzero"
          transform="matrix(-1.4862581 -6.9922948 -6.9922948  1.4862581  220.97082  93.448295)"/>
  <circle r="0.5"
          stroke="none" fill="#4b3e5b" fill-rule="nonzero"
          transform="matrix( -1.425183 -7.0049984 -7.0049984   1.425183  220.52495  91.350607)"/>
  <circle r="0.5"
          stroke="none" fill="#4b3e5b" fill-rule="nonzero"
          transform="matrix(-1.3639994 -7.0171686 -7.0171686  1.3639994  220.09739  89.249107)"/>
  <circle r="0.5"
          stroke="none" fill="#4b3e5b" fill-rule="nonzero"
          transform="matrix(-1.3027119 -7.0288044 -7.0288044  1.3027119  219.68819  87.143957)"/>
  <circle r="0.5"
          stroke="none" fill="#4b3e5b" fill-rule="nonzero"
          transform="matrix(-1.2413252  -7.039905  -7.039905  1.2413252  219.29738  85.035315)"/>
  <circle r="0.5"
          stroke="none" fill="#4b3e5b" fill-rule="nonzero"
          transform="matrix(-1.1798439 -7.0504694 -7.0504694  1.1798439  218.92498  82.923344)"/>
  <circle r="0.5"
          stroke="none" fill="#4b3e5b" fill-rule="nonzero"
          transform="matrix(-1.1182728 -7.0604969 -7.0604969  1.1182728  218.57103  80.808203)"/>
  <circle r="0.5"
          stroke="none" fill="#4b3e5b" fill-rule="nonzero"
          transform="matrix(-1.0566166 -7.0699867 -7.0699867  1.0566166  218.23554  78.690054)"/>
  <circle r="0.5"
          stroke="none" fill="#4b3e5b" fill-rule="nonzero"
          transform="matrix(-0.99487986 -7.0789381 -7.0789381 0.99487986  217.91856  76.569058)"/>
  <circle r="0.5"
          stroke="none" fill="#4b3e5b" fill-rule="nonzero"
          transform="matrix(-0.93306738 -7.0873504 -7.0873504 0.93306738   217.6201  74.445377)"/>
  <circle r="0.5"
          stroke="none" fill="#4b3e5b" fill-rule="nonzero"
          transform="matrix(-0.87118383 -7.0952229 -7.0952229 0.87118383  217.34018  72.319172)"/>
  <circle r="0.5"
          stroke="none" fill="#4b3e5b" fill-rule="nonzero"
          transform="matrix(-0.80923395 -7.1025552 -7.1025552 0.80923395  217.07882  70.190605)"/>
  <circle r="0.5"
          stroke="none" fill="#4b3e5b" fill-rule="nonzero"
          transform="matrix(-0.74722243 -7.1093466 -7.1093466 0.74722243  216.83605  68.059838)"/>
  <circle r="0.5"
          stroke="none" fill="#4b3e5b" fill-rule="nonzero"
          transform="matrix(-0.68515402 -7.1155965 -7.1155965 0.68515402  216.61188  65.927034)"/>
  <circle r="0.5"
          stroke="none" fill="#4b3e5b" fill-rule="nonzero"
          transform="matrix(-0.62303342 -7.1213046 -7.1213046 0.62303342  216.40634  63.792355)"/>
  <circle r="0.5"
          stroke="none" fill="#4b3e5b" fill-rule="nonzero"
          transform="matrix(-0.56086538 -7.1264704 -7.1264704 0.56086538  216.21943  61.655964)"/>
  <circle r="0.5"
          stroke="none" fill="#4b3e5b" fill-rule="nonzero"
          transform="matrix(-0.49865463 -7.1310934 -7.1310934 0.49865463  216.05117  59.518023)"/>
  <circle r="0.5"
          stroke="none" fill="#4b3e5b" fill-rule="nonzero"
          transform="matrix(-0.4364059 -7.1351734 -7.1351734  0.4364059  215.90157  57.378695)"/>
  <circle r="0.5"
          stroke="none" fill="#4b3e5b" fill-rule="nonzero"
          transform="matrix(-0.37412394 -7.1387101 -7.1387101 0.37412394  215.77065  55.238143)"/>
  <circle r="0.5"
          stroke="none" fill="#4b3e5b" fill-rule="nonzero"
          transform="matrix(-0.31181349  -7.141703  -7.141703 0.31181349  215.65841   53.09653)"/>
  <circle r="0.5"
          stroke="none" fill="#4b3e5b" fill-rule="nonzero"
          transform="matrix(-0.24947929 -7.1441522 -7.1441522 0.24947929  215.56487  50.954019)"/>
  <circle r="0.5"
          stroke="none" fill="#4b3e5b" fill-rule="nonzero"
          transform="matrix(-0.18712609 -7.1460572 -7.1460572 0.18712609  215.49002  48.810773)"/>
  <circle r="0.5"
          stroke="none" fill="#4b3e5b" fill-rule="nonzero"
          transform="matrix(-0.12475865 -7.1474181 -7.1474181 0.12475865  215.43389  46.666956)"/>
  <circle r="0.5"
          stroke="none" fill="#4b3e5b" fill-rule="nonzero"
          transform="matrix(-0.062381699 -7.1482346 -7.1482346 0.062381699  215.39646   44.52273)"/>
  <circle r="0.5"
          stroke="none" fill="#4b3e5b" fill-rule="nonzero"
          transform="matrix(1.1532635e-15 -7.1485068 -7.1485068 -1.1532635e-15  215.37774   42.37826)"/>
  <circle r="0.5"
          stroke="none" fill="#4b3e5b" fill-rule="nonzero"
          transform="matrix(0.062381699 -7.1482346 -7.1482346 -0.062381699  215.37774  40.233708)"/>
  <circle r="0.5"
          stroke="none" fill="#4b3e5b" fill-rule="nonzero"
          transform="matrix(0.12475865 -7.1474181 -7.1474181 -0.12475865  215.39646  38.089238)"/>
  <circle r="0.5"
          stroke="none" fill="#4b3e5b" fill-rule="nonzero"
          transform="matrix(0.18712609 -7.1460572 -7.1460572 -0.18712609  215.43389  35.945012)"/>
  <circle r="0.5"
          stroke="none" fill="#4b3e5b" fill-rule="nonzero"
          transform="matrix(0.24947929 -7.1441522 -7.1441522 -0.24947929  215.49002  33.801195)"/>
  <circle r="0.5"
          stroke="none" fill="#4b3e5b" fill-rule="nonzero"
          transform="matrix(0.31181349  -7.141703  -7.141703 -0.31181349  215.56487  31.657949)"/>
  <circle r="0.5"
          stroke="none" fill="#4b3e5b" fill-rule="nonzero"
          transform="matrix(0.37412394 -7.1387101 -7.1387101 -0.37412394  215.65841  29.515438)"/>
  <circle r="0.5"
          stroke="none" fill="#4b3e5b" fill-rule="nonzero"
          transform="matrix( 0.4364059 -7.1351734 -7.1351734 -0.4364059  215.77065  27.373825)"/>
  <circle r="0.5"
          stroke="none" fill="#4b3e5b" fill-rule="nonzero"
          transform="matrix(0.49865463 -7.1310934 -7.1310934 -0.49865463  215.90157  25.233273)"/>
  <circle r="0.5"
          stroke="none" fill="#4b3e5b" fill-rule="nonzero"
          transform="matrix(0.56086538 -7.1264704 -7.1264704 -0.56086538  216.05117  23.093945)"/>
  <circle r="0.5"
          stroke="none" fill="#4b3e5b" fill-rule="nonzero"
          transform="matrix(0.62303342 -7.1213046 -7.1213046 -0.62303342  216.21943  20.956004)"/>
  <circle r="0.5"
          stroke="none" fill="#4b3e5b" fill-rule="nonzero"
          transform="matrix(0.68515402 -7.1155965 -7.1155965 -0.68515402  216.40634  18.819613)"/>
  <circle r="0.5"
          stroke="none" fill="#4b3e5b" fill-rule="nonzero"
          transform="matrix(0.74722243 -7.1093466 -7.1093466 -0.74722243  216.61188  16.684934)"/>
  <circle r="0.5"
          stroke="none" fill="#4b3e5b" fill-rule="nonzero"
          transform="matrix(-5.8912717 -4.0489589  4.0489589 -5.8912717  265.48534  135.47258)"/>
  <circle r="0.5"
          stroke="none" fill="#4b3e5b" fill-rule="nonzero"
          transform="matrix(-5.9263808 -3.9973943  3.9973943 -5.9263808  263.71796  134.25789)"/>
  <circle r="0.5"
          stroke="none" fill="#4b3e5b" fill-rule="nonzero"
          transform="matrix(-5.9610385 -3.9455253  3.9455253 -5.9610385  261.94004  133.05868)"/>
  <circle r="0.5"
          stroke="none" fill="#4b3e5b" fill-rule="nonzero"
          transform="matrix(-5.9952423 -3.8933559  3.8933559 -5.9952423  260.15173  131.87502)"/>
  <circle r="0.5"
          stroke="none" fill="#4b3e5b" fill-rule="nonzero"
          transform="matrix(-6.0289895 -3.8408899  3.8408899 -6.0289895  258.35316  130.70701)"/>
  <circle r="0.5"
          stroke="none" fill="#4b3e5b" fill-rule="nonzero"
          transform="matrix(-6.0622776 -3.7881315  3.7881315 -6.0622776  256.54446  129.55474)"/>
  <circle r="0.5"
          stroke="none" fill="#4b3e5b" fill-rule="nonzero"
          transform="matrix( -6.095104 -3.7350846  3.7350846  -6.095104  254.72578   128.4183)"/>
  <circle r="0.5"
          stroke="none" fill="#4b3e5b" fill-rule="nonzero"
          transform="matrix(-6.1274663 -3.6817532  3.6817532 -6.1274663  252.89725  127.29778)"/>
  <circle r="0.5"
          stroke="none" fill="#4b3e5b" fill-rule="nonzero"
          transform="matrix(-6.1593619 -3.6281415  3.6281415 -6.1593619  251.05901  126.19325)"/>
  <circle r="0.5"
          stroke="none" fill="#4b3e5b" fill-rule="nonzero"
          transform="matrix(-6.1907885 -3.5742534  3.5742534 -6.1907885   249.2112  125.10481)"/>
  <circle r="0.5"
          stroke="none" fill="#4b3e5b" fill-rule="nonzero"
          transform="matrix(-6.2217436 -3.5200932  3.5200932 -6.2217436  247.35396  124.03253)"/>
  <circle r="0.5"
          stroke="none" fill="#4b3e5b" fill-rule="nonzero"
          transform="matrix( -6.252225 -3.4656649  3.4656649  -6.252225  245.48744  122.97651)"/>
  <circle r="0.5"
          stroke="none" fill="#4b3e5b" fill-rule="nonzero"
          transform="matrix(-6.2822301 -3.4109727  3.4109727 -6.2822301  243.61177  121.93681)"/>
  <circle r="0.5"
          stroke="none" fill="#4b3e5b" fill-rule="nonzero"
          transform="matrix(-6.3117569 -3.3560207  3.3560207 -6.3117569   241.7271  120.91352)"/>
  <circle r="0.5"
          stroke="none" fill="#4b3e5b" fill-rule="nonzero"
          transform="matrix( -6.340803 -3.3008131  3.3008131  -6.340803  239.83358  119.90671)"/>
  <circle r="0.5"
          stroke="none" fill="#4b3e5b" fill-rule="nonzero"
          transform="matrix(-6.3693662 -3.2453542  3.2453542 -6.3693662  237.93134  118.91647)"/>
  <circle r="0.5"
          stroke="none" fill="#4b3e5b" fill-rule="nonzero"
          transform="matrix(-6.3974444 -3.1896481  3.1896481 -6.3974444  236.02053  117.94286)"/>
  <circle r="0.5"
          stroke="none" fill="#4b3e5b" fill-rule="nonzero"
          transform="matrix(-6.4250354 -3.1336991  3.1336991 -6.4250354  234.10129  116.98596)"/>
  <circle r="0.5"
          stroke="none" fill="#4b3e5b" fill-rule="nonzero"
          transform="matrix(-6.4521371 -3.0775115  3.0775115 -6.4521371  232.17378  116.04585)"/>
  <circle r="0.5"
          stroke="none" fill="#4b3e5b" fill-rule="nonzero"
          transform="matrix(-6.4787474 -3.0210895  3.0210895 -6.4787474  230.23814   115.1226)"/>
  <circle r="0.5"
          stroke="none" fill="#4b3e5b" fill-rule="nonzero"
          transform="matrix(-6.5048644 -2.9644375  2.9644375 -6.5048644  228.29452  114.21627)"/>
  <circle r="0.5"
          stroke="none" fill="#4b3e5b" fill-rule="nonzero"
          transform="matrix(-6.5304859 -2.9075597  2.9075597 -6.5304859  226.34306  113.32694)"/>
  <circle r="0.5"
          stroke="none" fill="#4b3e5b" fill-rule="nonzero"
          transform="matrix(-6.5556102 -2.8504604  2.8504604 -6.5556102  224.38391  112.45468)"/>
  <circle r="0.5"
          stroke="none" fill="#4b3e5b" fill-rule="nonzero"
          transform="matrix(-6.5802352 -2.7931441  2.7931441 -6.5802352  222.41723  111.59954)"/>
  <circle r="0.5"
          stroke="none" fill="#4b3e5b" fill-rule="nonzero"
          transform="matrix(-6.6043592 -2.7356151  2.7356151 -6.6043592  220.44316  110.76159)"/>
  <circle r="0.5"
          stroke="none" fill="#4b3e5b" fill-rule="nonzero"
          transform="matrix(-6.6279801 -2.6778778  2.6778778 -6.6279801  218.46185  109.94091)"/>
  <circle r="0.5"
          stroke="none" fill="#4b3e5b" fill-rule="nonzero"
          transform="matrix(-6.6510963 -2.6199365  2.6199365 -6.6510963  216.47346  109.13755)"/>
  <circle r="0.5"
          stroke="none" fill="#4b3e5b" fill-rule="nonzero"
          transform="matrix(-6.6737061 -2.5617957  2.5617957 -6.6737061  214.47813  108.35157)"/>
  <circle r="0.5"
          stroke="none" fill="#4b3e5b" fill-rule="nonzero"
          transform="matrix(-6.6958075 -2.5034599  2.5034599 -6.6958075  212.47602  107.58303)"/>
  <circle r="0.5"
          stroke="none" fill="#4b3e5b" fill-rule="nonzero"
          transform="matrix(-6.7173991 -2.4449333  2.4449333 -6.7173991  210.46727  106.83199)"/>
  <circle r="0.5"
          stroke="none" fill="#4b3e5b" fill-rule="nonzero"
          transform="matrix(-6.7384791 -2.3862206  2.3862206 -6.7384791  208.45205  106.09851)"/>
  <circle r="0.5"
          stroke="none" fill="#4b3e5b" fill-rule="nonzero"
          transform="matrix( -6.759046 -2.3273262  2.3273262  -6.759046  206.43051  105.38264)"/>
  <circle r="0.5"
          stroke="none" fill="#4b3e5b" fill-rule="nonzero"
          transform="matrix(-6.7790981 -2.2682545  2.2682545 -6.7790981   204.4028  104.68444)"/>
  <circle r="0.5"
          stroke="none" fill="#4b3e5b" fill-rule="nonzero"
          transform="matrix( -6.798634 -2.2090101  2.2090101  -6.798634  202.36907  104.00397)"/>
  <circle r="0.5"
          stroke="none" fill="#4b3e5b" fill-rule="nonzero"
          transform="matrix(-6.8176521 -2.1495975  2.1495975 -6.8176521  200.32948  103.34127)"/>
  <circle r="0.5"
          stroke="none" fill="#4b3e5b" fill-rule="nonzero"
          transform="matrix(-6.8361511 -2.0900211  2.0900211 -6.8361511  198.28418  102.69639)"/>
  <circle r="0.5"
          stroke="none" fill="#4b3e5b" fill-rule="nonzero"
          transform="matrix(-6.8541294 -2.0302856  2.0302856 -6.8541294  196.23334  102.06938)"/>
  <circle r="0.5"
          stroke="none" fill="#4b3e5b" fill-rule="nonzero"
          transform="matrix(-6.8715858 -1.9703955  1.9703955 -6.8715858   194.1771  101.46029)"/>
  <circle r="0.5"
          stroke="none" fill="#4b3e5b" fill-rule="nonzero"
          transform="matrix(-6.8885189 -1.9103554  1.9103554 -6.8885189  192.11562  100.86918)"/>
  <circle r="0.5"
          stroke="none" fill="#4b3e5b" fill-rule="nonzero"
          transform="matrix(-6.9049274 -1.8501697  1.8501697 -6.9049274  190.04906  100.29607)"/>
  <circle r="0.5"
          stroke="none" fill="#4b3e5b" fill-rule="nonzero"
          transform="matrix(  -6.92081 -1.7898432  1.7898432   -6.92081  187.97759  99.741018)"/>
  <circle r="0.5"
          stroke="none" fill="#4b3e5b" fill-rule="nonzero"
          transform="matrix(-6.9361656 -1.7293803  1.7293803 -6.9361656  185.90134  99.204065)"/>
  <circle r="0.5"
          stroke="none" fill="#4b3e5b" fill-rule="nonzero"
          transform="matrix( -6.950993 -1.6687858  1.6687858  -6.950993  183.82049  98.685251)"/>
  <circle r="0.5"
          stroke="none" fill="#4b3e5b" fill-rule="nonzero"
          transform="matrix(-6.9652911 -1.6080641  1.6080641 -6.9652911   181.7352  98.184615)"/>
  <circle r="0.5"
          stroke="none" fill="#4b3e5b" fill-rule="nonzero"
          transform="matrix(-6.9790587 -1.5472201  1.5472201 -6.9790587  179.64561  97.702196)"/>
  <circle r="0.5"
          stroke="none" fill="#4b3e5b" fill-rule="nonzero"
          transform="matrix(-6.9922948 -1.4862581  1.4862581 -6.9922948  177.55189   97.23803)"/>
  <circle r="0.5"
          stroke="none" fill="#4b3e5b" fill-rule="nonzero"
          transform="matrix(-7.0049984  -1.425183   1.425183 -7.0049984   175.4542  96.792152)"/>
  <circle r="0.5"
          stroke="none" fill="#4b3e5b" fill-rule="nonzero"
          transform="matrix(-7.0171686 -1.3639994  1.3639994 -7.0171686   173.3527  96.364597)"/>
  <circle r="0.5"
          stroke="none" fill="#4b3e5b" fill-rule="nonzero"
          transform="matrix(-7.0288044 -1.3027119  1.3027119 -7.0288044  171.24755  95.955397)"/>
  <circle r="0.5"
          stroke="none" fill="#4b3e5b" fill-rule="nonzero"
          transform="matrix( -7.039905 -1.2413252  1.2413252  -7.039905  169.13891  95.564584)"/>
  <circle r="0.5"
          stroke="none" fill="#4b3e5b" fill-rule="nonzero"
          transform="matrix(-7.0504694 -1.1798439  1.1798439 -7.0504694  167.02694  95.192186)"/>
  <circle r="0.5"
          stroke="none" fill="#4b3e5b" fill-rule="nonzero"
          transform="matrix(-7.0604969 -1.1182728  1.1182728 -7.0604969   164.9118  94.838233)"/>
  <circle r="0.5"
          stroke="none" fill="#4b3e5b" fill-rule="nonzero"
          transform="matrix(-7.0699867 -1.0566166  1.0566166 -7.0699867  162.79365  94.502751)"/>
  <circle r="0.5"
          stroke="none" fill="#4b3e5b" fill-rule="nonzero"
          transform="matrix(-7.0789381 -0.99487986 0.99487986 -7.0789381  160.67265  94.185766)"/>
  <circle r="0.5"
          stroke="none" fill="#4b3e5b" fill-rule="nonzero"
          transform="matrix(-7.0873504 -0.93306738 0.93306738 -7.0873504  158.54897  93.887302)"/>
  <circle r="0.5"
          stroke="none" fill="#4b3e5b" fill-rule="nonzero"
          transform="matrix(-7.0952229 -0.87118383 0.87118383 -7.0952229  156.42277  93.607382)"/>
  <circle r="0.5"
          stroke="none" fill="#4b3e5b" fill-rule="nonzero"
          transform="matrix(-7.1025552 -0.80923395 0.80923395 -7.1025552   154.2942  93.346027)"/>
  <circle r="0.5"
          stroke="none" fill="#4b3e5b" fill-rule="nonzero"
          transform="matrix(-7.1093466 -0.74722243 0.74722243 -7.1093466  152.16343  93.103257)"/>
  <circle r="0.5"
          stroke="none" fill="#4b3e5b" fill-rule="nonzero"
          transform="matrix(-7.1155965 -0.68515402 0.68515402 -7.1155965  150.03063   92.87909)"/>
  <circle r="0.5"
          stroke="none" fill="#4b3e5b" fill-rule="nonzero"
          transform="matrix(-7.1213046 -0.62303342 0.62303342 -7.1213046  147.89595  92.673544)"/>
  <circle r="0.5"
          stroke="none" fill="#4b3e5b" fill-rule="nonzero"
          transform="matrix(-7.1264704 -0.56086538 0.56086538 -7.1264704  145.75956  92.486634)"/>
  <circle r="0.5"
          stroke="none" fill="#4b3e5b" fill-rule="nonzero"
          transform="matrix(-7.1310934 -0.49865463 0.49865463 -7.1310934  143.62162  92.318374)"/>
  <circle r="0.5"
          stroke="none" fill="#4b3e5b" fill-rule="nonzero"
          transform="matrix(-7.1351734 -0.4364059  0.4364059 -7.1351734  141.48229  92.168778)"/>
  <circle r="0.5"
          stroke="none" fill="#4b3e5b" fill-rule="nonzero"
          transform="matrix(-7.1387101 -0.37412394 0.37412394 -7.1387101  139.34174  92.037856)"/>
  <circle r="0.5"
          stroke="none" fill="#4b3e5b" fill-rule="nonzero"
          transform="matrix( -7.141703 -0.31181349 0.31181349  -7.141703  137.20013  91.925619)"/>
  <circle r="0.5"
          stroke="none" fill="#4b3e5b" fill-rule="nonzero"
          transform="matrix(-7.1441522 -0.24947929 0.24947929 -7.1441522  135.05761  91.832075)"/>
  <circle r="0.5"
          stroke="none" fill="#4b3e5b" fill-rule="nonzero"
          transform="matrix(-7.1460572 -0.18712609 0.18712609 -7.1460572  132.91437  91.757231)"/>
  <circle r="0.5"
          stroke="none" fill="#4b3e5b" fill-rule="nonzero"
          transform="matrix(-7.1474181 -0.12475865 0.12475865 -7.1474181  130.77055  91.701093)"/>
  <circle r="0.5"
          stroke="none" fill="#4b3e5b" fill-rule="nonzero"
          transform="matrix(-7.1482346 -0.062381699 0.062381699 -7.1482346  128.62633  91.663666)"/>
  <circle r="0.5"
          stroke="none" fill="#4b3e5b" fill-rule="nonzero"
          transform="matrix(-7.1485068 2.1701195e-15 -2.1701195e-15 -7.1485068  126.48186  91.644951)"/>
  <circle r="0.5"
          stroke="none" fill="#4b3e5b" fill-rule="nonzero"
          transform="matrix(-7.1482346 0.062381699 -0.062381699 -7.1482346   124.3373  91.644951)"/>
  <circle r="0.5"
          stroke="none" fill="#4b3e5b" fill-rule="nonzero"
          transform="matrix(-7.1474181 0.12475865 -0.12475865 -7.1474181  122.19283  91.663666)"/>
  <circle r="0.5"
          stroke="none" fill="#4b3e5b" fill-rule="nonzero"
          transform="matrix(-7.1460572 0.18712609 -0.18712609 -7.1460572  120.04861  91.701093)"/>
  <circle r="0.5"
          stroke="none" fill="#4b3e5b" fill-rule="nonzero"
          transform="matrix(-7.1441522 0.24947929 -0.24947929 -7.1441522  117.90479  91.757231)"/>
  <circle r="0.5"
          stroke="none" fill="#4b3e5b" fill-rule="nonzero"
          transform="matrix( -7.141703 0.31181349 -0.31181349  -7.141703  115.76155  91.832075)"/>
  <circle r="0.5"
          stroke="none" fill="#4b3e5b" fill-rule="nonzero"
          transform="matrix(-7.1387101 0.37412394 -0.37412394 -7.1387101  113.61903  91.925619)"/>
  <circle r="0.5"
          stroke="none" fill="#4b3e5b" fill-rule="nonzero"
          transform="matrix(-7.1351734  0.4364059 -0.4364059 -7.1351734  111.47742  92.037856)"/>
  <circle r="0.5"
          stroke="none" fill="#4b3e5b" fill-rule="nonzero"
          transform="matrix(-7.1310934 0.49865463 -0.49865463 -7.1310934  109.33687  92.168778)"/>
  <circle r="0.5"
          stroke="none" fill="#4b3e5b" fill-rule="nonzero"
          transform="matrix(-7.1264704 0.56086538 -0.56086538 -7.1264704  107.19754  92.318374)"/>
  <circle r="0.5"
          stroke="none" fill="#4b3e5b" fill-rule="nonzero"
          transform="matrix(-7.1213046 0.62303342 -0.62303342 -7.1213046   105.0596  92.486634)"/>
  <circle r="0.5"
          stroke="none" fill="#4b3e5b" fill-rule="nonzero"
          transform="matrix(-7.1155965 0.68515402 -0.68515402 -7.1155965  102.92321  92.673544)"/>
  <circle r="0.5"
          stroke="none" fill="#4b3e5b" fill-rule="nonzero"
          transform="matrix(-7.1093466 0.74722243 -0.74722243 -7.1093466  100.78853   92.87909)"/>
  <circle r="0.5"
          stroke="none" fill="#4b3e5b" fill-rule="nonzero"
          transform="matrix(-7.1025552 0.80923395 -0.80923395 -7.1025552  98.655726  93.103257)"/>
  <circle r="0.5"
          stroke="none" fill="#4b3e5b" fill-rule="nonzero"
          transform="matrix(-7.0952229 0.87118383 -0.87118383 -7.0952229  96.524959  93.346027)"/>
  <circle r="0.5"
          stroke="none" fill="#4b3e5b" fill-rule="nonzero"
          transform="matrix(-7.0873504 0.93306738 -0.93306738 -7.0873504  94.396392  93.607382)"/>
  <circle r="0.5"
          stroke="none" fill="#4b3e5b" fill-rule="nonzero"
          transform="matrix(-7.0789381 0.99487986 -0.99487986 -7.0789381  92.270187  93.887302)"/>
  <circle r="0.5"
          stroke="none" fill="#4b3e5b" fill-rule="nonzero"
          transform="matrix(-7.0699867  1.0566166 -1.0566166 -7.0699867  90.146506  94.185766)"/>
  <circle r="0.5"
          stroke="none" fill="#4b3e5b" fill-rule="nonzero"
          transform="matrix(-7.0604969  1.1182728 -1.1182728 -7.0604969   88.02551  94.502751)"/>
  <circle r="0.5"
          stroke="none" fill="#4b3e5b" fill-rule="nonzero"
          transform="matrix(-7.0504694  1.1798439 -1.1798439 -7.0504694  85.907361  94.838233)"/>
  <circle r="0.5"
          stroke="none" fill="#4b3e5b" fill-rule="nonzero"
          transform="matrix( -7.039905  1.2413252 -1.2413252  -7.039905   83.79222  95.192186)"/>
  <circle r="0.5"
          stroke="none" fill="#4b3e5b" fill-rule="nonzero"
          transform="matrix(-7.0288044  1.3027119 -1.3027119 -7.0288044  81.680249  95.564584)"/>
  <circle r="0.5"
          stroke="none" fill="#4b3e5b" fill-rule="nonzero"
          transform="matrix(-7.0171686  1.3639994 -1.3639994 -7.0171686  79.571607  95.955397)"/>
  <circle r="0.5"
          stroke="none" fill="#4b3e5b" fill-rule="nonzero"
          transform="matrix(-7.0049984   1.425183  -1.425183 -7.0049984  77.466457  96.364597)"/>
  <circle r="0.5"
          stroke="none" fill="#4b3e5b" fill-rule="nonzero"
          transform="matrix(-6.9922948  1.4862581 -1.4862581 -6.9922948  75.364957  96.792152)"/>
  <circle r="0.5"
          stroke="none" fill="#4b3e5b" fill-rule="nonzero"
          transform="matrix(-6.9790587  1.5472201 -1.5472201 -6.9790587  73.267269   97.23803)"/>
  <circle r="0.5"
          stroke="none" fill="#4b3e5b" fill-rule="nonzero"
          transform="matrix(-6.9652911  1.6080641 -1.6080641 -6.9652911  71.173551  97.702196)"/>
  <circle r="0.5"
          stroke="none" fill="#4b3e5b" fill-rule="nonzero"
          transform="matrix( -6.950993  1.6687858 -1.6687858  -6.950993  69.083964  98.184615)"/>
  <circle r="0.5"
          stroke="none" fill="#4b3e5b" fill-rule="nonzero"
          transform="matrix(-6.9361656  1.7293803 -1.7293803 -6.9361656  66.998666  98.685251)"/>
  <circle r="0.5"
          stroke="none" fill="#4b3e5b" fill-rule="nonzero"
          transform="matrix(  -6.92081  1.7898432 -1.7898432   -6.92081  64.917816  99.204065)"/>
  <circle r="0.5"
          stroke="none" fill="#4b3e5b" fill-rule="nonzero"
          transform="matrix(-6.9049274  1.8501697 -1.8501697 -6.9049274  62.841573  99.741018)"/>
  <circle r="0.5"
          stroke="none" fill="#4b3e5b" fill-rule="nonzero"
          transform="matrix(-6.8885189  1.9103554 -1.9103554 -6.8885189  60.770095  100.29607)"/>
  <circle r="0.5"
          stroke="none" fill="#4b3e5b" fill-rule="nonzero"
          transform="matrix(-6.8715858  1.9703955 -1.9703955 -6.8715858  58.703539  100.86918)"/>
  <circle r="0.5"
          stroke="none" fill="#4b3e5b" fill-rule="nonzero"
          transform="matrix(-6.8541294  2.0302856 -2.0302856 -6.8541294  56.642063  101.46029)"/>
  <circle r="0.5"
          stroke="none" fill="#4b3e5b" fill-rule="nonzero"
          transform="matrix(-6.8361511  2.0900211 -2.0900211 -6.8361511  54.585825  102.06938)"/>
  <circle r="0.5"
          stroke="none" fill="#4b3e5b" fill-rule="nonzero"
          transform="matrix(-6.8176521  2.1495975 -2.1495975 -6.8176521  52.534979  102.69639)"/>
  <circle r="0.5"
          stroke="none" fill="#4b3e5b" fill-rule="nonzero"
          transform="matrix( -6.798634  2.2090101 -2.2090101  -6.798634  50.489684  103.34127)"/>
  <circle r="0.5"
          stroke="none" fill="#4b3e5b" fill-rule="nonzero"
          transform="matrix(-6.7790981  2.2682545 -2.2682545 -6.7790981  48.450093  104.00397)"/>
  <circle r="0.5"
          stroke="none" fill="#4b3e5b" fill-rule="nonzero"
          transform="matrix( -6.759046  2.3273262 -2.3273262  -6.759046  46.416364  104.68444)"/>
  <circle r="0.5"
          stroke="none" fill="#4b3e5b" fill-rule="nonzero"
          transform="matrix(-6.7384791  2.3862206 -2.3862206 -6.7384791   44.38865  105.38264)"/>
  <circle r="0.5"
          stroke="none" fill="#4b3e5b" fill-rule="nonzero"
          transform="matrix(-6.7173991  2.4449333 -2.4449333 -6.7173991  42.367107  106.09851)"/>
  <circle r="0.5"
          stroke="none" fill="#4b3e5b" fill-rule="nonzero"
          transform="matrix(-6.6958075  2.5034599 -2.5034599 -6.6958075  40.351887  106.83199)"/>
  <circle r="0.5"
          stroke="none" fill="#4b3e5b" fill-rule="nonzero"
          transform="matrix(-6.6737061  2.5617957 -2.5617957 -6.6737061  38.343145  107.58303)"/>
  <circle r="0.5"
          stroke="none" fill="#4b3e5b" fill-rule="nonzero"
          transform="matrix(-6.6510963  2.6199365 -2.6199365 -6.6510963  36.341033  108.35157)"/>
  <circle r="0.5"
          stroke="none" fill="#4b3e5b" fill-rule="nonzero"
          transform="matrix(-6.6279801  2.6778778 -2.6778778 -6.6279801  34.345704  109.13755)"/>
  <circle r="0.5"
          stroke="none" fill="#4b3e5b" fill-rule="nonzero"
          transform="matrix(-6.6043592  2.7356151 -2.7356151 -6.6043592   32.35731  109.94091)"/>
  <circle r="0.5"
          stroke="none" fill="#4b3e5b" fill-rule="nonzero"
          transform="matrix(-6.5802352  2.7931441 -2.7931441 -6.5802352  30.376002  110.76159)"/>
  <circle r="0.5"
          stroke="none" fill="#4b3e5b" fill-rule="nonzero"
          transform="matrix(-6.5556102  2.8504604 -2.8504604 -6.5556102  28.401931  111.59954)"/>
  <circle r="0.5"
          stroke="none" fill="#4b3e5b" fill-rule="nonzero"
          transform="matrix(-6.5304859  2.9075597 -2.9075597 -6.5304859  26.435248  112.45468)"/>
  <circle r="0.5"
          stroke="none" fill="#4b3e5b" fill-rule="nonzero"
          transform="matrix(-6.5048644  2.9644375 -2.9644375 -6.5048644  24.476103  113.32694)"/>
  <circle r="0.5"
          stroke="none" fill="#4b3e5b" fill-rule="nonzero"
          transform="matrix(-6.4787474  3.0210895 -3.0210895 -6.4787474  22.524643  114.21627)"/>
  <circle r="0.5"
          stroke="none" fill="#4b3e5b" fill-rule="nonzero"
          transform="matrix(-6.4521371  3.0775115 -3.0775115 -6.4521371  20.581019   115.1226)"/>
  <circle r="0.5"
          stroke="none" fill="#4b3e5b" fill-rule="nonzero"
          transform="matrix(-6.4250354  3.1336991 -3.1336991 -6.4250354  18.645378  116.04585)"/>
  <circle r="0.5"
          stroke="none" fill="#4b3e5b" fill-rule="nonzero"
          transform="matrix(-6.3974444  3.1896481 -3.1896481 -6.3974444  16.717867  116.98596)"/>
  <circle r="0.5"
          stroke="none" fill="#4b3e5b" fill-rule="nonzero"
          transform="matrix(-6.3693662  3.2453542 -3.2453542 -6.3693662  14.798634  117.94286)"/>
  <circle r="0.5"
          stroke="none" fill="#bcae96" fill-rule="nonzero"
          transform="matrix(-3.9682184e-16 -7.1485068  14.297014 -7.9364369e-16   277.6378  164.78146)"/>
  <circle r="0.5"
          stroke="none" fill="#bcae96" fill-rule="nonzero"
          transform="matrix( 4.2017869 -5.7832635  11.566527  8.4035738  278.32042  162.68057)"/>
  <circle r="0.5"
          stroke="none" fill="#bcae96" fill-rule="nonzero"
          transform="matrix(  6.798634 -2.2090101  4.4180202  13.597268  280.10755  161.38214)"/>
  <circle r="0.5"
          stroke="none" fill="#bcae96" fill-rule="nonzero"
          transform="matrix(  6.798634  2.2090101 -4.4180202  13.597268  282.31656  161.38214)"/>
  <circle r="0.5"
          stroke="none" fill="#bcae96" fill-rule="nonzero"
          transform="matrix( 4.2017869  5.7832635 -11.566527  8.4035738  284.10369  162.68057)"/>
  <circle r="0.5"
          stroke="none" fill="#bcae96" fill-rule="nonzero"
          transform="matrix(         0  7.1485068 -14.297014         -0  284.78631  164.78146)"/>
  <circle r="0.5"
          stroke="none" fill="#bcae96" fill-rule="nonzero"
          transform="matrix(-4.2017869  5.7832635 -11.566527 -8.4035738  284.10369  166.88235)"/>
  <circle r="0.5"
          stroke="none" fill="#bcae96" fill-rule="nonzero"
          transform="matrix( -6.798634  2.2090101 -4.4180202 -13.597268  282.31656  168.18078)"/>
  <circle r="0.5"
          stroke="none" fill="#bcae96" fill-rule="nonzero"
          transform="matrix( -6.798634 -2.2090101  4.4180202 -13.597268  280.10755  168.18078)"/>
  <circle r="0.5"
          stroke="none" fill="#bcae96" fill-rule="nonzero"
          transform="matrix(-4.2017869 -5.7832635  11.566527 -8.4035738  278.32042  166.88235)"/>
  <circle r="0.5"
          stroke="none" fill="#988d8b" fill-rule="nonzero"
          transform="matrix(-5.8912717 -4.0489589  8.0979177 -11.782543  498.84141  143.14844)"/>
  <circle r="0.5"
          stroke="none" fill="#988d8b" fill-rule="nonzero"
          transform="matrix(-2.3862206 -6.7384791  13.476958 -4.7724412  497.49665  141.39591)"/>
  <circle r="0.5"
          stroke="none" fill="#988d8b" fill-rule="nonzero"
          transform="matrix( 2.0302856 -6.8541294  13.708259  4.0605713  497.43882  139.18766)"/>
  <circle r="0.5"
          stroke="none" fill="#988d8b" fill-rule="nonzero"
          transform="matrix( 5.6712918 -4.3517352  8.7034705  11.342584  498.69002  137.36716)"/>
  <circle r="0.5"
          stroke="none" fill="#988d8b" fill-rule="nonzero"
          transform="matrix( 7.1460572 -0.18712609 0.37425219  14.292114  500.77232  136.62977)"/>
  <circle r="0.5"
          stroke="none" fill="#988d8b" fill-rule="nonzero"
          transform="matrix( 5.8912717  4.0489589 -8.0979177  11.782543  502.89036  137.25717)"/>
  <circle r="0.5"
          stroke="none" fill="#988d8b" fill-rule="nonzero"
          transform="matrix( 2.3862206  6.7384791 -13.476958  4.7724412  504.23512  139.00969)"/>
  <circle r="0.5"
          stroke="none" fill="#988d8b" fill-rule="nonzero"
          transform="matrix(-2.0302856  6.8541294 -13.708259 -4.0605713  504.29295  141.21795)"/>
  <circle r="0.5"
          stroke="none" fill="#988d8b" fill-rule="nonzero"
          transform="matrix(-5.6712918  4.3517352 -8.7034705 -11.342584  503.04175  143.03845)"/>
  <circle r="0.5"
          stroke="none" fill="#988d8b" fill-rule="nonzero"
          transform="matrix(-7.1460572 0.18712609 -0.37425219 -14.292114  500.95945  143.77583)"/>
  <circle r="0.5"
          stroke="none" fill="#4b3e5b" fill-rule="nonzero"
          transform="matrix(-6.6737061  2.5617957 -5.1235915 -13.347412  433.15453  146.03499)"/>
  <circle r="0.5"
          stroke="none" fill="#4b3e5b" fill-rule="nonzero"
          transform="matrix(-6.9049274 -1.8501697  3.7003394 -13.809855  430.94855  146.15061)"/>
  <circle r="0.5"
          stroke="none" fill="#4b3e5b" fill-rule="nonzero"
          transform="matrix(-4.4987011 -5.5554332  11.110866 -8.9974022  429.09592  144.94749)"/>
  <circle r="0.5"
          stroke="none" fill="#4b3e5b" fill-rule="nonzero"
          transform="matrix(-0.37412394 -7.1387101   14.27742 -0.74824788  428.30428   142.8852)"/>
  <circle r="0.5"
          stroke="none" fill="#4b3e5b" fill-rule="nonzero"
          transform="matrix( 3.8933559 -5.9952423  11.990485  7.7867117  428.87601  140.75146)"/>
  <circle r="0.5"
          stroke="none" fill="#4b3e5b" fill-rule="nonzero"
          transform="matrix( 6.6737061 -2.5617957  5.1235915  13.347412  430.59274  139.36129)"/>
  <circle r="0.5"
          stroke="none" fill="#4b3e5b" fill-rule="nonzero"
          transform="matrix( 6.9049274  1.8501697 -3.7003394  13.809855  432.79872  139.24568)"/>
  <circle r="0.5"
          stroke="none" fill="#4b3e5b" fill-rule="nonzero"
          transform="matrix( 4.4987011  5.5554332 -11.110866  8.9974022  434.65135  140.44879)"/>
  <circle r="0.5"
          stroke="none" fill="#4b3e5b" fill-rule="nonzero"
          transform="matrix(0.37412394  7.1387101  -14.27742 0.74824788  435.44299  142.51108)"/>
  <circle r="0.5"
          stroke="none" fill="#4b3e5b" fill-rule="nonzero"
          transform="matrix(-3.8933559  5.9952423 -11.990485 -7.7867117  434.87126  144.64482)"/>
  <circle r="0.5"
          stroke="none" fill="#988d8b" fill-rule="nonzero"
          transform="matrix(-1.6687858   6.950993  13.901986  3.3375716  405.27896  203.47302)"/>
  <circle r="0.5"
          stroke="none" fill="#988d8b" fill-rule="nonzero"
          transform="matrix( 2.7356151  6.6043592  13.208718 -5.4712303  405.45228  205.67522)"/>
  <circle r="0.5"
          stroke="none" fill="#988d8b" fill-rule="nonzero"
          transform="matrix(  6.095104  3.7350846  7.4701691 -12.190208  406.88691  207.35496)"/>
  <circle r="0.5"
          stroke="none" fill="#988d8b" fill-rule="nonzero"
          transform="matrix( 7.1264704 -0.56086538 -1.1217308 -14.252941  409.03489  207.87064)"/>
  <circle r="0.5"
          stroke="none" fill="#988d8b" fill-rule="nonzero"
          transform="matrix( 5.4357672 -4.6425838 -9.2851676 -10.871534  411.07575  207.02529)"/>
  <circle r="0.5"
          stroke="none" fill="#988d8b" fill-rule="nonzero"
          transform="matrix( 1.6687858  -6.950993 -13.901986 -3.3375716  412.22995   205.1418)"/>
  <circle r="0.5"
          stroke="none" fill="#988d8b" fill-rule="nonzero"
          transform="matrix(-2.7356151 -6.6043592 -13.208718  5.4712303  412.05664   202.9396)"/>
  <circle r="0.5"
          stroke="none" fill="#988d8b" fill-rule="nonzero"
          transform="matrix( -6.095104 -3.7350846 -7.4701691  12.190208    410.622  201.25986)"/>
  <circle r="0.5"
          stroke="none" fill="#988d8b" fill-rule="nonzero"
          transform="matrix(-7.1264704 0.56086538  1.1217308  14.252941  408.47402  200.74417)"/>
  <circle r="0.5"
          stroke="none" fill="#988d8b" fill-rule="nonzero"
          transform="matrix(-5.4357672  4.6425838  9.2851676  10.871534  406.43316  201.58952)"/>
</svg>
