<?xml version="1.0" standalone="no"?>
<!DOCTYPE svg PUBLIC "-//W3C//DTD SVG 1.1//EN" 
"http://www.w3.org/Graphics/SVG/1.1/DTD/svg11.dtd">
<svg width="532px" height="539px" version="1.1"
     xmlns="http://www.w3.org/2000/svg"  xmlns:xlink="http://www.w3.org/1999/xlink">
  <defs>
    <polygon id="TRIANGLE" points="0,0.57735 -0.5,-0.288675 0.5,-0.288675"/>
  </defs>
  <circle r="0.5"
          stroke="none" fill="#e7cca9" fill-rule="nonzero"
          transform="matrix(5.5799305e-16  -9.112718  -9.112718 -5.5799305e-16  32.462009   283.7005)"/>
  <circle r="0.5"
          stroke="none" fill="#e7cca9" fill-rule="nonzero"
          transform="matrix(0.079522457  -9.112371  -9.112371 -0.079522457  32.462009  280.96668)"/>
  <circle r="0.5"
          stroke="none" fill="#e7cca9" fill-rule="nonzero"
          transform="matrix(0.15903886 -9.1113301 -9.1113301 -0.15903886  32.485866  278.23297)"/>
  <circle r="0.5"
          stroke="none" fill="#e7cca9" fill-rule="nonzero"
          transform="matrix(0.23854315 -9.1095953 -9.1095953 -0.23854315  32.533578  275.49957)"/>
  <circle r="0.5"
          stroke="none" fill="#e7cca9" fill-rule="nonzero"
          transform="matrix(0.31802927 -9.1071668 -9.1071668 -0.31802927  32.605141  272.76669)"/>
  <circle r="0.5"
          stroke="none" fill="#e7cca9" fill-rule="nonzero"
          transform="matrix(0.39749118 -9.1040447 -9.1040447 -0.39749118  32.700549  270.03454)"/>
  <circle r="0.5"
          stroke="none" fill="#e7cca9" fill-rule="nonzero"
          transform="matrix(0.47692281 -9.1002293 -9.1002293 -0.47692281  32.819797  267.30333)"/>
  <circle r="0.5"
          stroke="none" fill="#e7cca9" fill-rule="nonzero"
          transform="matrix(0.55631812 -9.0957209 -9.0957209 -0.55631812  32.962874  264.57326)"/>
  <circle r="0.5"
          stroke="none" fill="#e7cca9" fill-rule="nonzero"
          transform="matrix(0.63567107 -9.0905199 -9.0905199 -0.63567107  33.129769  261.84454)"/>
  <circle r="0.5"
          stroke="none" fill="#e7cca9" fill-rule="nonzero"
          transform="matrix(0.71497561 -9.0846265 -9.0846265 -0.71497561   33.32047  259.11739)"/>
  <circle r="0.5"
          stroke="none" fill="#e7cca9" fill-rule="nonzero"
          transform="matrix( 0.7942257 -9.0780413 -9.0780413 -0.7942257  33.534963    256.392)"/>
  <circle r="0.5"
          stroke="none" fill="#d0d5b7" fill-rule="nonzero"
          transform="matrix( 8.1194912 -4.1370874 -4.1370874 -8.1194912  146.93877  72.967057)"/>
  <circle r="0.5"
          stroke="none" fill="#d0d5b7" fill-rule="nonzero"
          transform="matrix( 8.1552844 -4.0660748 -4.0660748 -8.1552844  149.37462  71.725931)"/>
  <circle r="0.5"
          stroke="none" fill="#d0d5b7" fill-rule="nonzero"
          transform="matrix( 8.1904567 -3.9947526 -3.9947526 -8.1904567   151.8212  70.506108)"/>
  <circle r="0.5"
          stroke="none" fill="#d0d5b7" fill-rule="nonzero"
          transform="matrix( 8.2250052 -3.9231262 -3.9231262 -8.2250052  154.27834  69.307683)"/>
  <circle r="0.5"
          stroke="none" fill="#d0d5b7" fill-rule="nonzero"
          transform="matrix( 8.2589273  -3.851201  -3.851201 -8.2589273  156.74584  68.130745)"/>
  <circle r="0.5"
          stroke="none" fill="#d0d5b7" fill-rule="nonzero"
          transform="matrix( 8.2922204 -3.7789826 -3.7789826 -8.2922204  159.22352  66.975384)"/>
  <circle r="0.5"
          stroke="none" fill="#d0d5b7" fill-rule="nonzero"
          transform="matrix( 8.3248821 -3.7064763 -3.7064763 -8.3248821  161.71119   65.84169)"/>
  <circle r="0.5"
          stroke="none" fill="#d0d5b7" fill-rule="nonzero"
          transform="matrix( 8.3569098 -3.6336878 -3.6336878 -8.3569098  164.20865  64.729747)"/>
  <circle r="0.5"
          stroke="none" fill="#d0d5b7" fill-rule="nonzero"
          transform="matrix( 8.3883011 -3.5606226 -3.5606226 -8.3883011  166.71572   63.63964)"/>
  <circle r="0.5"
          stroke="none" fill="#d0d5b7" fill-rule="nonzero"
          transform="matrix( 8.4190536 -3.4872862 -3.4872862 -8.4190536  169.23222  62.571454)"/>
  <circle r="0.5"
          stroke="none" fill="#d0d5b7" fill-rule="nonzero"
          transform="matrix(  8.449165 -3.4136842 -3.4136842  -8.449165  171.75793  61.525268)"/>
  <circle r="0.5"
          stroke="none" fill="#e7cca9" fill-rule="nonzero"
          transform="matrix( 6.0975985 -6.7720692 -6.7720692 -6.0975985  83.324142  127.27577)"/>
  <circle r="0.5"
          stroke="none" fill="#e7cca9" fill-rule="nonzero"
          transform="matrix(  6.156463 -6.7186004 -6.7186004  -6.156463  85.153422  125.24415)"/>
  <circle r="0.5"
          stroke="none" fill="#e7cca9" fill-rule="nonzero"
          transform="matrix( 6.2148587   -6.66462   -6.66462 -6.2148587  87.000361  123.22857)"/>
  <circle r="0.5"
          stroke="none" fill="#e7cca9" fill-rule="nonzero"
          transform="matrix( 6.2727811 -6.6101321 -6.6101321 -6.2727811  88.864818  121.22918)"/>
  <circle r="0.5"
          stroke="none" fill="#e7cca9" fill-rule="nonzero"
          transform="matrix( 6.3302258 -6.5551407 -6.5551407 -6.3302258  90.746653  119.24614)"/>
  <circle r="0.5"
          stroke="none" fill="#e7cca9" fill-rule="nonzero"
          transform="matrix( 6.3871885 -6.4996502 -6.4996502 -6.3871885   92.64572   117.2796)"/>
  <circle r="0.5"
          stroke="none" fill="#e7cca9" fill-rule="nonzero"
          transform="matrix( 6.4436647 -6.4436647 -6.4436647 -6.4436647  94.561877   115.3297)"/>
  <circle r="0.5"
          stroke="none" fill="#e7cca9" fill-rule="nonzero"
          transform="matrix( 6.4996502 -6.3871885 -6.3871885 -6.4996502  96.494976  113.39661)"/>
  <circle r="0.5"
          stroke="none" fill="#e7cca9" fill-rule="nonzero"
          transform="matrix( 6.5551407 -6.3302258 -6.3302258 -6.5551407  98.444871  111.48045)"/>
  <circle r="0.5"
          stroke="none" fill="#e7cca9" fill-rule="nonzero"
          transform="matrix( 6.6101321 -6.2727811 -6.2727811 -6.6101321  100.41141  109.58138)"/>
  <circle r="0.5"
          stroke="none" fill="#e7cca9" fill-rule="nonzero"
          transform="matrix(   6.66462 -6.2148587 -6.2148587   -6.66462  102.39445  107.69955)"/>
  <circle r="0.5"
          stroke="none" fill="#e7cca9" fill-rule="nonzero"
          transform="matrix( 4.9631419  7.6425684  7.6425684 -4.9631419  447.33575  136.88496)"/>
  <circle r="0.5"
          stroke="none" fill="#e7cca9" fill-rule="nonzero"
          transform="matrix( 4.8962598  7.6855884  7.6855884 -4.8962598  448.82469  139.17773)"/>
  <circle r="0.5"
          stroke="none" fill="#e7cca9" fill-rule="nonzero"
          transform="matrix( 4.8290048  7.7280231  7.7280231 -4.8290048  450.29357   141.4834)"/>
  <circle r="0.5"
          stroke="none" fill="#e7cca9" fill-rule="nonzero"
          transform="matrix( 4.7613821  7.7698694  7.7698694 -4.7613821  451.74227  143.80181)"/>
  <circle r="0.5"
          stroke="none" fill="#e7cca9" fill-rule="nonzero"
          transform="matrix( 4.6933967  7.8111239  7.8111239 -4.6933967  453.17068  146.13277)"/>
  <circle r="0.5"
          stroke="none" fill="#e7cca9" fill-rule="nonzero"
          transform="matrix(  4.625054  7.8517835  7.8517835  -4.625054   454.5787  148.47611)"/>
  <circle r="0.5"
          stroke="none" fill="#e7cca9" fill-rule="nonzero"
          transform="matrix(  4.556359  7.8918453  7.8918453  -4.556359  455.96622  150.83164)"/>
  <circle r="0.5"
          stroke="none" fill="#e7cca9" fill-rule="nonzero"
          transform="matrix(  4.487317   7.931306   7.931306  -4.487317  457.33313   153.1992)"/>
  <circle r="0.5"
          stroke="none" fill="#e7cca9" fill-rule="nonzero"
          transform="matrix( 4.4179333  7.9701627  7.9701627 -4.4179333  458.67932  155.57859)"/>
  <circle r="0.5"
          stroke="none" fill="#e7cca9" fill-rule="nonzero"
          transform="matrix( 4.3482132  8.0084125  8.0084125 -4.3482132   460.0047  157.96964)"/>
  <circle r="0.5"
          stroke="none" fill="#e7cca9" fill-rule="nonzero"
          transform="matrix(  4.278162  8.0460524  8.0460524  -4.278162  461.30916  160.37216)"/>
  <circle r="0.5"
          stroke="none" fill="#ceb564" fill-rule="nonzero"
          transform="matrix(-1.4255432  9.0005253  9.0005253  1.4255432  489.87419  295.77527)"/>
  <circle r="0.5"
          stroke="none" fill="#ceb564" fill-rule="nonzero"
          transform="matrix(-1.5040323  8.9877425  8.9877425  1.5040323  489.44652  298.47543)"/>
  <circle r="0.5"
          stroke="none" fill="#ceb564" fill-rule="nonzero"
          transform="matrix(-1.5824069  8.9742753  8.9742753  1.5824069  488.99531  301.17175)"/>
  <circle r="0.5"
          stroke="none" fill="#ceb564" fill-rule="nonzero"
          transform="matrix( -1.660661  8.9601247  8.9601247   1.660661  488.52059  303.86404)"/>
  <circle r="0.5"
          stroke="none" fill="#ceb564" fill-rule="nonzero"
          transform="matrix(-1.7387886  8.9452917  8.9452917  1.7387886  488.02239  306.55207)"/>
  <circle r="0.5"
          stroke="none" fill="#ceb564" fill-rule="nonzero"
          transform="matrix(-1.8167838  8.9297775  8.9297775  1.8167838  487.50076  309.23566)"/>
  <circle r="0.5"
          stroke="none" fill="#ceb564" fill-rule="nonzero"
          transform="matrix(-1.8946406  8.9135832  8.9135832  1.8946406  486.95572  311.91459)"/>
  <circle r="0.5"
          stroke="none" fill="#ceb564" fill-rule="nonzero"
          transform="matrix(-1.9723532  8.8967102  8.8967102  1.9723532  486.38733  314.58867)"/>
  <circle r="0.5"
          stroke="none" fill="#ceb564" fill-rule="nonzero"
          transform="matrix(-2.0499155  8.8791596  8.8791596  2.0499155  485.79562  317.25768)"/>
  <circle r="0.5"
          stroke="none" fill="#ceb564" fill-rule="nonzero"
          transform="matrix(-2.1273218  8.8609329  8.8609329  2.1273218  485.18065  319.92143)"/>
  <circle r="0.5"
          stroke="none" fill="#ceb564" fill-rule="nonzero"
          transform="matrix( -2.204566  8.8420313  8.8420313   2.204566  484.54245  322.57971)"/>
  <circle r="0.5"
          stroke="none" fill="#e7cca9" fill-rule="nonzero"
          transform="matrix(-6.4436647 -6.4436647 -6.4436647  6.4436647  108.04617  442.25247)"/>
  <circle r="0.5"
          stroke="none" fill="#e7cca9" fill-rule="nonzero"
          transform="matrix(-6.3871885 -6.4996502 -6.4996502  6.3871885  106.11307  440.31937)"/>
  <circle r="0.5"
          stroke="none" fill="#e7cca9" fill-rule="nonzero"
          transform="matrix(-6.3302258 -6.5551407 -6.5551407  6.3302258  104.19692  438.36947)"/>
  <circle r="0.5"
          stroke="none" fill="#e7cca9" fill-rule="nonzero"
          transform="matrix(-6.2727811 -6.6101321 -6.6101321  6.2727811  102.29785  436.40293)"/>
  <circle r="0.5"
          stroke="none" fill="#e7cca9" fill-rule="nonzero"
          transform="matrix(-6.2148587   -6.66462   -6.66462  6.2148587  100.41601  434.41989)"/>
  <circle r="0.5"
          stroke="none" fill="#e7cca9" fill-rule="nonzero"
          transform="matrix( -6.156463 -6.7186004 -6.7186004   6.156463  98.551557  432.42051)"/>
  <circle r="0.5"
          stroke="none" fill="#e7cca9" fill-rule="nonzero"
          transform="matrix(-6.0975985 -6.7720692 -6.7720692  6.0975985  96.704618  430.40493)"/>
  <circle r="0.5"
          stroke="none" fill="#e7cca9" fill-rule="nonzero"
          transform="matrix(-6.0382696 -6.8250223 -6.8250223  6.0382696  94.875339   428.3733)"/>
  <circle r="0.5"
          stroke="none" fill="#e7cca9" fill-rule="nonzero"
          transform="matrix(-5.9784809 -6.8774556 -6.8774556  5.9784809  93.063858   426.3258)"/>
  <circle r="0.5"
          stroke="none" fill="#e7cca9" fill-rule="nonzero"
          transform="matrix(-5.9182369 -6.9293651 -6.9293651  5.9182369  91.270314  424.26256)"/>
  <circle r="0.5"
          stroke="none" fill="#e7cca9" fill-rule="nonzero"
          transform="matrix(-5.8575422  -6.980747  -6.980747  5.8575422  89.494842  422.18375)"/>
  <circle r="0.5"
          stroke="none" fill="#e7cca9" fill-rule="nonzero"
          transform="matrix( -4.556359  7.8918453  7.8918453   4.556359  466.10111   375.9694)"/>
  <circle r="0.5"
          stroke="none" fill="#e7cca9" fill-rule="nonzero"
          transform="matrix( -4.625054  7.8517835  7.8517835   4.625054   464.7342  378.33696)"/>
  <circle r="0.5"
          stroke="none" fill="#e7cca9" fill-rule="nonzero"
          transform="matrix(-4.6933967  7.8111239  7.8111239  4.6933967  463.34669  380.69249)"/>
  <circle r="0.5"
          stroke="none" fill="#e7cca9" fill-rule="nonzero"
          transform="matrix(-4.7613821  7.7698694  7.7698694  4.7613821  461.93867  383.03583)"/>
  <circle r="0.5"
          stroke="none" fill="#e7cca9" fill-rule="nonzero"
          transform="matrix(-4.8290048  7.7280231  7.7280231  4.8290048  460.51025  385.36679)"/>
  <circle r="0.5"
          stroke="none" fill="#e7cca9" fill-rule="nonzero"
          transform="matrix(-4.8962598  7.6855884  7.6855884  4.8962598  459.06155   387.6852)"/>
  <circle r="0.5"
          stroke="none" fill="#e7cca9" fill-rule="nonzero"
          transform="matrix(-4.9631419  7.6425684  7.6425684  4.9631419  457.59268  389.99087)"/>
  <circle r="0.5"
          stroke="none" fill="#e7cca9" fill-rule="nonzero"
          transform="matrix(-5.0296461  7.5989663  7.5989663  5.0296461  456.10373  392.28364)"/>
  <circle r="0.5"
          stroke="none" fill="#e7cca9" fill-rule="nonzero"
          transform="matrix(-5.0957672  7.5547856  7.5547856  5.0957672  454.59484  394.56333)"/>
  <circle r="0.5"
          stroke="none" fill="#e7cca9" fill-rule="nonzero"
          transform="matrix(-5.1615003  7.5100295  7.5100295  5.1615003  453.06611  396.82977)"/>
  <circle r="0.5"
          stroke="none" fill="#e7cca9" fill-rule="nonzero"
          transform="matrix(-5.2268403  7.4647016  7.4647016  5.2268403  451.51766  399.08278)"/>
  <circle r="0.5"
          stroke="none" fill="#e7cca9" fill-rule="nonzero"
          transform="matrix(-9.1002293 -0.47692281 -0.47692281  9.1002293  261.59461  501.23153)"/>
  <circle r="0.5"
          stroke="none" fill="#e7cca9" fill-rule="nonzero"
          transform="matrix(-9.0957209 -0.55631812 -0.55631812  9.0957209  258.86454  501.08846)"/>
  <circle r="0.5"
          stroke="none" fill="#e7cca9" fill-rule="nonzero"
          transform="matrix(-9.0905199 -0.63567107 -0.63567107  9.0905199  256.13582  500.92156)"/>
  <circle r="0.5"
          stroke="none" fill="#e7cca9" fill-rule="nonzero"
          transform="matrix(-9.0846265 -0.71497561 -0.71497561  9.0846265  253.40867  500.73086)"/>
  <circle r="0.5"
          stroke="none" fill="#e7cca9" fill-rule="nonzero"
          transform="matrix(-9.0780413 -0.7942257 -0.7942257  9.0780413  250.68328  500.51637)"/>
  <circle r="0.5"
          stroke="none" fill="#e7cca9" fill-rule="nonzero"
          transform="matrix(-9.0707648 -0.87341531 -0.87341531  9.0707648  247.95987   500.2781)"/>
  <circle r="0.5"
          stroke="none" fill="#e7cca9" fill-rule="nonzero"
          transform="matrix(-9.0627976 -0.95253841 -0.95253841  9.0627976  245.23864  500.01607)"/>
  <circle r="0.5"
          stroke="none" fill="#e7cca9" fill-rule="nonzero"
          transform="matrix(-9.0541401  -1.031589  -1.031589  9.0541401   242.5198  499.73031)"/>
  <circle r="0.5"
          stroke="none" fill="#e7cca9" fill-rule="nonzero"
          transform="matrix(-9.0447932  -1.110561  -1.110561  9.0447932  239.80356  499.42084)"/>
  <circle r="0.5"
          stroke="none" fill="#e7cca9" fill-rule="nonzero"
          transform="matrix(-9.0347574 -1.1894484 -1.1894484  9.0347574  237.09012  499.08767)"/>
  <circle r="0.5"
          stroke="none" fill="#e7cca9" fill-rule="nonzero"
          transform="matrix(-9.0240336 -1.2682452 -1.2682452  9.0240336  234.37969  498.73083)"/>
  <circle r="0.5"
          stroke="none" fill="#e7cca9" fill-rule="nonzero"
          transform="matrix( 1.8946406  8.9135832  17.827166 -3.7892812  497.25925  256.00869)"/>
  <circle r="0.5"
          stroke="none" fill="#e7cca9" fill-rule="nonzero"
          transform="matrix( 6.7720692  6.0975985  12.195197 -13.544138  498.66724  258.44741)"/>
  <circle r="0.5"
          stroke="none" fill="#e7cca9" fill-rule="nonzero"
          transform="matrix( 9.0627976 0.95253841  1.9050768 -18.125595  501.23977  259.59277)"/>
  <circle r="0.5"
          stroke="none" fill="#e7cca9" fill-rule="nonzero"
          transform="matrix( 7.8918453  -4.556359  -9.112718 -15.783691  503.99422   259.0073)"/>
  <circle r="0.5"
          stroke="none" fill="#e7cca9" fill-rule="nonzero"
          transform="matrix( 3.7064763 -8.3248821 -16.649764 -7.4129526  505.87848  256.91461)"/>
  <circle r="0.5"
          stroke="none" fill="#e7cca9" fill-rule="nonzero"
          transform="matrix(-1.8946406 -8.9135832 -17.827166  3.7892812  506.17283  254.11405)"/>
  <circle r="0.5"
          stroke="none" fill="#e7cca9" fill-rule="nonzero"
          transform="matrix(-6.7720692 -6.0975985 -12.195197  13.544138  504.76484  251.67534)"/>
  <circle r="0.5"
          stroke="none" fill="#e7cca9" fill-rule="nonzero"
          transform="matrix(-9.0627976 -0.95253841 -1.9050768  18.125595  502.19231  250.52997)"/>
  <circle r="0.5"
          stroke="none" fill="#e7cca9" fill-rule="nonzero"
          transform="matrix(-7.8918453   4.556359   9.112718  15.783691  499.43786  251.11545)"/>
  <circle r="0.5"
          stroke="none" fill="#e7cca9" fill-rule="nonzero"
          transform="matrix(-3.7064763  8.3248821  16.649764  7.4129526   497.5536  253.20814)"/>
  <circle r="0.5"
          stroke="none" fill="#ceb564" fill-rule="nonzero"
          transform="matrix(-8.3248821 -3.7064763 -7.4129526  16.649764  135.87718  471.60132)"/>
  <circle r="0.5"
          stroke="none" fill="#ceb564" fill-rule="nonzero"
          transform="matrix(-8.9135832  1.8946406  3.7892812  17.827166  133.07662  471.30697)"/>
  <circle r="0.5"
          stroke="none" fill="#ceb564" fill-rule="nonzero"
          transform="matrix(-6.0975985  6.7720692  13.544138  12.195197  130.63791  472.71496)"/>
  <circle r="0.5"
          stroke="none" fill="#ceb564" fill-rule="nonzero"
          transform="matrix(-0.95253841  9.0627976  18.125595  1.9050768  129.49254  475.28749)"/>
  <circle r="0.5"
          stroke="none" fill="#ceb564" fill-rule="nonzero"
          transform="matrix(  4.556359  7.8918453  15.783691  -9.112718  130.07802  478.04194)"/>
  <circle r="0.5"
          stroke="none" fill="#ceb564" fill-rule="nonzero"
          transform="matrix( 8.3248821  3.7064763  7.4129526 -16.649764   132.1707   479.9262)"/>
  <circle r="0.5"
          stroke="none" fill="#ceb564" fill-rule="nonzero"
          transform="matrix( 8.9135832 -1.8946406 -3.7892812 -17.827166  134.97126  480.22055)"/>
  <circle r="0.5"
          stroke="none" fill="#ceb564" fill-rule="nonzero"
          transform="matrix( 6.0975985 -6.7720692 -13.544138 -12.195197  137.40998  478.81256)"/>
  <circle r="0.5"
          stroke="none" fill="#ceb564" fill-rule="nonzero"
          transform="matrix(0.95253841 -9.0627976 -18.125595 -1.9050768  138.55534  476.24003)"/>
  <circle r="0.5"
          stroke="none" fill="#ceb564" fill-rule="nonzero"
          transform="matrix( -4.556359 -7.8918453 -15.783691   9.112718  137.96986  473.48558)"/>
  <circle r="0.5"
          stroke="none" fill="#d0d5b7" fill-rule="nonzero"
          transform="matrix( 9.0627976 -0.95253841 -1.9050768 -18.125595  270.62836   35.76886)"/>
  <circle r="0.5"
          stroke="none" fill="#d0d5b7" fill-rule="nonzero"
          transform="matrix( 6.7720692 -6.0975985 -12.195197 -13.544138  273.20089  34.623496)"/>
  <circle r="0.5"
          stroke="none" fill="#d0d5b7" fill-rule="nonzero"
          transform="matrix( 1.8946406 -8.9135832 -17.827166 -3.7892812  274.60889  32.184782)"/>
  <circle r="0.5"
          stroke="none" fill="#d0d5b7" fill-rule="nonzero"
          transform="matrix(-3.7064763 -8.3248821 -16.649764  7.4129526  274.31454  29.384224)"/>
  <circle r="0.5"
          stroke="none" fill="#d0d5b7" fill-rule="nonzero"
          transform="matrix(-7.8918453  -4.556359  -9.112718  15.783691  272.43028  27.291539)"/>
  <circle r="0.5"
          stroke="none" fill="#d0d5b7" fill-rule="nonzero"
          transform="matrix(-9.0627976 0.95253841  1.9050768  18.125595  269.67583  26.706063)"/>
  <circle r="0.5"
          stroke="none" fill="#d0d5b7" fill-rule="nonzero"
          transform="matrix(-6.7720692  6.0975985  12.195197  13.544138   267.1033  27.851427)"/>
  <circle r="0.5"
          stroke="none" fill="#d0d5b7" fill-rule="nonzero"
          transform="matrix(-1.8946406  8.9135832  17.827166  3.7892812   265.6953  30.290141)"/>
  <circle r="0.5"
          stroke="none" fill="#d0d5b7" fill-rule="nonzero"
          transform="matrix( 3.7064763  8.3248821  16.649764 -7.4129526  265.98965    33.0907)"/>
  <circle r="0.5"
          stroke="none" fill="#d0d5b7" fill-rule="nonzero"
          transform="matrix( 7.8918453   4.556359   9.112718 -15.783691  267.87392  35.183384)"/>
  <circle r="0.5"
          stroke="none" fill="#ceb564" fill-rule="nonzero"
          transform="matrix( 3.2657061 -8.5074551  -17.01491 -6.5314121  55.472074  156.60463)"/>
  <circle r="0.5"
          stroke="none" fill="#ceb564" fill-rule="nonzero"
          transform="matrix( -2.358545 -8.8022096 -17.604419  4.7170899  55.619451  153.79251)"/>
  <circle r="0.5"
          stroke="none" fill="#ceb564" fill-rule="nonzero"
          transform="matrix( -7.081912 -5.7348192 -11.469638  14.163824  54.085756  151.43083)"/>
  <circle r="0.5"
          stroke="none" fill="#ceb564" fill-rule="nonzero"
          transform="matrix(-9.1002293 -0.47692281 -0.95384562  18.200459  51.456807  150.42167)"/>
  <circle r="0.5"
          stroke="none" fill="#ceb564" fill-rule="nonzero"
          transform="matrix(-7.6425684  4.9631419  9.9262839  15.285137  48.736775   151.1505)"/>
  <circle r="0.5"
          stroke="none" fill="#ceb564" fill-rule="nonzero"
          transform="matrix(-3.2657061  8.5074551   17.01491  6.5314121  46.964618  153.33893)"/>
  <circle r="0.5"
          stroke="none" fill="#ceb564" fill-rule="nonzero"
          transform="matrix(  2.358545  8.8022096  17.604419 -4.7170899  46.817241  156.15105)"/>
  <circle r="0.5"
          stroke="none" fill="#ceb564" fill-rule="nonzero"
          transform="matrix(  7.081912  5.7348192  11.469638 -14.163824  48.350936  158.51274)"/>
  <circle r="0.5"
          stroke="none" fill="#ceb564" fill-rule="nonzero"
          transform="matrix( 9.1002293 0.47692281 0.95384562 -18.200459  50.979885   159.5219)"/>
  <circle r="0.5"
          stroke="none" fill="#ceb564" fill-rule="nonzero"
          transform="matrix( 7.6425684 -4.9631419 -9.9262839 -15.285137  53.699917  158.79307)"/>
  <circle r="0.5"
          stroke="none" fill="#ceb564" fill-rule="nonzero"
          transform="matrix( 8.8022096   2.358545  4.7170899 -17.604419  354.59547  54.661829)"/>
  <circle r="0.5"
          stroke="none" fill="#ceb564" fill-rule="nonzero"
          transform="matrix( 8.5074551 -3.2657061 -6.5314121  -17.01491   357.4076  54.514452)"/>
  <circle r="0.5"
          stroke="none" fill="#ceb564" fill-rule="nonzero"
          transform="matrix( 4.9631419 -7.6425684 -15.285137 -9.9262839  359.59603  52.742295)"/>
  <circle r="0.5"
          stroke="none" fill="#ceb564" fill-rule="nonzero"
          transform="matrix(-0.47692281 -9.1002293 -18.200459 0.95384562  360.32486  50.022263)"/>
  <circle r="0.5"
          stroke="none" fill="#ceb564" fill-rule="nonzero"
          transform="matrix(-5.7348192  -7.081912 -14.163824  11.469638   359.3157  47.393314)"/>
  <circle r="0.5"
          stroke="none" fill="#ceb564" fill-rule="nonzero"
          transform="matrix(-8.8022096  -2.358545 -4.7170899  17.604419  356.95402  45.859619)"/>
  <circle r="0.5"
          stroke="none" fill="#ceb564" fill-rule="nonzero"
          transform="matrix(-8.5074551  3.2657061  6.5314121   17.01491  354.14189  46.006996)"/>
  <circle r="0.5"
          stroke="none" fill="#ceb564" fill-rule="nonzero"
          transform="matrix(-4.9631419  7.6425684  15.285137  9.9262839  351.95346  47.779153)"/>
  <circle r="0.5"
          stroke="none" fill="#ceb564" fill-rule="nonzero"
          transform="matrix(0.47692281  9.1002293  18.200459 -0.95384562  351.22463  50.499185)"/>
  <circle r="0.5"
          stroke="none" fill="#ceb564" fill-rule="nonzero"
          transform="matrix( 5.7348192   7.081912  14.163824 -11.469638  352.23379  53.128134)"/>
  <circle r="0.5"
          stroke="none" fill="#e7cca9" fill-rule="nonzero"
          transform="matrix(-3.7064763 -8.3248821 -16.649764  7.4129526  34.446399  336.11155)"/>
  <circle r="0.5"
          stroke="none" fill="#e7cca9" fill-rule="nonzero"
          transform="matrix(-7.8918453  -4.556359  -9.112718  15.783691  32.562138  334.01886)"/>
  <circle r="0.5"
          stroke="none" fill="#e7cca9" fill-rule="nonzero"
          transform="matrix(-9.0627976 0.95253841  1.9050768  18.125595  29.807689  333.43339)"/>
  <circle r="0.5"
          stroke="none" fill="#e7cca9" fill-rule="nonzero"
          transform="matrix(-6.7720692  6.0975985  12.195197  13.544138  27.235159  334.57875)"/>
  <circle r="0.5"
          stroke="none" fill="#e7cca9" fill-rule="nonzero"
          transform="matrix(-1.8946406  8.9135832  17.827166  3.7892812  25.827166  337.01747)"/>
  <circle r="0.5"
          stroke="none" fill="#e7cca9" fill-rule="nonzero"
          transform="matrix( 3.7064763  8.3248821  16.649764 -7.4129526  26.121517  339.81803)"/>
  <circle r="0.5"
          stroke="none" fill="#e7cca9" fill-rule="nonzero"
          transform="matrix( 7.8918453   4.556359   9.112718 -15.783691  28.005779  341.91071)"/>
  <circle r="0.5"
          stroke="none" fill="#e7cca9" fill-rule="nonzero"
          transform="matrix( 9.0627976 -0.95253841 -1.9050768 -18.125595  30.760227  342.49619)"/>
  <circle r="0.5"
          stroke="none" fill="#e7cca9" fill-rule="nonzero"
          transform="matrix( 6.7720692 -6.0975985 -12.195197 -13.544138  33.332757  341.35082)"/>
  <circle r="0.5"
          stroke="none" fill="#e7cca9" fill-rule="nonzero"
          transform="matrix( 1.8946406 -8.9135832 -17.827166 -3.7892812   34.74075  338.91211)"/>
  <circle r="0.5"
          stroke="none" fill="#ceb564" fill-rule="nonzero"
          transform="matrix( -7.081912  5.7348192  11.469638  14.163824  382.62588  474.53262)"/>
  <circle r="0.5"
          stroke="none" fill="#ceb564" fill-rule="nonzero"
          transform="matrix( -2.358545  8.8022096  17.604419  4.7170899  381.09219   476.8943)"/>
  <circle r="0.5"
          stroke="none" fill="#ceb564" fill-rule="nonzero"
          transform="matrix( 3.2657061  8.5074551   17.01491 -6.5314121  381.23956  479.70642)"/>
  <circle r="0.5"
          stroke="none" fill="#ceb564" fill-rule="nonzero"
          transform="matrix( 7.6425684  4.9631419  9.9262839 -15.285137  383.01172  481.89486)"/>
  <circle r="0.5"
          stroke="none" fill="#ceb564" fill-rule="nonzero"
          transform="matrix( 9.1002293 -0.47692281 -0.95384562 -18.200459  385.73175  482.62369)"/>
  <circle r="0.5"
          stroke="none" fill="#ceb564" fill-rule="nonzero"
          transform="matrix(  7.081912 -5.7348192 -11.469638 -14.163824   388.3607  481.61453)"/>
  <circle r="0.5"
          stroke="none" fill="#ceb564" fill-rule="nonzero"
          transform="matrix(  2.358545 -8.8022096 -17.604419 -4.7170899   389.8944  479.25284)"/>
  <circle r="0.5"
          stroke="none" fill="#ceb564" fill-rule="nonzero"
          transform="matrix(-3.2657061 -8.5074551  -17.01491  6.5314121  389.74702  476.44072)"/>
  <circle r="0.5"
          stroke="none" fill="#ceb564" fill-rule="nonzero"
          transform="matrix(-7.6425684 -4.9631419 -9.9262839  15.285137  387.97486  474.25229)"/>
  <circle r="0.5"
          stroke="none" fill="#ceb564" fill-rule="nonzero"
          transform="matrix(-9.1002293 0.47692281 0.95384562  18.200459  385.25483  473.52346)"/>
  <circle r="0.5"
          stroke="none" fill="#e7cca9" fill-rule="nonzero"
          transform="matrix(-8.6667098  2.8159847  5.6319694   17.33342  301.91529   504.4194)"/>
  <circle r="0.5"
          stroke="none" fill="#e7cca9" fill-rule="nonzero"
          transform="matrix(-5.3563212  7.3723437  14.744687  10.712642  299.63711   506.0746)"/>
  <circle r="0.5"
          stroke="none" fill="#e7cca9" fill-rule="nonzero"
          transform="matrix(         0   9.112718  18.225436          0  298.76693  508.75276)"/>
  <circle r="0.5"
          stroke="none" fill="#e7cca9" fill-rule="nonzero"
          transform="matrix( 5.3563212  7.3723437  14.744687 -10.712642  299.63711  511.43092)"/>
  <circle r="0.5"
          stroke="none" fill="#e7cca9" fill-rule="nonzero"
          transform="matrix( 8.6667098  2.8159847  5.6319694  -17.33342  301.91529  513.08611)"/>
  <circle r="0.5"
          stroke="none" fill="#e7cca9" fill-rule="nonzero"
          transform="matrix( 8.6667098 -2.8159847 -5.6319694  -17.33342  304.73128  513.08611)"/>
  <circle r="0.5"
          stroke="none" fill="#e7cca9" fill-rule="nonzero"
          transform="matrix( 5.3563212 -7.3723437 -14.744687 -10.712642  307.00946  511.43092)"/>
  <circle r="0.5"
          stroke="none" fill="#e7cca9" fill-rule="nonzero"
          transform="matrix(         0  -9.112718 -18.225436         -0  307.87964  508.75276)"/>
  <circle r="0.5"
          stroke="none" fill="#e7cca9" fill-rule="nonzero"
          transform="matrix(-5.3563212 -7.3723437 -14.744687  10.712642  307.00946   506.0746)"/>
  <circle r="0.5"
          stroke="none" fill="#e7cca9" fill-rule="nonzero"
          transform="matrix(-8.6667098 -2.8159847 -5.6319694   17.33342  304.73128   504.4194)"/>
  <circle r="0.5"
          stroke="none" fill="#e7cca9" fill-rule="nonzero"
          transform="matrix( 7.3723437  5.3563212  10.712642 -14.744687  426.21488  102.39105)"/>
  <circle r="0.5"
          stroke="none" fill="#e7cca9" fill-rule="nonzero"
          transform="matrix(  9.112718          0          0 -18.225436  428.89304  103.26124)"/>
  <circle r="0.5"
          stroke="none" fill="#e7cca9" fill-rule="nonzero"
          transform="matrix( 7.3723437 -5.3563212 -10.712642 -14.744687   431.5712  102.39105)"/>
  <circle r="0.5"
          stroke="none" fill="#e7cca9" fill-rule="nonzero"
          transform="matrix( 2.8159847 -8.6667098  -17.33342 -5.6319694   433.2264  100.11287)"/>
  <circle r="0.5"
          stroke="none" fill="#e7cca9" fill-rule="nonzero"
          transform="matrix(-2.8159847 -8.6667098  -17.33342  5.6319694   433.2264   97.29689)"/>
  <circle r="0.5"
          stroke="none" fill="#e7cca9" fill-rule="nonzero"
          transform="matrix(-7.3723437 -5.3563212 -10.712642  14.744687   431.5712   95.01871)"/>
  <circle r="0.5"
          stroke="none" fill="#e7cca9" fill-rule="nonzero"
          transform="matrix( -9.112718         -0          0  18.225436  428.89304  94.148523)"/>
  <circle r="0.5"
          stroke="none" fill="#e7cca9" fill-rule="nonzero"
          transform="matrix(-7.3723437  5.3563212  10.712642  14.744687  426.21488   95.01871)"/>
  <circle r="0.5"
          stroke="none" fill="#e7cca9" fill-rule="nonzero"
          transform="matrix(-2.8159847  8.6667098   17.33342  5.6319694  424.55969   97.29689)"/>
  <circle r="0.5"
          stroke="none" fill="#e7cca9" fill-rule="nonzero"
          transform="matrix( 2.8159847  8.6667098   17.33342 -5.6319694  424.55969  100.11287)"/>
</svg>
